  0
SECTION
  2
HEADER
  9
$ACADVER
  1
AC1015
  9
$ACADMAINTVER
 70
     6
  9
$DWGCODEPAGE
  3
ANSI_936
  9
$INSBASE
 10
0.0
 20
0.0
 30
0.0
  9
$EXTMIN
 10
0.0
 20
0.0
 30
0.0
  9
$EXTMAX
 10
210.0
 20
297.0
 30
0.0
  9
$LIMMIN
 10
0.0
 20
0.0
  9
$LIMMAX
 10
210.0
 20
297.0
  9
$ORTHOMODE
 70
     0
  9
$REGENMODE
 70
     1
  9
$FILLMODE
 70
     1
  9
$QTEXTMODE
 70
     0
  9
$MIRRTEXT
 70
     1
  9
$LTSCALE
 40
1.0
  9
$ATTMODE
 70
     1
  9
$TEXTSIZE
 40
3.5
  9
$TRACEWID
 40
1.0
  9
$TEXTSTYLE
  7
Standard
  9
$CLAYER
  8
0
  9
$CELTYPE
  6
ByLayer
  9
$CECOLOR
 62
   256
  9
$CELTSCALE
 40
1.0
  9
$DISPSILH
 70
     0
  9
$DIMSCALE
 40
1.0
  9
$DIMASZ
 40
6.0
  9
$DIMEXO
 40
1.0
  9
$DIMDLI
 40
3.75
  9
$DIMRND
 40
0.0
  9
$DIMDLE
 40
0.0
  9
$DIMEXE
 40
1.0
  9
$DIMTP
 40
0.0
  9
$DIMTM
 40
0.0
  9
$DIMTXT
 40
3.5
  9
$DIMCEN
 40
2.5
  9
$DIMTSZ
 40
0.0
  9
$DIMTOL
 70
     0
  9
$DIMLIM
 70
     0
  9
$DIMTIH
 70
     1
  9
$DIMTOH
 70
     1
  9
$DIMSE1
 70
     0
  9
$DIMSE2
 70
     0
  9
$DIMTAD
 70
     1
  9
$DIMZIN
 70
     0
  9
$DIMBLK
  1

  9
$DIMASO
 70
     1
  9
$DIMSHO
 70
     1
  9
$DIMPOST
  1

  9
$DIMAPOST
  1

  9
$DIMALT
 70
     0
  9
$DIMALTD
 70
     3
  9
$DIMALTF
 40
0.0393700787
  9
$DIMLFAC
 40
2.0
  9
$DIMTOFL
 70
     1
  9
$DIMTVP
 40
0.0
  9
$DIMTIX
 70
     0
  9
$DIMSOXD
 70
     0
  9
$DIMSAH
 70
     0
  9
$DIMBLK1
  1

  9
$DIMBLK2
  1

  9
$DIMSTYLE
  2
ISO-25
  9
$DIMCLRD
 70
     0
  9
$DIMCLRE
 70
     0
  9
$DIMCLRT
 70
     0
  9
$DIMTFAC
 40
1.0
  9
$DIMGAP
 40
1.524
  9
$DIMJUST
 70
     0
  9
$DIMSD1
 70
     0
  9
$DIMSD2
 70
     0
  9
$DIMTOLJ
 70
     0
  9
$DIMTZIN
 70
     0
  9
$DIMALTZ
 70
     0
  9
$DIMALTTZ
 70
     0
  9
$DIMUPT
 70
     0
  9
$DIMDEC
 70
     3
  9
$DIMTDEC
 70
     3
  9
$DIMALTU
 70
     2
  9
$DIMALTTD
 70
     3
  9
$DIMTXSTY
  7
Standard
  9
$DIMAUNIT
 70
     0
  9
$DIMADEC
 70
     2
  9
$DIMALTRND
 40
0.0
  9
$DIMAZIN
 70
     0
  9
$DIMDSEP
 70
    44
  9
$DIMATFIT
 70
     3
  9
$DIMFRAC
 70
     0
  9
$DIMLDRBLK
  1

  9
$DIMLUNIT
 70
     2
  9
$DIMLWD
 70
    -2
  9
$DIMLWE
 70
    -2
  9
$DIMTMOVE
 70
     0
  9
$LUNITS
 70
     2
  9
$LUPREC
 70
     2
  9
$SKETCHINC
 40
1.0
  9
$FILLETRAD
 40
0.0
  9
$AUNITS
 70
     0
  9
$AUPREC
 70
     2
  9
$MENU
  1
.
  9
$ELEVATION
 40
0.0
  9
$PELEVATION
 40
0.0
  9
$THICKNESS
 40
0.0
  9
$LIMCHECK
 70
     0
  9
$CHAMFERA
 40
0.0
  9
$CHAMFERB
 40
0.0
  9
$CHAMFERC
 40
0.0
  9
$CHAMFERD
 40
0.0
  9
$SKPOLY
 70
     0
  9
$TDCREATE
 40
2460843.472075093
  9
$TDUCREATE
 40
2460843.138741759
  9
$TDUPDATE
 40
2460843.472083681
  9
$TDUUPDATE
 40
2460843.138750348
  9
$TDINDWG
 40
0.0000000116
  9
$TDUSRTIMER
 40
0.0000000116
  9
$USRTIMER
 70
     1
  9
$ANGBASE
 50
0.0
  9
$ANGDIR
 70
     0
  9
$PDMODE
 70
     0
  9
$PDSIZE
 40
-1.0
  9
$PLINEWID
 40
0.0
  9
$SPLFRAME
 70
     0
  9
$SPLINETYPE
 70
     6
  9
$SPLINESEGS
 70
     8
  9
$HANDSEED
  5
31A
  9
$SURFTAB1
 70
     6
  9
$SURFTAB2
 70
     6
  9
$SURFTYPE
 70
     6
  9
$SURFU
 70
     6
  9
$SURFV
 70
     6
  9
$UCSBASE
  2

  9
$UCSNAME
  2

  9
$UCSORG
 10
0.0
 20
0.0
 30
0.0
  9
$UCSXDIR
 10
1.0
 20
0.0
 30
0.0
  9
$UCSYDIR
 10
0.0
 20
1.0
 30
0.0
  9
$UCSORTHOREF
  2

  9
$UCSORTHOVIEW
 70
     0
  9
$UCSORGTOP
 10
0.0
 20
0.0
 30
0.0
  9
$UCSORGBOTTOM
 10
0.0
 20
0.0
 30
0.0
  9
$UCSORGLEFT
 10
0.0
 20
0.0
 30
0.0
  9
$UCSORGRIGHT
 10
0.0
 20
0.0
 30
0.0
  9
$UCSORGFRONT
 10
0.0
 20
0.0
 30
0.0
  9
$UCSORGBACK
 10
0.0
 20
0.0
 30
0.0
  9
$PUCSBASE
  2

  9
$PUCSNAME
  2

  9
$PUCSORG
 10
0.0
 20
0.0
 30
0.0
  9
$PUCSXDIR
 10
1.0
 20
0.0
 30
0.0
  9
$PUCSYDIR
 10
0.0
 20
1.0
 30
0.0
  9
$PUCSORTHOREF
  2

  9
$PUCSORTHOVIEW
 70
     0
  9
$PUCSORGTOP
 10
0.0
 20
0.0
 30
0.0
  9
$PUCSORGBOTTOM
 10
0.0
 20
0.0
 30
0.0
  9
$PUCSORGLEFT
 10
0.0
 20
0.0
 30
0.0
  9
$PUCSORGRIGHT
 10
0.0
 20
0.0
 30
0.0
  9
$PUCSORGFRONT
 10
0.0
 20
0.0
 30
0.0
  9
$PUCSORGBACK
 10
0.0
 20
0.0
 30
0.0
  9
$USERI1
 70
     0
  9
$USERI2
 70
     0
  9
$USERI3
 70
     0
  9
$USERI4
 70
     0
  9
$USERI5
 70
     0
  9
$USERR1
 40
0.0
  9
$USERR2
 40
0.0
  9
$USERR3
 40
0.0
  9
$USERR4
 40
0.0
  9
$USERR5
 40
0.0
  9
$WORLDVIEW
 70
     1
  9
$SHADEDGE
 70
     3
  9
$SHADEDIF
 70
    70
  9
$TILEMODE
 70
     1
  9
$MAXACTVP
 70
    64
  9
$PINSBASE
 10
0.0
 20
0.0
 30
0.0
  9
$PLIMCHECK
 70
     0
  9
$PEXTMIN
 10
1.0000000000E+20
 20
1.0000000000E+20
 30
1.0000000000E+20
  9
$PEXTMAX
 10
-1.0000000000E+20
 20
-1.0000000000E+20
 30
-1.0000000000E+20
  9
$PLIMMIN
 10
0.0
 20
0.0
  9
$PLIMMAX
 10
420.0
 20
297.0
  9
$UNITMODE
 70
     0
  9
$VISRETAIN
 70
     1
  9
$PLINEGEN
 70
     0
  9
$PSLTSCALE
 70
     1
  9
$TREEDEPTH
 70
  3020
  9
$CMLSTYLE
  2
Standard
  9
$CMLJUST
 70
     0
  9
$CMLSCALE
 40
20.0
  9
$PROXYGRAPHICS
 70
     1
  9
$MEASUREMENT
 70
     1
  9
$CELWEIGHT
370
    -1
  9
$ENDCAPS
280
     0
  9
$JOINSTYLE
280
     0
  9
$LWDISPLAY
290
     1
  9
$INSUNITS
 70
     4
  9
$HYPERLINKBASE
  1

  9
$STYLESHEET
  1

  9
$XEDIT
290
     1
  9
$CEPSNTYPE
380
     0
  9
$PSTYLEMODE
290
     1
  9
$FINGERPRINTGUID
  2
{b90c7d59-426c-49c6-86f1-c82af9965bb2}
  9
$VERSIONGUID
  2
{FAEB1C32-E019-11D5-929B-00C0DF256EC4}
  9
$EXTNAMES
290
     1
  9
$PSVPSCALE
 40
0.0
  9
$OLESTARTUP
290
     0
  0
ENDSEC
  0
SECTION
  2
CLASSES
  0
CLASS
  1
ACDBDICTIONARYWDFLT
  2
AcDbDictionaryWithDefault
  3
ObjectDBX Classes
 90
        0
280
     0
281
     0
  0
CLASS
  1
VISUALSTYLE
  2
AcDbVisualStyle
  3
ObjectDBX Classes
 90
     4095
280
     0
281
     0
  0
CLASS
  1
MATERIAL
  2
AcDbMaterial
  3
ObjectDBX Classes
 90
     1153
280
     0
281
     0
  0
CLASS
  1
SCALE
  2
AcDbScale
  3
ObjectDBX Classes
 90
     1153
280
     0
281
     0
  0
CLASS
  1
TABLESTYLE
  2
AcDbTableStyle
  3
ObjectDBX Classes
 90
     4095
280
     0
281
     0
  0
CLASS
  1
MLEADERSTYLE
  2
AcDbMLeaderStyle
  3
ACDB_MLEADERSTYLE_CLASS
 90
     4095
280
     0
281
     0
  0
CLASS
  1
SUN
  2
AcDbSun
  3
SCENEOE
 90
     1153
280
     0
281
     0
  0
CLASS
  1
ACDBPLACEHOLDER
  2
AcDbPlaceHolder
  3
ObjectDBX Classes
 90
        0
280
     0
281
     0
  0
CLASS
  1
LAYOUT
  2
AcDbLayout
  3
ObjectDBX Classes
 90
        0
280
     0
281
     0
  0
ENDSEC
  0
SECTION
  2
TABLES
  0
TABLE
  2
VPORT
  5
8
330
0
100
AcDbSymbolTable
 70
     1
  0
VPORT
  5
29
330
8
100
AcDbSymbolTableRecord
100
AcDbViewportTableRecord
  2
*Active
 70
     0
 10
0.0
 20
0.0
 11
1.0
 21
1.0
 12
105.0
 22
148.5
 13
0.0
 23
0.0
 14
10.0
 24
10.0
 15
10.0
 25
10.0
 16
0.0
 26
0.0
 36
1.0
 17
0.0
 27
0.0
 37
0.0
 40
297.0
 41
0.7070707071
 42
50.0
 43
0.0
 44
0.0
 50
0.0
 51
0.0
 71
     0
 72
  2000
 73
     1
 74
     3
 75
     0
 76
     0
 77
     0
 78
     0
281
     0
 65
     1
110
0.0
120
0.0
130
0.0
111
1.0
121
0.0
131
0.0
112
0.0
122
1.0
132
0.0
 79
     0
146
0.0
  0
ENDTAB
  0
TABLE
  2
LTYPE
  5
5
330
0
100
AcDbSymbolTable
 70
     6
  0
LTYPE
  5
14
330
5
100
AcDbSymbolTableRecord
100
AcDbLinetypeTableRecord
  2
ByBlock
 70
     0
  3

 72
    65
 73
     0
 40
0.0
  0
LTYPE
  5
15
330
5
100
AcDbSymbolTableRecord
100
AcDbLinetypeTableRecord
  2
ByLayer
 70
     0
  3

 72
    65
 73
     0
 40
0.0
  0
LTYPE
  5
16
330
5
100
AcDbSymbolTableRecord
100
AcDbLinetypeTableRecord
  2
Continuous
 70
     0
  3
Solid line
 72
    65
 73
     0
 40
0.0
  0
LTYPE
  5
5E
330
5
100
AcDbSymbolTableRecord
100
AcDbLinetypeTableRecord
  2
HIDDEN
 70
     0
  3
Hidden __ __ __ __ __ __ __ __ __ __ __ __ __ __
 72
    65
 73
     2
 40
1.905
 49
1.27
 74
     0
 49
-0.635
 74
     0
  0
LTYPE
  5
5F
330
5
100
AcDbSymbolTableRecord
100
AcDbLinetypeTableRecord
  2
PHANTOM
 70
     0
  3
Phantom ______  __  __  ______  __  __  ______
 72
    65
 73
     6
 40
12.7
 49
6.35
 74
     0
 49
-1.27
 74
     0
 49
1.27
 74
     0
 49
-1.27
 74
     0
 49
1.27
 74
     0
 49
-1.27
 74
     0
  0
LTYPE
  5
60
330
5
100
AcDbSymbolTableRecord
100
AcDbLinetypeTableRecord
  2
CENTER
 70
     0
  3
Center ____ _ ____ _ ____ _ ____ _ ____ _ ____
 72
    65
 73
     4
 40
10.16
 49
6.35
 74
     0
 49
-1.27
 74
     0
 49
1.27
 74
     0
 49
-1.27
 74
     0
  0
LTYPE
  5
61
330
5
100
AcDbSymbolTableRecord
100
AcDbLinetypeTableRecord
  2
CENTERX2
 70
     0
  3
Center (2x) ________  __  ________  __  _____
 72
    65
 73
     4
 40
20.32
 49
12.7
 74
     0
 49
-2.54
 74
     0
 49
2.54
 74
     0
 49
-2.54
 74
     0
  0
LTYPE
  5
62
330
5
100
AcDbSymbolTableRecord
100
AcDbLinetypeTableRecord
  2
DOT2
 70
     0
  3
Dot (.5x) ........................................
 72
    65
 73
     2
 40
0.635
 49
0.0
 74
     0
 49
-0.635
 74
     0
  0
ENDTAB
  0
TABLE
  2
LAYER
  5
2
330
0
100
AcDbSymbolTable
 70
    10
  0
LAYER
  5
10
330
2
100
AcDbSymbolTableRecord
100
AcDbLayerTableRecord
  2
0
 70
     0
 62
     7
  6
Continuous
370
    -3
390
F
  0
LAYER
  5
63
330
2
100
AcDbSymbolTableRecord
100
AcDbLayerTableRecord
  2
粗实线
 70
     0
 62
     7
  6
Continuous
370
    50
390
F
  0
LAYER
  5
64
330
2
100
AcDbSymbolTableRecord
100
AcDbLayerTableRecord
  2
细实线
 70
     0
 62
     9
  6
Continuous
370
    25
390
F
  0
LAYER
  5
65
330
2
100
AcDbSymbolTableRecord
100
AcDbLayerTableRecord
  2
中心线
 70
     0
 62
     4
  6
CENTER
370
    25
390
F
  0
LAYER
  5
66
330
2
100
AcDbSymbolTableRecord
100
AcDbLayerTableRecord
  2
虚线
 70
     0
 62
     6
  6
HIDDEN
370
    25
390
F
  0
LAYER
  5
67
330
2
100
AcDbSymbolTableRecord
100
AcDbLayerTableRecord
  2
双点划线
 70
     0
 62
   171
  6
PHANTOM
370
    25
390
F
  0
LAYER
  5
68
330
2
100
AcDbSymbolTableRecord
100
AcDbLayerTableRecord
  2
文字
 70
     0
 62
     2
  6
Continuous
370
    25
390
F
  0
LAYER
  5
69
330
2
100
AcDbSymbolTableRecord
100
AcDbLayerTableRecord
  2
蓝色线
 70
     0
 62
     5
  6
Continuous
370
    25
390
F
  0
LAYER
  5
6A
330
2
100
AcDbSymbolTableRecord
100
AcDbLayerTableRecord
  2
剖面线
 70
     0
 62
     1
  6
Continuous
370
    25
390
F
  0
LAYER
  5
6B
330
2
100
AcDbSymbolTableRecord
100
AcDbLayerTableRecord
  2
图形符号
 70
     0
 62
     7
  6
Continuous
370
    25
390
F
  0
ENDTAB
  0
TABLE
  2
STYLE
  5
3
330
0
100
AcDbSymbolTable
 70
     8
  0
STYLE
  5
11
330
3
100
AcDbSymbolTableRecord
100
AcDbTextStyleTableRecord
  2
Standard
 70
     0
 40
0.0
 41
1.0
 50
0.0
 71
     0
 42
3.5
  3
txt
  4

  0
STYLE
  5
AF
330
3
100
AcDbSymbolTableRecord
100
AcDbTextStyleTableRecord
  2
SLDTEXTSTYLE0
 70
     0
 40
0.0
 41
0.56
 50
0.0
 71
     0
 42
3.5
  3
TXT
  4
bigfont
  0
STYLE
  5
B7
330
3
100
AcDbSymbolTableRecord
100
AcDbTextStyleTableRecord
  2
SLDTEXTSTYLE1
 70
     0
 40
0.0
 41
0.75
 50
0.0
 71
     0
 42
3.5
  3
TXT
  4

  0
STYLE
  5
C9
330
3
100
AcDbSymbolTableRecord
100
AcDbTextStyleTableRecord
  2
SLDTEXTSTYLE2
 70
     0
 40
0.0
 41
0.469
 50
0.0
 71
     0
 42
3.5
  3
TXT
  4

  0
STYLE
  5
CE
330
3
100
AcDbSymbolTableRecord
100
AcDbTextStyleTableRecord
  2
SLDTEXTSTYLE3
 70
     0
 40
0.0
 41
0.469
 50
0.0
 71
     0
 42
3.5
  3
TXT
  4
bigfont
  0
STYLE
  5
D3
330
3
100
AcDbSymbolTableRecord
100
AcDbTextStyleTableRecord
  2
SLDTEXTSTYLE4
 70
     0
 40
0.0
 41
0.52
 50
0.0
 71
     0
 42
3.5
  3
TXT
  4
bigfont
  0
STYLE
  5
D7
330
3
100
AcDbSymbolTableRecord
100
AcDbTextStyleTableRecord
  2
SLDTEXTSTYLE5
 70
     0
 40
0.0
 41
0.4690000117
 50
0.0
 71
     0
 42
3.5
  3
TXT
  4

  0
STYLE
  5
2F3
330
3
100
AcDbSymbolTableRecord
100
AcDbTextStyleTableRecord
  2
SLDTEXTSTYLE6
 70
     0
 40
0.0
 41
0.6607142857
 50
0.0
 71
     0
 42
3.5
  3
TXT
  4
bigfont
  0
ENDTAB
  0
TABLE
  2
VIEW
  5
6
330
0
100
AcDbSymbolTable
 70
     0
  0
ENDTAB
  0
TABLE
  2
UCS
  5
7
330
0
100
AcDbSymbolTable
 70
     0
  0
ENDTAB
  0
TABLE
  2
APPID
  5
9
330
0
100
AcDbSymbolTable
 70
     1
  0
APPID
  5
12
330
9
100
AcDbSymbolTableRecord
100
AcDbRegAppTableRecord
  2
ACAD
 70
     0
  0
ENDTAB
  0
TABLE
  2
DIMSTYLE
  5
A
330
0
100
AcDbSymbolTable
 70
     8
100
AcDbDimStyleTable
  0
DIMSTYLE
105
27
330
A
100
AcDbSymbolTableRecord
100
AcDbDimStyleTableRecord
  2
ISO-25
 70
     0
 41
2.5
 42
0.625
 43
3.75
 44
1.25
 73
     0
 74
     0
 77
     1
 78
     8
140
2.5
141
2.5
143
0.0393700787
147
0.625
171
     3
172
     1
178
     0
271
     2
272
     2
274
     3
278
    44
283
     0
284
     8
340
11
  0
DIMSTYLE
105
FB
102
{ACAD_REACTORS
330
FA
330
147
330
154
330
160
330
16C
330
179
330
19E
330
1B4
330
1D8
330
1E4
330
246
330
26A
330
276
330
294
330
2A0
102
}
330
A
100
AcDbSymbolTableRecord
100
AcDbDimStyleTableRecord
  2
SLDDIMSTYLE0
 70
     0
 41
6.0
 44
0.0
 45
0.000000001
 73
     0
 74
     0
 77
     1
 78
     4
 79
     1
140
3.5
144
2.0
147
0.875
172
     1
173
     1
178
     0
271
     3
272
     3
276
     2
284
    12
289
     0
340
B7
341
FC
343
FC
344
FC
  0
DIMSTYLE
105
10F
102
{ACAD_REACTORS
330
10E
330
13B
330
186
330
192
330
1C0
330
1CC
330
252
330
25E
102
}
330
A
100
AcDbSymbolTableRecord
100
AcDbDimStyleTableRecord
  2
SLDDIMSTYLE1
 70
     0
 41
6.0
 44
0.0
 45
0.000000001
 73
     0
 74
     0
 77
     1
 78
    12
 79
     3
140
3.5
144
2.0
147
0.875
172
     1
173
     1
178
     0
271
     3
272
     3
276
     2
284
    12
289
     0
340
B7
341
FC
343
FC
344
FC
  0
DIMSTYLE
105
11C
102
{ACAD_REACTORS
330
11B
102
}
330
A
100
AcDbSymbolTableRecord
100
AcDbDimStyleTableRecord
  2
SLDDIMSTYLE2
 70
     0
 41
6.0
 44
0.0
 45
0.000000001
 73
     0
 74
     0
 77
     1
 78
    12
 79
     3
140
3.5
144
2.0
147
0.875
173
     1
178
     0
271
     3
272
     3
276
     2
284
    12
340
B7
341
FC
343
FC
344
FC
  0
DIMSTYLE
105
127
102
{ACAD_REACTORS
330
126
330
131
330
1AA
330
2CC
102
}
330
A
100
AcDbSymbolTableRecord
100
AcDbDimStyleTableRecord
  2
SLDDIMSTYLE3
 70
     0
 41
6.0
 44
0.0
 73
     0
 74
     0
 77
     1
 78
    12
 79
     3
140
3.5
144
2.0
147
0.875
173
     1
178
     0
179
     2
272
     2
276
     2
284
    12
340
B7
341
FC
343
FC
344
FC
  0
DIMSTYLE
105
1F1
102
{ACAD_REACTORS
330
1F0
102
}
330
A
100
AcDbSymbolTableRecord
100
AcDbDimStyleTableRecord
  2
SLDDIMSTYLE4
 70
     0
 41
6.0
 44
0.0
 45
0.000000001
 73
     0
 74
     0
 77
     1
 78
    12
 79
     3
140
3.5
141
0.0
144
2.0
147
0.875
173
     1
178
     0
271
     3
272
     3
276
     2
284
    12
340
B7
341
FC
343
FC
344
FC
  0
DIMSTYLE
105
1FA
102
{ACAD_REACTORS
330
1F9
330
2AC
102
}
330
A
100
AcDbSymbolTableRecord
100
AcDbDimStyleTableRecord
  2
SLDDIMSTYLE5
 70
     0
 41
6.0
 44
0.0
 45
0.000000001
 73
     0
 74
     0
 77
     1
 78
    12
 79
     3
140
3.5
141
0.0
144
2.0
147
0.875
173
     1
178
     0
271
     3
272
     3
276
     2
279
     1
284
    12
340
B7
341
FC
343
FC
344
FC
  0
DIMSTYLE
105
283
102
{ACAD_REACTORS
330
282
330
28C
102
}
330
A
100
AcDbSymbolTableRecord
100
AcDbDimStyleTableRecord
  2
SLDDIMSTYLE6
 70
     0
 41
6.0
 44
0.0
 45
0.000000001
 73
     0
 74
     0
 77
     1
 78
     4
 79
     1
140
3.5
141
0.0
144
2.0
147
0.875
173
     1
178
     0
271
     3
272
     3
276
     2
284
    12
340
B7
341
FC
343
FC
344
FC
  0
ENDTAB
  0
TABLE
  2
BLOCK_RECORD
  5
1
330
0
100
AcDbSymbolTable
 70
    41
  0
BLOCK_RECORD
  5
1F
330
1
100
AcDbSymbolTableRecord
100
AcDbBlockTableRecord
  2
*Model_Space
340
22
  0
BLOCK_RECORD
  5
1B
330
1
100
AcDbSymbolTableRecord
100
AcDbBlockTableRecord
  2
*Paper_Space
340
1E
  0
BLOCK_RECORD
  5
23
330
1
100
AcDbSymbolTableRecord
100
AcDbBlockTableRecord
  2
*Paper_Space0
340
26
  0
BLOCK_RECORD
  5
FC
330
1
100
AcDbSymbolTableRecord
100
AcDbBlockTableRecord
  2
_Closed
340
0
102
{BLKREFS
331
106
331
107
331
113
331
114
331
120
331
121
331
12C
331
12D
331
136
331
137
331
13F
331
140
331
14B
331
14C
331
158
331
159
331
164
331
165
331
170
331
171
331
17D
331
17E
331
18A
331
18B
331
196
331
197
331
1A2
331
1A3
331
1AF
331
1B0
331
1B8
331
1B9
331
1C4
331
1C5
331
1D0
331
1D1
331
1DC
331
1DD
331
1E8
331
1E9
331
1F5
331
1FE
331
24A
331
24B
331
256
331
257
331
262
331
263
331
26E
331
26F
331
27A
331
27B
331
288
331
290
331
298
331
299
331
2A4
331
2A5
331
2B0
331
2D1
331
2D2
102
}
  0
BLOCK_RECORD
  5
103
330
1
100
AcDbSymbolTableRecord
100
AcDbBlockTableRecord
  2
_D
340
0
  0
BLOCK_RECORD
  5
110
330
1
100
AcDbSymbolTableRecord
100
AcDbBlockTableRecord
  2
_D_1
340
0
  0
BLOCK_RECORD
  5
11D
330
1
100
AcDbSymbolTableRecord
100
AcDbBlockTableRecord
  2
_D_2
340
0
  0
BLOCK_RECORD
  5
128
330
1
100
AcDbSymbolTableRecord
100
AcDbBlockTableRecord
  2
_D_3
340
0
  0
BLOCK_RECORD
  5
132
330
1
100
AcDbSymbolTableRecord
100
AcDbBlockTableRecord
  2
_D_4
340
0
  0
BLOCK_RECORD
  5
13C
330
1
100
AcDbSymbolTableRecord
100
AcDbBlockTableRecord
  2
_D_5
340
0
  0
BLOCK_RECORD
  5
148
330
1
100
AcDbSymbolTableRecord
100
AcDbBlockTableRecord
  2
_D_6
340
0
  0
BLOCK_RECORD
  5
155
330
1
100
AcDbSymbolTableRecord
100
AcDbBlockTableRecord
  2
_D_7
340
0
  0
BLOCK_RECORD
  5
161
330
1
100
AcDbSymbolTableRecord
100
AcDbBlockTableRecord
  2
_D_8
340
0
  0
BLOCK_RECORD
  5
16D
330
1
100
AcDbSymbolTableRecord
100
AcDbBlockTableRecord
  2
_D_9
340
0
  0
BLOCK_RECORD
  5
17A
330
1
100
AcDbSymbolTableRecord
100
AcDbBlockTableRecord
  2
_D_10
340
0
  0
BLOCK_RECORD
  5
187
330
1
100
AcDbSymbolTableRecord
100
AcDbBlockTableRecord
  2
_D_11
340
0
  0
BLOCK_RECORD
  5
193
330
1
100
AcDbSymbolTableRecord
100
AcDbBlockTableRecord
  2
_D_12
340
0
  0
BLOCK_RECORD
  5
19F
330
1
100
AcDbSymbolTableRecord
100
AcDbBlockTableRecord
  2
_D_13
340
0
  0
BLOCK_RECORD
  5
1AB
330
1
100
AcDbSymbolTableRecord
100
AcDbBlockTableRecord
  2
_D_14
340
0
  0
BLOCK_RECORD
  5
1B5
330
1
100
AcDbSymbolTableRecord
100
AcDbBlockTableRecord
  2
_D_15
340
0
  0
BLOCK_RECORD
  5
1C1
330
1
100
AcDbSymbolTableRecord
100
AcDbBlockTableRecord
  2
_D_16
340
0
  0
BLOCK_RECORD
  5
1CD
330
1
100
AcDbSymbolTableRecord
100
AcDbBlockTableRecord
  2
_D_17
340
0
  0
BLOCK_RECORD
  5
1D9
330
1
100
AcDbSymbolTableRecord
100
AcDbBlockTableRecord
  2
_D_18
340
0
  0
BLOCK_RECORD
  5
1E5
330
1
100
AcDbSymbolTableRecord
100
AcDbBlockTableRecord
  2
_D_19
340
0
  0
BLOCK_RECORD
  5
1F2
330
1
100
AcDbSymbolTableRecord
100
AcDbBlockTableRecord
  2
_D_20
340
0
  0
BLOCK_RECORD
  5
1FB
330
1
100
AcDbSymbolTableRecord
100
AcDbBlockTableRecord
  2
_D_21
340
0
  0
BLOCK_RECORD
  5
202
330
1
100
AcDbSymbolTableRecord
100
AcDbBlockTableRecord
  2
SW_CENTERMARKSYMBOL_0
340
0
102
{BLKREFS
331
20D
102
}
  0
BLOCK_RECORD
  5
20E
330
1
100
AcDbSymbolTableRecord
100
AcDbBlockTableRecord
  2
SW_CENTERMARKSYMBOL_1
340
0
102
{BLKREFS
331
219
102
}
  0
BLOCK_RECORD
  5
21A
330
1
100
AcDbSymbolTableRecord
100
AcDbBlockTableRecord
  2
SW_CENTERMARKSYMBOL_2
340
0
102
{BLKREFS
331
225
102
}
  0
BLOCK_RECORD
  5
247
330
1
100
AcDbSymbolTableRecord
100
AcDbBlockTableRecord
  2
_D_22
340
0
  0
BLOCK_RECORD
  5
253
330
1
100
AcDbSymbolTableRecord
100
AcDbBlockTableRecord
  2
_D_23
340
0
  0
BLOCK_RECORD
  5
25F
330
1
100
AcDbSymbolTableRecord
100
AcDbBlockTableRecord
  2
_D_24
340
0
  0
BLOCK_RECORD
  5
26B
330
1
100
AcDbSymbolTableRecord
100
AcDbBlockTableRecord
  2
_D_25
340
0
  0
BLOCK_RECORD
  5
277
330
1
100
AcDbSymbolTableRecord
100
AcDbBlockTableRecord
  2
_D_26
340
0
  0
BLOCK_RECORD
  5
284
330
1
100
AcDbSymbolTableRecord
100
AcDbBlockTableRecord
  2
_D_27
340
0
  0
BLOCK_RECORD
  5
28D
330
1
100
AcDbSymbolTableRecord
100
AcDbBlockTableRecord
  2
_D_28
340
0
  0
BLOCK_RECORD
  5
295
330
1
100
AcDbSymbolTableRecord
100
AcDbBlockTableRecord
  2
_D_29
340
0
  0
BLOCK_RECORD
  5
2A1
330
1
100
AcDbSymbolTableRecord
100
AcDbBlockTableRecord
  2
_D_30
340
0
  0
BLOCK_RECORD
  5
2AD
330
1
100
AcDbSymbolTableRecord
100
AcDbBlockTableRecord
  2
_D_31
340
0
  0
BLOCK_RECORD
  5
2CD
330
1
100
AcDbSymbolTableRecord
100
AcDbBlockTableRecord
  2
_D_32
340
0
  0
BLOCK_RECORD
  5
2F5
330
1
100
AcDbSymbolTableRecord
100
AcDbBlockTableRecord
  2
SW_CENTERMARKSYMBOL_3
340
0
102
{BLKREFS
331
300
102
}
  0
BLOCK_RECORD
  5
301
330
1
100
AcDbSymbolTableRecord
100
AcDbBlockTableRecord
  2
SW_CENTERMARKSYMBOL_4
340
0
102
{BLKREFS
331
30C
102
}
  0
BLOCK_RECORD
  5
30D
330
1
100
AcDbSymbolTableRecord
100
AcDbBlockTableRecord
  2
SW_CENTERMARKSYMBOL_5
340
0
102
{BLKREFS
331
318
102
}
  0
ENDTAB
  0
ENDSEC
  0
SECTION
  2
BLOCKS
  0
BLOCK
  5
20
330
1F
100
AcDbEntity
  8
0
100
AcDbBlockBegin
  2
*Model_Space
 70
     0
 10
0.0
 20
0.0
 30
0.0
  3
*Model_Space
  1

  0
ENDBLK
  5
21
330
1F
100
AcDbEntity
  8
0
100
AcDbBlockEnd
  0
BLOCK
  5
1C
330
1B
100
AcDbEntity
 67
     1
  8
0
100
AcDbBlockBegin
  2
*Paper_Space
 70
     0
 10
0.0
 20
0.0
 30
0.0
  3
*Paper_Space
  1

  0
ENDBLK
  5
1D
330
1B
100
AcDbEntity
 67
     1
  8
0
100
AcDbBlockEnd
  0
BLOCK
  5
24
330
23
100
AcDbEntity
  8
0
100
AcDbBlockBegin
  2
*Paper_Space0
 70
     0
 10
0.0
 20
0.0
 30
0.0
  3
*Paper_Space0
  1

  0
ENDBLK
  5
25
330
23
100
AcDbEntity
  8
0
100
AcDbBlockEnd
  0
BLOCK
  5
FD
330
FC
100
AcDbEntity
  8
0
100
AcDbBlockBegin
  2
_Closed
 70
     0
 10
0.0
 20
0.0
 30
0.0
  3
_Closed
  1

  0
LINE
  5
FF
330
FC
100
AcDbEntity
  8
0
  6
ByBlock
 62
     0
370
    -2
100
AcDbLine
 10
-1.0
 20
0.166667
 30
0.0
 11
0.0
 21
0.0
 31
0.0
  0
LINE
  5
100
330
FC
100
AcDbEntity
  8
0
  6
ByBlock
 62
     0
370
    -2
100
AcDbLine
 10
0.0
 20
0.0
 30
0.0
 11
-1.0
 21
-0.166667
 31
0.0
  0
LINE
  5
101
330
FC
100
AcDbEntity
  8
0
  6
ByBlock
 62
     0
370
    -2
100
AcDbLine
 10
-1.0
 20
0.166667
 30
0.0
 11
-1.0
 21
-0.166667
 31
0.0
  0
LINE
  5
102
330
FC
100
AcDbEntity
  8
0
  6
ByBlock
 62
     0
370
    -2
100
AcDbLine
 10
0.0
 20
0.0
 30
0.0
 11
-1.0
 21
0.0
 31
0.0
  0
ENDBLK
  5
FE
330
FC
100
AcDbEntity
  8
0
100
AcDbBlockEnd
  0
BLOCK
  5
104
330
103
100
AcDbEntity
  8
0
100
AcDbBlockBegin
  2
_D
 70
     0
 10
0.0
 20
0.0
 30
0.0
  3
_D
  1

  0
INSERT
  5
106
330
103
100
AcDbEntity
  8
0
  6
Continuous
 62
     7
370
    18
100
AcDbBlockReference
  2
_Closed
 10
75.9224676117
 20
214.9074614122
 30
8.55
 41
6.0
 42
6.0
 50
270.0
  0
INSERT
  5
107
330
103
100
AcDbEntity
  8
0
  6
Continuous
 62
     7
370
    18
100
AcDbBlockReference
  2
_Closed
 10
75.9224676117
 20
211.1574614122
 30
8.55
 41
6.0
 42
6.0
 50
90.0
  0
LINE
  5
108
330
103
100
AcDbEntity
  8
0
  6
Continuous
 62
     7
370
     0
100
AcDbLine
 10
82.1443426161
 20
214.9074614122
 30
0.0
 11
74.9224676117
 21
214.9074614122
 31
0.0
  0
LINE
  5
109
330
103
100
AcDbEntity
  8
0
  6
Continuous
 62
     7
370
     0
100
AcDbLine
 10
82.1443426161
 20
211.1574614122
 30
0.0
 11
74.9224676117
 21
211.1574614122
 31
0.0
  0
LINE
  5
10A
330
103
100
AcDbEntity
  8
0
  6
Continuous
 62
     7
370
     0
100
AcDbLine
 10
75.9224676117
 20
214.9074614122
 30
0.0
 11
75.9224676117
 21
239.8380176126
 31
0.0
  0
LINE
  5
10B
330
103
100
AcDbEntity
  8
0
  6
Continuous
 62
     7
370
     0
100
AcDbLine
 10
75.9224676117
 20
214.9074614122
 30
0.0
 11
75.9224676117
 21
211.1574614122
 31
0.0
  0
LINE
  5
10C
330
103
100
AcDbEntity
  8
0
  6
Continuous
 62
     7
370
     0
100
AcDbLine
 10
75.9224676117
 20
211.1574614122
 30
0.0
 11
75.9224676117
 21
199.1574614122
 31
0.0
  0
MTEXT
  5
10D
330
103
100
AcDbEntity
  8
0
  6
Continuous
 62
     7
370
    18
100
AcDbMText
 10
71.4107306971
 20
228.2005171254
 30
0.0
 40
3.5
 41
0.0
 71
     1
 72
     1
  1
7.500
  7
SLDTEXTSTYLE1
 11
-7.044195017643634E-15
 21
1.0
 31
0.0
 73
     1
 44
1.0
  0
ENDBLK
  5
105
330
103
100
AcDbEntity
  8
0
100
AcDbBlockEnd
  0
BLOCK
  5
111
330
110
100
AcDbEntity
  8
0
100
AcDbBlockBegin
  2
_D_1
 70
     0
 10
0.0
 20
0.0
 30
0.0
  3
_D_1
  1

  0
INSERT
  5
113
330
110
100
AcDbEntity
  8
0
  6
Continuous
 62
     7
370
    18
100
AcDbBlockReference
  2
_Closed
 10
141.9224676117
 20
198.9074614122
 30
8.55
 41
6.0
 42
6.0
 50
90.0
  0
INSERT
  5
114
330
110
100
AcDbEntity
  8
0
  6
Continuous
 62
     7
370
    18
100
AcDbBlockReference
  2
_Closed
 10
141.9224676117
 20
208.9074614122
 30
8.55
 41
6.0
 42
6.0
 50
270.0
  0
LINE
  5
115
330
110
100
AcDbEntity
  8
0
  6
Continuous
 62
     7
370
     0
100
AcDbLine
 10
124.1443426161
 20
198.9074614122
 30
0.0
 11
142.9224676117
 21
198.9074614122
 31
0.0
  0
LINE
  5
116
330
110
100
AcDbEntity
  8
0
  6
Continuous
 62
     7
370
     0
100
AcDbLine
 10
124.1443426161
 20
208.9074614122
 30
0.0
 11
142.9224676117
 21
208.9074614122
 31
0.0
  0
LINE
  5
117
330
110
100
AcDbEntity
  8
0
  6
Continuous
 62
     7
370
     0
100
AcDbLine
 10
141.9224676117
 20
198.9074614122
 30
0.0
 11
141.9224676117
 21
186.9074614122
 31
0.0
  0
LINE
  5
118
330
110
100
AcDbEntity
  8
0
  6
Continuous
 62
     7
370
     0
100
AcDbLine
 10
141.9224676117
 20
198.9074614122
 30
0.0
 11
141.9224676117
 21
208.9074614122
 31
0.0
  0
LINE
  5
119
330
110
100
AcDbEntity
  8
0
  6
Continuous
 62
     7
370
     0
100
AcDbLine
 10
141.9224676117
 20
208.9074614122
 30
0.0
 11
141.9224676117
 21
220.9074614122
 31
0.0
  0
MTEXT
  5
11A
330
110
100
AcDbEntity
  8
0
  6
Continuous
 62
     7
370
    18
100
AcDbMText
 10
137.4107306971
 20
201.3213502187
 30
0.0
 40
3.5
 41
0.0
 71
     1
 72
     1
  1
20
  7
SLDTEXTSTYLE1
 11
6.123233995736766E-17
 21
1.0
 31
0.0
 73
     1
 44
1.0
  0
ENDBLK
  5
112
330
110
100
AcDbEntity
  8
0
100
AcDbBlockEnd
  0
BLOCK
  5
11E
330
11D
100
AcDbEntity
  8
0
100
AcDbBlockBegin
  2
_D_2
 70
     0
 10
0.0
 20
0.0
 30
0.0
  3
_D_2
  1

  0
INSERT
  5
120
330
11D
100
AcDbEntity
  8
0
  6
Continuous
 62
     7
370
    18
100
AcDbBlockReference
  2
_Closed
 10
83.1443426161
 20
261.9074614122
 30
8.55
 41
6.0
 42
6.0
 50
180.0
  0
INSERT
  5
121
330
11D
100
AcDbEntity
  8
0
  6
Continuous
 62
     7
370
    18
100
AcDbBlockReference
  2
_Closed
 10
123.1443426161
 20
261.9074614122
 30
8.55
 41
6.0
 42
6.0
 50
0.0
  0
LINE
  5
122
330
11D
100
AcDbEntity
  8
0
  6
Continuous
 62
     7
370
     0
100
AcDbLine
 10
83.1443426161
 20
215.9074614122
 30
0.0
 11
83.1443426161
 21
262.9074614122
 31
0.0
  0
LINE
  5
123
330
11D
100
AcDbEntity
  8
0
  6
Continuous
 62
     7
370
     0
100
AcDbLine
 10
123.1443426161
 20
209.9074614122
 30
0.0
 11
123.1443426161
 21
262.9074614122
 31
0.0
  0
LINE
  5
124
330
11D
100
AcDbEntity
  8
0
  6
Continuous
 62
     7
370
     0
100
AcDbLine
 10
83.1443426161
 20
261.9074614122
 30
0.0
 11
123.1443426161
 21
261.9074614122
 31
0.0
  0
MTEXT
  5
125
330
11D
100
AcDbEntity
  8
0
  6
Continuous
 62
     7
370
    18
100
AcDbMText
 10
100.5582314226
 20
266.4191983268
 30
0.0
 40
3.5
 41
0.0
 71
     1
 72
     1
  1
80
  7
SLDTEXTSTYLE1
 73
     1
 44
1.0
  0
ENDBLK
  5
11F
330
11D
100
AcDbEntity
  8
0
100
AcDbBlockEnd
  0
BLOCK
  5
129
330
128
100
AcDbEntity
  8
0
100
AcDbBlockBegin
  2
_D_3
 70
     0
 10
0.0
 20
0.0
 30
0.0
  3
_D_3
  1

  0
ARC
  5
12B
330
128
100
AcDbEntity
  8
0
  6
Continuous
 62
     7
370
    18
100
AcDbCircle
 10
112.7520377707
 20
214.9074614122
 30
0.0
 40
39.34049485558324
100
AcDbArc
 50
180.0
 51
330.0
  0
INSERT
  5
12C
330
128
100
AcDbEntity
  8
0
  6
Continuous
 62
     7
370
    18
100
AcDbBlockReference
  2
_Closed
 10
73.4115429151
 20
214.9074614122
 30
8.55
 41
6.0
 42
6.0
 50
94.3358095952
  0
INSERT
  5
12D
330
128
100
AcDbEntity
  8
0
  6
Continuous
 62
     7
370
    18
100
AcDbBlockReference
  2
_Closed
 10
146.8219057131
 20
195.2372139844
 30
8.55
 41
6.0
 42
6.0
 50
55.6641904048
  0
LINE
  5
12E
330
128
100
AcDbEntity
  8
0
  6
Continuous
 62
     7
370
     0
100
AcDbLine
 10
82.1443426161
 20
214.9074614122
 30
0.0
 11
72.4115429151
 21
214.9074614122
 31
0.0
  0
LINE
  5
12F
330
128
100
AcDbEntity
  8
0
  6
Continuous
 62
     7
370
     0
100
AcDbLine
 10
124.0103680199
 20
208.4074614122
 30
0.0
 11
147.6879311169
 21
194.7372139844
 31
0.0
  0
MTEXT
  5
130
330
128
100
AcDbEntity
  8
0
  6
Continuous
 62
     7
370
    18
100
AcDbMText
 10
99.0891738845
 20
182.5110312672
 30
0.0
 40
3.5
 41
0.0
 71
     1
 72
     1
  1
150°
  7
SLDTEXTSTYLE1
 11
0.9659258262890718
 21
-0.2588190451025079
 31
0.0
 73
     1
 44
1.0
  0
ENDBLK
  5
12A
330
128
100
AcDbEntity
  8
0
100
AcDbBlockEnd
  0
BLOCK
  5
133
330
132
100
AcDbEntity
  8
0
100
AcDbBlockBegin
  2
_D_4
 70
     0
 10
0.0
 20
0.0
 30
0.0
  3
_D_4
  1

  0
ARC
  5
135
330
132
100
AcDbEntity
  8
0
  6
Continuous
 62
     7
370
    18
100
AcDbCircle
 10
83.1443426161
 20
211.1574614122
 30
0.0
 40
29.50000000000003
100
AcDbArc
 50
330.0
 51
90.0
  0
INSERT
  5
136
330
132
100
AcDbEntity
  8
0
  6
Continuous
 62
     7
370
    18
100
AcDbBlockReference
  2
_Closed
 10
108.6920920278
 20
196.4074614122
 30
8.55
 41
6.0
 42
6.0
 50
245.7482815088
  0
INSERT
  5
137
330
132
100
AcDbEntity
  8
0
  6
Continuous
 62
     7
370
    18
100
AcDbBlockReference
  2
_Closed
 10
83.1443426161
 20
240.6574614122
 30
8.55
 41
6.0
 42
6.0
 50
174.2517184912
  0
LINE
  5
138
330
132
100
AcDbEntity
  8
0
  6
Continuous
 62
     7
370
     0
100
AcDbLine
 10
105.2279904126
 20
198.4074614122
 30
0.0
 11
109.5581174316
 21
195.9074614122
 31
0.0
  0
LINE
  5
139
330
132
100
AcDbEntity
  8
0
  6
Continuous
 62
     7
370
     0
100
AcDbLine
 10
83.1443426161
 20
215.9074614122
 30
0.0
 11
83.1443426161
 21
241.6574614122
 31
0.0
  0
MTEXT
  5
13A
330
132
100
AcDbEntity
  8
0
  6
Continuous
 62
     7
370
    18
100
AcDbMText
 10
110.193120824
 20
232.3310771026
 30
0.0
 40
3.5
 41
0.0
 71
     1
 72
     1
  1
120°
  7
SLDTEXTSTYLE1
 11
0.4999999999999949
 21
-0.8660254037844416
 31
0.0
 73
     1
 44
1.0
  0
ENDBLK
  5
134
330
132
100
AcDbEntity
  8
0
100
AcDbBlockEnd
  0
BLOCK
  5
13D
330
13C
100
AcDbEntity
  8
0
100
AcDbBlockBegin
  2
_D_5
 70
     0
 10
0.0
 20
0.0
 30
0.0
  3
_D_5
  1

  0
INSERT
  5
13F
330
13C
100
AcDbEntity
  8
0
  6
Continuous
 62
     7
370
    18
100
AcDbBlockReference
  2
_Closed
 10
69.9224676117
 20
214.9074614122
 30
8.55
 41
6.0
 42
6.0
 50
270.0
  0
INSERT
  5
140
330
13C
100
AcDbEntity
  8
0
  6
Continuous
 62
     7
370
    18
100
AcDbBlockReference
  2
_Closed
 10
69.9224676117
 20
198.9074614122
 30
8.55
 41
6.0
 42
6.0
 50
90.0
  0
LINE
  5
141
330
13C
100
AcDbEntity
  8
0
  6
Continuous
 62
     7
370
     0
100
AcDbLine
 10
82.1443426161
 20
214.9074614122
 30
0.0
 11
68.9224676117
 21
214.9074614122
 31
0.0
  0
LINE
  5
142
330
13C
100
AcDbEntity
  8
0
  6
Continuous
 62
     7
370
     0
100
AcDbLine
 10
103.3619650089
 20
198.9074614122
 30
0.0
 11
68.9224676117
 21
198.9074614122
 31
0.0
  0
LINE
  5
143
330
13C
100
AcDbEntity
  8
0
  6
Continuous
 62
     7
370
     0
100
AcDbLine
 10
69.9224676117
 20
214.9074614122
 30
0.0
 11
69.9224676117
 21
226.9074614122
 31
0.0
  0
LINE
  5
144
330
13C
100
AcDbEntity
  8
0
  6
Continuous
 62
     7
370
     0
100
AcDbLine
 10
69.9224676117
 20
214.9074614122
 30
0.0
 11
69.9224676117
 21
198.9074614122
 31
0.0
  0
LINE
  5
145
330
13C
100
AcDbEntity
  8
0
  6
Continuous
 62
     7
370
     0
100
AcDbLine
 10
69.9224676117
 20
198.9074614122
 30
0.0
 11
69.9224676117
 21
186.9074614122
 31
0.0
  0
MTEXT
  5
146
330
13C
100
AcDbEntity
  8
0
  6
Continuous
 62
     7
370
    18
100
AcDbMText
 10
65.4107306971
 20
204.3213502187
 30
0.0
 40
3.5
 41
0.0
 71
     1
 72
     1
  1
32
  7
SLDTEXTSTYLE1
 11
-7.044195017643634E-15
 21
1.0
 31
0.0
 73
     1
 44
1.0
  0
ENDBLK
  5
13E
330
13C
100
AcDbEntity
  8
0
100
AcDbBlockEnd
  0
BLOCK
  5
149
330
148
100
AcDbEntity
  8
0
100
AcDbBlockBegin
  2
_D_6
 70
     0
 10
0.0
 20
0.0
 30
0.0
  3
_D_6
  1

  0
INSERT
  5
14B
330
148
100
AcDbEntity
  8
0
  6
Continuous
 62
     7
370
    18
100
AcDbBlockReference
  2
_Closed
 10
108.5943426161
 20
249.9074614122
 30
8.55
 41
6.0
 42
6.0
 50
0.0
  0
INSERT
  5
14C
330
148
100
AcDbEntity
  8
0
  6
Continuous
 62
     7
370
    18
100
AcDbBlockReference
  2
_Closed
 10
116.1943426161
 20
249.9074614122
 30
8.55
 41
6.0
 42
6.0
 50
180.0
  0
LINE
  5
14D
330
148
100
AcDbEntity
  8
0
  6
Continuous
 62
     7
370
     0
100
AcDbLine
 10
108.5943426161
 20
207.5574614122
 30
0.0
 11
108.5943426161
 21
250.9074614122
 31
0.0
  0
LINE
  5
14E
330
148
100
AcDbEntity
  8
0
  6
Continuous
 62
     7
370
     0
100
AcDbLine
 10
116.1943426161
 20
207.5574614122
 30
0.0
 11
116.1943426161
 21
250.9074614122
 31
0.0
  0
LINE
  5
14F
330
148
100
AcDbEntity
  8
0
  6
Continuous
 62
     7
370
     0
100
AcDbLine
 10
108.5943426161
 20
249.9074614122
 30
0.0
 11
96.5943426161
 21
249.9074614122
 31
0.0
  0
LINE
  5
150
330
148
100
AcDbEntity
  8
0
  6
Continuous
 62
     7
370
     0
100
AcDbLine
 10
108.5943426161
 20
249.9074614122
 30
0.0
 11
116.1943426161
 21
249.9074614122
 31
0.0
  0
LINE
  5
151
330
148
100
AcDbEntity
  8
0
  6
Continuous
 62
     7
370
     0
100
AcDbLine
 10
116.1943426161
 20
249.9074614122
 30
0.0
 11
148.9894476413
 21
249.9074614122
 31
0.0
  0
MTEXT
  5
152
330
148
100
AcDbEntity
  8
0
  6
Continuous
 62
     7
370
    18
100
AcDbMText
 10
129.4873983293
 20
254.4191985014
 30
0.0
 40
3.5
 41
0.0
 71
     1
 72
     1
  1
%%c
  7
SLDTEXTSTYLE1
 73
     1
 44
1.0
  0
MTEXT
  5
153
330
148
100
AcDbEntity
  8
0
  6
Continuous
 62
     7
370
    18
100
AcDbMText
 10
134.7658357277
 20
254.472670678
 30
0.0
 40
3.5
 41
0.0
 71
     1
 72
     1
  1
15.200
  7
SLDTEXTSTYLE1
 73
     1
 44
1.0
  0
ENDBLK
  5
14A
330
148
100
AcDbEntity
  8
0
100
AcDbBlockEnd
  0
BLOCK
  5
156
330
155
100
AcDbEntity
  8
0
100
AcDbBlockBegin
  2
_D_7
 70
     0
 10
0.0
 20
0.0
 30
0.0
  3
_D_7
  1

  0
INSERT
  5
158
330
155
100
AcDbEntity
  8
0
  6
Continuous
 62
     7
370
    18
100
AcDbBlockReference
  2
_Closed
 10
112.3943426161
 20
255.9074614122
 30
8.55
 41
6.0
 42
6.0
 50
0.0
  0
INSERT
  5
159
330
155
100
AcDbEntity
  8
0
  6
Continuous
 62
     7
370
    18
100
AcDbBlockReference
  2
_Closed
 10
123.1443426161
 20
255.9074614122
 30
8.55
 41
6.0
 42
6.0
 50
180.0
  0
LINE
  5
15A
330
155
100
AcDbEntity
  8
0
  6
Continuous
 62
     7
370
     0
100
AcDbLine
 10
112.3943426161
 20
212.6074614122
 30
0.0
 11
112.3943426161
 21
256.9074614122
 31
0.0
  0
LINE
  5
15B
330
155
100
AcDbEntity
  8
0
  6
Continuous
 62
     7
370
     0
100
AcDbLine
 10
123.1443426161
 20
209.9074614122
 30
0.0
 11
123.1443426161
 21
256.9074614122
 31
0.0
  0
LINE
  5
15C
330
155
100
AcDbEntity
  8
0
  6
Continuous
 62
     7
370
     0
100
AcDbLine
 10
112.3943426161
 20
255.9074614122
 30
0.0
 11
100.3943426161
 21
255.9074614122
 31
0.0
  0
LINE
  5
15D
330
155
100
AcDbEntity
  8
0
  6
Continuous
 62
     7
370
     0
100
AcDbLine
 10
112.3943426161
 20
255.9074614122
 30
0.0
 11
123.1443426161
 21
255.9074614122
 31
0.0
  0
LINE
  5
15E
330
155
100
AcDbEntity
  8
0
  6
Continuous
 62
     7
370
     0
100
AcDbLine
 10
123.1443426161
 20
255.9074614122
 30
0.0
 11
150.6610097773
 21
255.9074614122
 31
0.0
  0
MTEXT
  5
15F
330
155
100
AcDbEntity
  8
0
  6
Continuous
 62
     7
370
    18
100
AcDbMText
 10
136.4373978637
 20
260.4191983268
 30
0.0
 40
3.5
 41
0.0
 71
     1
 72
     1
  1
21.500
  7
SLDTEXTSTYLE1
 73
     1
 44
1.0
  0
ENDBLK
  5
157
330
155
100
AcDbEntity
  8
0
100
AcDbBlockEnd
  0
BLOCK
  5
162
330
161
100
AcDbEntity
  8
0
100
AcDbBlockBegin
  2
_D_8
 70
     0
 10
0.0
 20
0.0
 30
0.0
  3
_D_8
  1

  0
INSERT
  5
164
330
161
100
AcDbEntity
  8
0
  6
Continuous
 62
     7
370
    18
100
AcDbBlockReference
  2
_Closed
 10
135.9224676117
 20
206.5574614122
 30
8.55
 41
6.0
 42
6.0
 50
270.0
  0
INSERT
  5
165
330
161
100
AcDbEntity
  8
0
  6
Continuous
 62
     7
370
    18
100
AcDbBlockReference
  2
_Closed
 10
135.9224676117
 20
198.9074614122
 30
8.55
 41
6.0
 42
6.0
 50
90.0
  0
LINE
  5
166
330
161
100
AcDbEntity
  8
0
  6
Continuous
 62
     7
370
     0
100
AcDbLine
 10
118.4443426161
 20
206.5574614122
 30
0.0
 11
136.9224676117
 21
206.5574614122
 31
0.0
  0
LINE
  5
167
330
161
100
AcDbEntity
  8
0
  6
Continuous
 62
     7
370
     0
100
AcDbLine
 10
124.1443426161
 20
198.9074614122
 30
0.0
 11
136.9224676117
 21
198.9074614122
 31
0.0
  0
LINE
  5
168
330
161
100
AcDbEntity
  8
0
  6
Continuous
 62
     7
370
     0
100
AcDbLine
 10
135.9224676117
 20
206.5574614122
 30
0.0
 11
135.9224676117
 21
218.5574614122
 31
0.0
  0
LINE
  5
169
330
161
100
AcDbEntity
  8
0
  6
Continuous
 62
     7
370
     0
100
AcDbLine
 10
135.9224676117
 20
206.5574614122
 30
0.0
 11
135.9224676117
 21
198.9074614122
 31
0.0
  0
LINE
  5
16A
330
161
100
AcDbEntity
  8
0
  6
Continuous
 62
     7
370
     0
100
AcDbLine
 10
135.9224676117
 20
198.9074614122
 30
0.0
 11
135.9224676117
 21
171.390794251
 31
0.0
  0
MTEXT
  5
16B
330
161
100
AcDbEntity
  8
0
  6
Continuous
 62
     7
370
    18
100
AcDbMText
 10
131.4107306971
 20
171.390794251
 30
0.0
 40
3.5
 41
0.0
 71
     1
 72
     1
  1
15.300
  7
SLDTEXTSTYLE1
 11
-7.044195017643634E-15
 21
1.0
 31
0.0
 73
     1
 44
1.0
  0
ENDBLK
  5
163
330
161
100
AcDbEntity
  8
0
100
AcDbBlockEnd
  0
BLOCK
  5
16E
330
16D
100
AcDbEntity
  8
0
100
AcDbBlockBegin
  2
_D_9
 70
     0
 10
0.0
 20
0.0
 30
0.0
  3
_D_9
  1

  0
INSERT
  5
170
330
16D
100
AcDbEntity
  8
0
  6
Continuous
 62
     7
370
    18
100
AcDbBlockReference
  2
_Closed
 10
104.0693426161
 20
158.9074614122
 30
8.55
 41
6.0
 42
6.0
 50
0.0
  0
INSERT
  5
171
330
16D
100
AcDbEntity
  8
0
  6
Continuous
 62
     7
370
    18
100
AcDbBlockReference
  2
_Closed
 10
105.7193426161
 20
158.9074614122
 30
8.55
 41
6.0
 42
6.0
 50
180.0
  0
LINE
  5
172
330
16D
100
AcDbEntity
  8
0
  6
Continuous
 62
     7
370
     0
100
AcDbLine
 10
104.0693426161
 20
205.5574614122
 30
0.0
 11
104.0693426161
 21
157.9074614122
 31
0.0
  0
LINE
  5
173
330
16D
100
AcDbEntity
  8
0
  6
Continuous
 62
     7
370
     0
100
AcDbLine
 10
105.7193426161
 20
205.5574614122
 30
0.0
 11
105.7193426161
 21
157.9074614122
 31
0.0
  0
LINE
  5
174
330
16D
100
AcDbEntity
  8
0
  6
Continuous
 62
     7
370
     0
100
AcDbLine
 10
104.0693426161
 20
158.9074614122
 30
0.0
 11
92.0693426161
 21
158.9074614122
 31
0.0
  0
LINE
  5
175
330
16D
100
AcDbEntity
  8
0
  6
Continuous
 62
     7
370
     0
100
AcDbLine
 10
104.0693426161
 20
158.9074614122
 30
0.0
 11
105.7193426161
 21
158.9074614122
 31
0.0
  0
LINE
  5
176
330
16D
100
AcDbEntity
  8
0
  6
Continuous
 62
     7
370
     0
100
AcDbLine
 10
105.7193426161
 20
158.9074614122
 30
0.0
 11
135.928336215
 21
158.9074614122
 31
0.0
  0
MTEXT
  5
177
330
16D
100
AcDbEntity
  8
0
  6
Continuous
 62
     7
370
    18
100
AcDbMText
 10
119.0123983293
 20
163.4191985014
 30
0.0
 40
3.5
 41
0.0
 71
     1
 72
     1
  1
%%c
  7
SLDTEXTSTYLE1
 73
     1
 44
1.0
  0
MTEXT
  5
178
330
16D
100
AcDbEntity
  8
0
  6
Continuous
 62
     7
370
    18
100
AcDbMText
 10
124.2908357277
 20
163.472670678
 30
0.0
 40
3.5
 41
0.0
 71
     1
 72
     1
  1
3.300
  7
SLDTEXTSTYLE1
 73
     1
 44
1.0
  0
ENDBLK
  5
16F
330
16D
100
AcDbEntity
  8
0
100
AcDbBlockEnd
  0
BLOCK
  5
17B
330
17A
100
AcDbEntity
  8
0
100
AcDbBlockBegin
  2
_D_10
 70
     0
 10
0.0
 20
0.0
 30
0.0
  3
_D_10
  1

  0
INSERT
  5
17D
330
17A
100
AcDbEntity
  8
0
  6
Continuous
 62
     7
370
    18
100
AcDbBlockReference
  2
_Closed
 10
119.0693426161
 20
152.9074614122
 30
8.55
 41
6.0
 42
6.0
 50
0.0
  0
INSERT
  5
17E
330
17A
100
AcDbEntity
  8
0
  6
Continuous
 62
     7
370
    18
100
AcDbBlockReference
  2
_Closed
 10
120.7193426161
 20
152.9074614122
 30
8.55
 41
6.0
 42
6.0
 50
180.0
  0
LINE
  5
17F
330
17A
100
AcDbEntity
  8
0
  6
Continuous
 62
     7
370
     0
100
AcDbLine
 10
119.0693426161
 20
205.5574614122
 30
0.0
 11
119.0693426161
 21
151.9074614122
 31
0.0
  0
LINE
  5
180
330
17A
100
AcDbEntity
  8
0
  6
Continuous
 62
     7
370
     0
100
AcDbLine
 10
120.7193426161
 20
205.5574614122
 30
0.0
 11
120.7193426161
 21
151.9074614122
 31
0.0
  0
LINE
  5
181
330
17A
100
AcDbEntity
  8
0
  6
Continuous
 62
     7
370
     0
100
AcDbLine
 10
119.0693426161
 20
152.9074614122
 30
0.0
 11
107.0693426161
 21
152.9074614122
 31
0.0
  0
LINE
  5
182
330
17A
100
AcDbEntity
  8
0
  6
Continuous
 62
     7
370
     0
100
AcDbLine
 10
119.0693426161
 20
152.9074614122
 30
0.0
 11
120.7193426161
 21
152.9074614122
 31
0.0
  0
LINE
  5
183
330
17A
100
AcDbEntity
  8
0
  6
Continuous
 62
     7
370
     0
100
AcDbLine
 10
120.7193426161
 20
152.9074614122
 30
0.0
 11
150.928336215
 21
152.9074614122
 31
0.0
  0
MTEXT
  5
184
330
17A
100
AcDbEntity
  8
0
  6
Continuous
 62
     7
370
    18
100
AcDbMText
 10
134.0123983293
 20
157.4191985014
 30
0.0
 40
3.5
 41
0.0
 71
     1
 72
     1
  1
%%c
  7
SLDTEXTSTYLE1
 73
     1
 44
1.0
  0
MTEXT
  5
185
330
17A
100
AcDbEntity
  8
0
  6
Continuous
 62
     7
370
    18
100
AcDbMText
 10
139.2908357277
 20
157.472670678
 30
0.0
 40
3.5
 41
0.0
 71
     1
 72
     1
  1
3.300
  7
SLDTEXTSTYLE1
 73
     1
 44
1.0
  0
ENDBLK
  5
17C
330
17A
100
AcDbEntity
  8
0
100
AcDbBlockEnd
  0
BLOCK
  5
188
330
187
100
AcDbEntity
  8
0
100
AcDbBlockBegin
  2
_D_11
 70
     0
 10
0.0
 20
0.0
 30
0.0
  3
_D_11
  1

  0
INSERT
  5
18A
330
187
100
AcDbEntity
  8
0
  6
Continuous
 62
     7
370
    18
100
AcDbBlockReference
  2
_Closed
 10
112.3943426161
 20
237.9074614122
 30
8.55
 41
6.0
 42
6.0
 50
180.0
  0
INSERT
  5
18B
330
187
100
AcDbEntity
  8
0
  6
Continuous
 62
     7
370
    18
100
AcDbBlockReference
  2
_Closed
 10
104.8943426161
 20
237.9074614122
 30
8.55
 41
6.0
 42
6.0
 50
0.0
  0
LINE
  5
18C
330
187
100
AcDbEntity
  8
0
  6
Continuous
 62
     7
370
     0
100
AcDbLine
 10
112.3943426161
 20
212.6074614122
 30
0.0
 11
112.3943426161
 21
238.9074614122
 31
0.0
  0
LINE
  5
18D
330
187
100
AcDbEntity
  8
0
  6
Continuous
 62
     7
370
     0
100
AcDbLine
 10
104.8943426161
 20
209.6324614122
 30
0.0
 11
104.8943426161
 21
238.9074614122
 31
0.0
  0
LINE
  5
18E
330
187
100
AcDbEntity
  8
0
  6
Continuous
 62
     7
370
     0
100
AcDbLine
 10
112.3943426161
 20
237.9074614122
 30
0.0
 11
130.8596204835
 21
237.9074614122
 31
0.0
  0
LINE
  5
18F
330
187
100
AcDbEntity
  8
0
  6
Continuous
 62
     7
370
     0
100
AcDbLine
 10
112.3943426161
 20
237.9074614122
 30
0.0
 11
104.8943426161
 21
237.9074614122
 31
0.0
  0
LINE
  5
190
330
187
100
AcDbEntity
  8
0
  6
Continuous
 62
     7
370
     0
100
AcDbLine
 10
104.8943426161
 20
237.9074614122
 30
0.0
 11
92.8943426161
 21
237.9074614122
 31
0.0
  0
MTEXT
  5
191
330
187
100
AcDbEntity
  8
0
  6
Continuous
 62
     7
370
    18
100
AcDbMText
 10
125.6873980965
 20
242.4191983268
 30
0.0
 40
3.5
 41
0.0
 71
     1
 72
     1
  1
15
  7
SLDTEXTSTYLE1
 73
     1
 44
1.0
  0
ENDBLK
  5
189
330
187
100
AcDbEntity
  8
0
100
AcDbBlockEnd
  0
BLOCK
  5
194
330
193
100
AcDbEntity
  8
0
100
AcDbBlockBegin
  2
_D_12
 70
     0
 10
0.0
 20
0.0
 30
0.0
  3
_D_12
  1

  0
INSERT
  5
196
330
193
100
AcDbEntity
  8
0
  6
Continuous
 62
     7
370
    18
100
AcDbBlockReference
  2
_Closed
 10
119.8943426161
 20
243.9074614122
 30
8.55
 41
6.0
 42
6.0
 50
180.0
  0
INSERT
  5
197
330
193
100
AcDbEntity
  8
0
  6
Continuous
 62
     7
370
    18
100
AcDbBlockReference
  2
_Closed
 10
112.3943426161
 20
243.9074614122
 30
8.55
 41
6.0
 42
6.0
 50
0.0
  0
LINE
  5
198
330
193
100
AcDbEntity
  8
0
  6
Continuous
 62
     7
370
     0
100
AcDbLine
 10
119.8943426161
 20
209.6324614122
 30
0.0
 11
119.8943426161
 21
244.9074614122
 31
0.0
  0
LINE
  5
199
330
193
100
AcDbEntity
  8
0
  6
Continuous
 62
     7
370
     0
100
AcDbLine
 10
112.3943426161
 20
212.6074614122
 30
0.0
 11
112.3943426161
 21
244.9074614122
 31
0.0
  0
LINE
  5
19A
330
193
100
AcDbEntity
  8
0
  6
Continuous
 62
     7
370
     0
100
AcDbLine
 10
119.8943426161
 20
243.9074614122
 30
0.0
 11
138.3596204835
 21
243.9074614122
 31
0.0
  0
LINE
  5
19B
330
193
100
AcDbEntity
  8
0
  6
Continuous
 62
     7
370
     0
100
AcDbLine
 10
119.8943426161
 20
243.9074614122
 30
0.0
 11
112.3943426161
 21
243.9074614122
 31
0.0
  0
LINE
  5
19C
330
193
100
AcDbEntity
  8
0
  6
Continuous
 62
     7
370
     0
100
AcDbLine
 10
112.3943426161
 20
243.9074614122
 30
0.0
 11
100.3943426161
 21
243.9074614122
 31
0.0
  0
MTEXT
  5
19D
330
193
100
AcDbEntity
  8
0
  6
Continuous
 62
     7
370
    18
100
AcDbMText
 10
133.1873980965
 20
248.4191983268
 30
0.0
 40
3.5
 41
0.0
 71
     1
 72
     1
  1
15
  7
SLDTEXTSTYLE1
 73
     1
 44
1.0
  0
ENDBLK
  5
195
330
193
100
AcDbEntity
  8
0
100
AcDbBlockEnd
  0
BLOCK
  5
1A0
330
19F
100
AcDbEntity
  8
0
100
AcDbBlockBegin
  2
_D_13
 70
     0
 10
0.0
 20
0.0
 30
0.0
  3
_D_13
  1

  0
INSERT
  5
1A2
330
19F
100
AcDbEntity
  8
0
  6
Continuous
 62
     7
370
    18
100
AcDbBlockReference
  2
_Closed
 10
96.5643426161
 20
249.9074614122
 30
7.45
 41
6.0
 42
6.0
 50
0.0
  0
INSERT
  5
1A3
330
19F
100
AcDbEntity
  8
0
  6
Continuous
 62
     7
370
    18
100
AcDbBlockReference
  2
_Closed
 10
103.7143426161
 20
249.9074614122
 30
7.45
 41
6.0
 42
6.0
 50
180.0
  0
LINE
  5
1A4
330
19F
100
AcDbEntity
  8
0
  6
Continuous
 62
     7
370
     0
100
AcDbLine
 10
96.5643426161
 20
212.4074614122
 30
0.0
 11
96.5643426161
 21
250.9074614122
 31
0.0
  0
LINE
  5
1A5
330
19F
100
AcDbEntity
  8
0
  6
Continuous
 62
     7
370
     0
100
AcDbLine
 10
103.7143426161
 20
212.4074614122
 30
0.0
 11
103.7143426161
 21
250.9074614122
 31
0.0
  0
LINE
  5
1A6
330
19F
100
AcDbEntity
  8
0
  6
Continuous
 62
     7
370
     0
100
AcDbLine
 10
96.5643426161
 20
249.9074614122
 30
0.0
 11
69.047675455
 21
249.9074614122
 31
0.0
  0
LINE
  5
1A7
330
19F
100
AcDbEntity
  8
0
  6
Continuous
 62
     7
370
     0
100
AcDbLine
 10
96.5643426161
 20
249.9074614122
 30
0.0
 11
103.7143426161
 21
249.9074614122
 31
0.0
  0
LINE
  5
1A8
330
19F
100
AcDbEntity
  8
0
  6
Continuous
 62
     7
370
     0
100
AcDbLine
 10
103.7143426161
 20
249.9074614122
 30
0.0
 11
115.7143426161
 21
249.9074614122
 31
0.0
  0
MTEXT
  5
1A9
330
19F
100
AcDbEntity
  8
0
  6
Continuous
 62
     7
370
    18
100
AcDbMText
 10
69.047675455
 20
254.4191983268
 30
0.0
 40
3.5
 41
0.0
 71
     1
 72
     1
  1
14.300
  7
SLDTEXTSTYLE1
 73
     1
 44
1.0
  0
ENDBLK
  5
1A1
330
19F
100
AcDbEntity
  8
0
100
AcDbBlockEnd
  0
BLOCK
  5
1AC
330
1AB
100
AcDbEntity
  8
0
100
AcDbBlockBegin
  2
_D_14
 70
     0
 10
0.0
 20
0.0
 30
0.0
  3
_D_14
  1

  0
ARC
  5
1AE
330
1AB
100
AcDbEntity
  8
0
  6
Continuous
 62
     7
370
    18
100
AcDbCircle
 10
96.5643426161
 20
211.4074614122
 30
0.0
 40
33.30421274075097
100
AcDbArc
 50
275.0
 51
0.0
  0
INSERT
  5
1AF
330
1AB
100
AcDbEntity
  8
0
  6
Continuous
 62
     7
370
    18
100
AcDbBlockReference
  2
_Closed
 10
129.8685553569
 20
211.4074614122
 30
7.45
 41
6.0
 42
6.0
 50
84.8936459072
  0
INSERT
  5
1B0
330
1AB
100
AcDbEntity
  8
0
  6
Continuous
 62
     7
370
    18
100
AcDbBlockReference
  2
_Closed
 10
99.4669960142
 20
178.2299812557
 30
7.45
 41
6.0
 42
6.0
 50
190.1063540928
  0
LINE
  5
1B1
330
1AB
100
AcDbEntity
  8
0
  6
Continuous
 62
     7
370
     0
100
AcDbLine
 10
104.7143426161
 20
211.4074614122
 30
0.0
 11
130.8685553569
 21
211.4074614122
 31
0.0
  0
LINE
  5
1B2
330
1AB
100
AcDbEntity
  8
0
  6
Continuous
 62
     7
370
     0
100
AcDbLine
 10
97.0611303498
 20
205.7291516331
 30
0.0
 11
99.5541517569
 21
177.2337865576
 31
0.0
  0
MTEXT
  5
1B3
330
1AB
100
AcDbEntity
  8
0
  6
Continuous
 62
     7
370
    18
100
AcDbMText
 10
115.4146802773
 20
189.3607400277
 30
0.0
 40
3.5
 41
0.0
 71
     1
 72
     1
  1
85°
  7
SLDTEXTSTYLE1
 11
0.6755902076156537
 21
0.73727733681013
 31
0.0
 73
     1
 44
1.0
  0
ENDBLK
  5
1AD
330
1AB
100
AcDbEntity
  8
0
100
AcDbBlockEnd
  0
BLOCK
  5
1B6
330
1B5
100
AcDbEntity
  8
0
100
AcDbBlockBegin
  2
_D_15
 70
     0
 10
0.0
 20
0.0
 30
0.0
  3
_D_15
  1

  0
INSERT
  5
1B8
330
1B5
100
AcDbEntity
  8
0
  6
Continuous
 62
     7
370
    18
100
AcDbBlockReference
  2
_Closed
 10
58.6272688433
 20
203.3704442933
 30
7.45
 41
6.0
 42
6.0
 50
95.0
  0
INSERT
  5
1B9
330
1B5
100
AcDbEntity
  8
0
  6
Continuous
 62
     7
370
    18
100
AcDbBlockReference
  2
_Closed
 10
58.2176368524
 20
208.0525593743
 30
7.45
 41
6.0
 42
6.0
 50
275.0
  0
LINE
  5
1BA
330
1B5
100
AcDbEntity
  8
0
  6
Continuous
 62
     7
370
     0
100
AcDbLine
 10
95.977779909
 20
206.6381905884
 30
0.0
 11
57.6310741452
 21
203.2832885505
 31
0.0
  0
LINE
  5
1BB
330
1B5
100
AcDbEntity
  8
0
  6
Continuous
 62
     7
370
     0
100
AcDbLine
 10
95.568147918
 20
211.3203056694
 30
0.0
 11
57.2214421543
 21
207.9654036315
 31
0.0
  0
LINE
  5
1BC
330
1B5
100
AcDbEntity
  8
0
  6
Continuous
 62
     7
370
     0
100
AcDbLine
 10
58.6272688433
 20
203.3704442933
 30
0.0
 11
59.6731377563
 21
191.4161079162
 31
0.0
  0
LINE
  5
1BD
330
1B5
100
AcDbEntity
  8
0
  6
Continuous
 62
     7
370
     0
100
AcDbLine
 10
58.6272688433
 20
203.3704442933
 30
0.0
 11
58.2176368524
 21
208.0525593743
 31
0.0
  0
LINE
  5
1BE
330
1B5
100
AcDbEntity
  8
0
  6
Continuous
 62
     7
370
     0
100
AcDbLine
 10
58.2176368524
 20
208.0525593743
 30
0.0
 11
56.8923345688
 21
223.2008337922
 31
0.0
  0
MTEXT
  5
1BF
330
1B5
100
AcDbEntity
  8
0
  6
Continuous
 62
     7
370
    18
100
AcDbMText
 10
61.3869029623
 20
223.5940575741
 30
0.0
 40
3.5
 41
0.0
 71
     1
 72
     1
  1
9.400
  7
SLDTEXTSTYLE1
 11
0.08715574274765503
 21
-0.9961946980917458
 31
0.0
 73
     1
 44
1.0
  0
ENDBLK
  5
1B7
330
1B5
100
AcDbEntity
  8
0
100
AcDbBlockEnd
  0
BLOCK
  5
1C2
330
1C1
100
AcDbEntity
  8
0
100
AcDbBlockBegin
  2
_D_16
 70
     0
 10
0.0
 20
0.0
 30
0.0
  3
_D_16
  1

  0
INSERT
  5
1C4
330
1C1
100
AcDbEntity
  8
0
  6
Continuous
 62
     7
370
    18
100
AcDbBlockReference
  2
_Closed
 10
135.9224676117
 20
211.4074614122
 30
7.45
 41
6.0
 42
6.0
 50
90.0
  0
INSERT
  5
1C5
330
1C1
100
AcDbEntity
  8
0
  6
Continuous
 62
     7
370
    18
100
AcDbBlockReference
  2
_Closed
 10
135.9224676117
 20
214.9074614122
 30
7.45
 41
6.0
 42
6.0
 50
270.0
  0
LINE
  5
1C6
330
1C1
100
AcDbEntity
  8
0
  6
Continuous
 62
     7
370
     0
100
AcDbLine
 10
104.7143426161
 20
211.4074614122
 30
0.0
 11
136.9224676117
 21
211.4074614122
 31
0.0
  0
LINE
  5
1C7
330
1C1
100
AcDbEntity
  8
0
  6
Continuous
 62
     7
370
     0
100
AcDbLine
 10
113.2161393859
 20
214.9074614122
 30
0.0
 11
136.9224676117
 21
214.9074614122
 31
0.0
  0
LINE
  5
1C8
330
1C1
100
AcDbEntity
  8
0
  6
Continuous
 62
     7
370
     0
100
AcDbLine
 10
135.9224676117
 20
211.4074614122
 30
0.0
 11
135.9224676117
 21
199.4074614122
 31
0.0
  0
LINE
  5
1C9
330
1C1
100
AcDbEntity
  8
0
  6
Continuous
 62
     7
370
     0
100
AcDbLine
 10
135.9224676117
 20
211.4074614122
 30
0.0
 11
135.9224676117
 21
214.9074614122
 31
0.0
  0
LINE
  5
1CA
330
1C1
100
AcDbEntity
  8
0
  6
Continuous
 62
     7
370
     0
100
AcDbLine
 10
135.9224676117
 20
214.9074614122
 30
0.0
 11
135.9224676117
 21
230.7866282025
 31
0.0
  0
MTEXT
  5
1CB
330
1C1
100
AcDbEntity
  8
0
  6
Continuous
 62
     7
370
    18
100
AcDbMText
 10
131.4107306971
 20
228.2005170089
 30
0.0
 40
3.5
 41
0.0
 71
     1
 72
     1
  1
7
  7
SLDTEXTSTYLE1
 11
6.123233995736766E-17
 21
1.0
 31
0.0
 73
     1
 44
1.0
  0
ENDBLK
  5
1C3
330
1C1
100
AcDbEntity
  8
0
100
AcDbBlockEnd
  0
BLOCK
  5
1CE
330
1CD
100
AcDbEntity
  8
0
100
AcDbBlockBegin
  2
_D_17
 70
     0
 10
0.0
 20
0.0
 30
0.0
  3
_D_17
  1

  0
INSERT
  5
1D0
330
1CD
100
AcDbEntity
  8
0
  6
Continuous
 62
     7
370
    18
100
AcDbBlockReference
  2
_Closed
 10
54.1762009286
 20
228.6832200028
 30
7.45
 41
6.0
 42
6.0
 50
250.7744715597
  0
INSERT
  5
1D1
330
1CD
100
AcDbEntity
  8
0
  6
Continuous
 62
     7
370
    18
100
AcDbBlockReference
  2
_Closed
 10
52.0358329195
 20
222.5457266394
 30
7.45
 41
6.0
 42
6.0
 50
70.7744715597
  0
LINE
  5
1D2
330
1CD
100
AcDbEntity
  8
0
  6
Continuous
 62
     7
370
     0
100
AcDbLine
 10
102.7701128679
 20
211.7367487982
 30
0.0
 11
53.2319711804
 21
229.0125073888
 31
0.0
  0
LINE
  5
1D3
330
1CD
100
AcDbEntity
  8
0
  6
Continuous
 62
     7
370
     0
100
AcDbLine
 10
100.6297448588
 20
205.5992554348
 30
0.0
 11
51.0916031713
 21
222.8750140254
 31
0.0
  0
LINE
  5
1D4
330
1CD
100
AcDbEntity
  8
0
  6
Continuous
 62
     7
370
     0
100
AcDbLine
 10
54.1762009286
 20
228.6832200028
 30
0.0
 11
58.1276495607
 21
240.0139769814
 31
0.0
  0
LINE
  5
1D5
330
1CD
100
AcDbEntity
  8
0
  6
Continuous
 62
     7
370
     0
100
AcDbLine
 10
54.1762009286
 20
228.6832200028
 30
0.0
 11
52.0358329195
 21
222.5457266394
 31
0.0
  0
LINE
  5
1D6
330
1CD
100
AcDbEntity
  8
0
  6
Continuous
 62
     7
370
     0
100
AcDbLine
 10
52.0358329195
 20
222.5457266394
 30
0.0
 11
47.924133251
 21
210.7554507054
 31
0.0
  0
MTEXT
  5
1D7
330
1CD
100
AcDbEntity
  8
0
  6
Continuous
 62
     7
370
    18
100
AcDbMText
 10
43.6640170401
 20
212.2411087603
 30
0.0
 40
3.5
 41
0.0
 71
     1
 72
     1
  1
13
  7
SLDTEXTSTYLE1
 11
0.3292873860132224
 21
0.9442297482141616
 31
0.0
 73
     1
 44
1.0
  0
ENDBLK
  5
1CF
330
1CD
100
AcDbEntity
  8
0
100
AcDbBlockEnd
  0
BLOCK
  5
1DA
330
1D9
100
AcDbEntity
  8
0
100
AcDbBlockBegin
  2
_D_18
 70
     0
 10
0.0
 20
0.0
 30
0.0
  3
_D_18
  1

  0
INSERT
  5
1DC
330
1D9
100
AcDbEntity
  8
0
  6
Continuous
 62
     7
370
    18
100
AcDbBlockReference
  2
_Closed
 10
101.5739746071
 20
188.9074614122
 30
7.45
 41
6.0
 42
6.0
 50
180.0
  0
INSERT
  5
1DD
330
1D9
100
AcDbEntity
  8
0
  6
Continuous
 62
     7
370
    18
100
AcDbBlockReference
  2
_Closed
 10
96.9739746071
 20
188.9074614122
 30
7.45
 41
6.0
 42
6.0
 50
0.0
  0
LINE
  5
1DE
330
1D9
100
AcDbEntity
  8
0
  6
Continuous
 62
     7
370
     0
100
AcDbLine
 10
101.5739746071
 20
204.2699680488
 30
0.0
 11
101.5739746071
 21
187.9074614122
 31
0.0
  0
LINE
  5
1DF
330
1D9
100
AcDbEntity
  8
0
  6
Continuous
 62
     7
370
     0
100
AcDbLine
 10
96.9739746071
 20
205.7253463311
 30
0.0
 11
96.9739746071
 21
187.9074614122
 31
0.0
  0
LINE
  5
1E0
330
1D9
100
AcDbEntity
  8
0
  6
Continuous
 62
     7
370
     0
100
AcDbLine
 10
101.5739746071
 20
188.9074614122
 30
0.0
 11
113.5739746071
 21
188.9074614122
 31
0.0
  0
LINE
  5
1E1
330
1D9
100
AcDbEntity
  8
0
  6
Continuous
 62
     7
370
     0
100
AcDbLine
 10
101.5739746071
 20
188.9074614122
 30
0.0
 11
96.9739746071
 21
188.9074614122
 31
0.0
  0
LINE
  5
1E2
330
1D9
100
AcDbEntity
  8
0
  6
Continuous
 62
     7
370
     0
100
AcDbLine
 10
96.9739746071
 20
188.9074614122
 30
0.0
 11
72.0434184066
 21
188.9074614122
 31
0.0
  0
MTEXT
  5
1E3
330
1D9
100
AcDbEntity
  8
0
  6
Continuous
 62
     7
370
    18
100
AcDbMText
 10
72.0434184066
 20
193.4191983268
 30
0.0
 40
3.5
 41
0.0
 71
     1
 72
     1
  1
9.200
  7
SLDTEXTSTYLE1
 73
     1
 44
1.0
  0
ENDBLK
  5
1DB
330
1D9
100
AcDbEntity
  8
0
100
AcDbBlockEnd
  0
BLOCK
  5
1E6
330
1E5
100
AcDbEntity
  8
0
100
AcDbBlockBegin
  2
_D_19
 70
     0
 10
0.0
 20
0.0
 30
0.0
  3
_D_19
  1

  0
INSERT
  5
1E8
330
1E5
100
AcDbEntity
  8
0
  6
Continuous
 62
     7
370
    18
100
AcDbBlockReference
  2
_Closed
 10
96.5643426161
 20
243.9074614122
 30
7.45
 41
6.0
 42
6.0
 50
180.0
  0
INSERT
  5
1E9
330
1E5
100
AcDbEntity
  8
0
  6
Continuous
 62
     7
370
    18
100
AcDbBlockReference
  2
_Closed
 10
94.5143426161
 20
243.9074614122
 30
7.45
 41
6.0
 42
6.0
 50
0.0
  0
LINE
  5
1EA
330
1E5
100
AcDbEntity
  8
0
  6
Continuous
 62
     7
370
     0
100
AcDbLine
 10
96.5643426161
 20
212.4074614122
 30
0.0
 11
96.5643426161
 21
244.9074614122
 31
0.0
  0
LINE
  5
1EB
330
1E5
100
AcDbEntity
  8
0
  6
Continuous
 62
     7
370
     0
100
AcDbLine
 10
94.5143426161
 20
215.5391614122
 30
0.0
 11
94.5143426161
 21
244.9074614122
 31
0.0
  0
LINE
  5
1EC
330
1E5
100
AcDbEntity
  8
0
  6
Continuous
 62
     7
370
     0
100
AcDbLine
 10
96.5643426161
 20
243.9074614122
 30
0.0
 11
108.5643426161
 21
243.9074614122
 31
0.0
  0
LINE
  5
1ED
330
1E5
100
AcDbEntity
  8
0
  6
Continuous
 62
     7
370
     0
100
AcDbLine
 10
96.5643426161
 20
243.9074614122
 30
0.0
 11
94.5143426161
 21
243.9074614122
 31
0.0
  0
LINE
  5
1EE
330
1E5
100
AcDbEntity
  8
0
  6
Continuous
 62
     7
370
     0
100
AcDbLine
 10
94.5143426161
 20
243.9074614122
 30
0.0
 11
69.5837864157
 21
243.9074614122
 31
0.0
  0
MTEXT
  5
1EF
330
1E5
100
AcDbEntity
  8
0
  6
Continuous
 62
     7
370
    18
100
AcDbMText
 10
69.5837864157
 20
248.4191983268
 30
0.0
 40
3.5
 41
0.0
 71
     1
 72
     1
  1
4.100
  7
SLDTEXTSTYLE1
 73
     1
 44
1.0
  0
ENDBLK
  5
1E7
330
1E5
100
AcDbEntity
  8
0
100
AcDbBlockEnd
  0
BLOCK
  5
1F3
330
1F2
100
AcDbEntity
  8
0
100
AcDbBlockBegin
  2
_D_20
 70
     0
 10
0.0
 20
0.0
 30
0.0
  3
_D_20
  1

  0
INSERT
  5
1F5
330
1F2
100
AcDbEntity
  8
0
  6
Continuous
 62
     7
370
    18
100
AcDbBlockReference
  2
_Closed
 10
102.6568888303
 20
211.2610148028
 30
8.45
 41
6.0
 42
6.0
 50
315.0
  0
LINE
  5
1F6
330
1F2
100
AcDbEntity
  8
0
  6
Continuous
 62
     7
370
     0
100
AcDbLine
 10
102.6568888303
 20
211.2610148028
 30
0.0
 11
86.2211353091
 21
227.6967683239
 31
0.0
  0
LINE
  5
1F7
330
1F2
100
AcDbEntity
  8
0
  6
Continuous
 62
     7
370
     0
100
AcDbLine
 10
102.6568888303
 20
211.2610148028
 30
0.0
 11
103.0104422209
 21
210.9074614122
 31
0.0
  0
MTEXT
  5
1F8
330
1F2
100
AcDbEntity
  8
0
  6
Continuous
 62
     7
370
    18
100
AcDbMText
 10
89.3947826802
 20
230.870415695
 30
0.0
 40
3.5
 41
0.0
 71
     1
 72
     1
  1
R1
  7
SLDTEXTSTYLE1
 11
0.7071067811865426
 21
-0.7071067811865526
 31
0.0
 73
     1
 44
1.0
  0
ENDBLK
  5
1F4
330
1F2
100
AcDbEntity
  8
0
100
AcDbBlockEnd
  0
BLOCK
  5
1FC
330
1FB
100
AcDbEntity
  8
0
100
AcDbBlockBegin
  2
_D_21
 70
     0
 10
0.0
 20
0.0
 30
0.0
  3
_D_21
  1

  0
INSERT
  5
1FE
330
1FB
100
AcDbEntity
  8
0
  6
Continuous
 62
     7
370
    18
100
AcDbBlockReference
  2
_Closed
 10
112.0481485384
 20
210.0036554899
 30
7.55
 41
6.0
 42
6.0
 50
314.9925703821
  0
LINE
  5
1FF
330
1FB
100
AcDbEntity
  8
0
  6
Continuous
 62
     7
370
     0
100
AcDbLine
 10
112.0481485384
 20
210.0036554899
 30
0.0
 11
147.9028684105
 21
174.139635756
 31
0.0
  0
LINE
  5
200
330
1FB
100
AcDbEntity
  8
0
  6
Continuous
 62
     7
370
     0
100
AcDbLine
 10
112.0481485384
 20
210.0036554899
 30
0.0
 11
103.5639675329
 21
218.4900370902
 31
0.0
  0
MTEXT
  5
201
330
1FB
100
AcDbEntity
  8
0
  6
Continuous
 62
     7
370
    18
100
AcDbMText
 10
145.4318741674
 20
182.9911895336
 30
0.0
 40
3.5
 41
0.0
 71
     1
 72
     1
  1
R13
  7
SLDTEXTSTYLE1
 11
0.7071067811865575
 21
-0.7071067811865377
 31
0.0
 73
     1
 44
1.0
  0
ENDBLK
  5
1FD
330
1FB
100
AcDbEntity
  8
0
100
AcDbBlockEnd
  0
BLOCK
  5
203
330
202
100
AcDbEntity
  8
0
100
AcDbBlockBegin
  2
SW_CENTERMARKSYMBOL_0
 70
     0
 10
0.0
 20
0.0
 30
0.0
  3
SW_CENTERMARKSYMBOL_0
  1

  0
LINE
  5
205
330
202
100
AcDbEntity
  8
0
  6
Continuous
 62
     0
370
    18
100
AcDbLine
 10
0.0
 20
0.0
 30
0.0
 11
0.0
 21
1.25
 31
0.0
  0
LINE
  5
206
330
202
100
AcDbEntity
  8
0
  6
Continuous
 62
     0
370
    18
100
AcDbLine
 10
0.0
 20
0.0
 30
0.0
 11
-1.25
 21
0.0
 31
0.0
  0
LINE
  5
207
330
202
100
AcDbEntity
  8
0
  6
Continuous
 62
     0
370
    18
100
AcDbLine
 10
0.0
 20
0.0
 30
0.0
 11
0.0
 21
-1.25
 31
0.0
  0
LINE
  5
208
330
202
100
AcDbEntity
  8
0
  6
Continuous
 62
     0
370
    18
100
AcDbLine
 10
0.0
 20
0.0
 30
0.0
 11
1.25
 21
0.0
 31
0.0
  0
LINE
  5
209
330
202
100
AcDbEntity
  8
0
  6
Continuous
 62
     0
370
    18
100
AcDbLine
 10
0.0
 20
2.5
 30
0.0
 11
0.0
 21
5.05
 31
0.0
  0
LINE
  5
20A
330
202
100
AcDbEntity
  8
0
  6
Continuous
 62
     0
370
    18
100
AcDbLine
 10
-2.5
 20
0.0
 30
0.0
 11
-5.05
 21
0.0
 31
0.0
  0
LINE
  5
20B
330
202
100
AcDbEntity
  8
0
  6
Continuous
 62
     0
370
    18
100
AcDbLine
 10
0.0
 20
-2.5
 30
0.0
 11
0.0
 21
-5.05
 31
0.0
  0
LINE
  5
20C
330
202
100
AcDbEntity
  8
0
  6
Continuous
 62
     0
370
    18
100
AcDbLine
 10
2.5
 20
0.0
 30
0.0
 11
5.05
 21
0.0
 31
0.0
  0
ENDBLK
  5
204
330
202
100
AcDbEntity
  8
0
100
AcDbBlockEnd
  0
BLOCK
  5
20F
330
20E
100
AcDbEntity
  8
0
100
AcDbBlockBegin
  2
SW_CENTERMARKSYMBOL_1
 70
     0
 10
0.0
 20
0.0
 30
0.0
  3
SW_CENTERMARKSYMBOL_1
  1

  0
LINE
  5
211
330
20E
100
AcDbEntity
  8
0
  6
Continuous
 62
     0
370
    18
100
AcDbLine
 10
0.0
 20
0.0
 30
0.0
 11
0.0
 21
1.25
 31
0.0
  0
LINE
  5
212
330
20E
100
AcDbEntity
  8
0
  6
Continuous
 62
     0
370
    18
100
AcDbLine
 10
0.0
 20
0.0
 30
0.0
 11
-1.25
 21
0.0
 31
0.0
  0
LINE
  5
213
330
20E
100
AcDbEntity
  8
0
  6
Continuous
 62
     0
370
    18
100
AcDbLine
 10
0.0
 20
0.0
 30
0.0
 11
0.0
 21
-1.25
 31
0.0
  0
LINE
  5
214
330
20E
100
AcDbEntity
  8
0
  6
Continuous
 62
     0
370
    18
100
AcDbLine
 10
0.0
 20
0.0
 30
0.0
 11
1.25
 21
0.0
 31
0.0
  0
LINE
  5
215
330
20E
100
AcDbEntity
  8
0
  6
Continuous
 62
     0
370
    18
100
AcDbLine
 10
0.0
 20
1.25
 30
0.0
 11
0.0
 21
2.075
 31
0.0
  0
LINE
  5
216
330
20E
100
AcDbEntity
  8
0
  6
Continuous
 62
     0
370
    18
100
AcDbLine
 10
-1.25
 20
0.0
 30
0.0
 11
-2.075
 21
0.0
 31
0.0
  0
LINE
  5
217
330
20E
100
AcDbEntity
  8
0
  6
Continuous
 62
     0
370
    18
100
AcDbLine
 10
0.0
 20
-1.25
 30
0.0
 11
0.0
 21
-2.075
 31
0.0
  0
LINE
  5
218
330
20E
100
AcDbEntity
  8
0
  6
Continuous
 62
     0
370
    18
100
AcDbLine
 10
1.25
 20
0.0
 30
0.0
 11
2.075
 21
0.0
 31
0.0
  0
ENDBLK
  5
210
330
20E
100
AcDbEntity
  8
0
100
AcDbBlockEnd
  0
BLOCK
  5
21B
330
21A
100
AcDbEntity
  8
0
100
AcDbBlockBegin
  2
SW_CENTERMARKSYMBOL_2
 70
     0
 10
0.0
 20
0.0
 30
0.0
  3
SW_CENTERMARKSYMBOL_2
  1

  0
LINE
  5
21D
330
21A
100
AcDbEntity
  8
0
  6
Continuous
 62
     0
370
    18
100
AcDbLine
 10
0.0
 20
0.0
 30
0.0
 11
0.0
 21
1.25
 31
0.0
  0
LINE
  5
21E
330
21A
100
AcDbEntity
  8
0
  6
Continuous
 62
     0
370
    18
100
AcDbLine
 10
0.0
 20
0.0
 30
0.0
 11
-1.25
 21
0.0
 31
0.0
  0
LINE
  5
21F
330
21A
100
AcDbEntity
  8
0
  6
Continuous
 62
     0
370
    18
100
AcDbLine
 10
0.0
 20
0.0
 30
0.0
 11
0.0
 21
-1.25
 31
0.0
  0
LINE
  5
220
330
21A
100
AcDbEntity
  8
0
  6
Continuous
 62
     0
370
    18
100
AcDbLine
 10
0.0
 20
0.0
 30
0.0
 11
1.25
 21
0.0
 31
0.0
  0
LINE
  5
221
330
21A
100
AcDbEntity
  8
0
  6
Continuous
 62
     0
370
    18
100
AcDbLine
 10
0.0
 20
1.25
 30
0.0
 11
0.0
 21
2.075
 31
0.0
  0
LINE
  5
222
330
21A
100
AcDbEntity
  8
0
  6
Continuous
 62
     0
370
    18
100
AcDbLine
 10
-1.25
 20
0.0
 30
0.0
 11
-2.075
 21
0.0
 31
0.0
  0
LINE
  5
223
330
21A
100
AcDbEntity
  8
0
  6
Continuous
 62
     0
370
    18
100
AcDbLine
 10
0.0
 20
-1.25
 30
0.0
 11
0.0
 21
-2.075
 31
0.0
  0
LINE
  5
224
330
21A
100
AcDbEntity
  8
0
  6
Continuous
 62
     0
370
    18
100
AcDbLine
 10
1.25
 20
0.0
 30
0.0
 11
2.075
 21
0.0
 31
0.0
  0
ENDBLK
  5
21C
330
21A
100
AcDbEntity
  8
0
100
AcDbBlockEnd
  0
BLOCK
  5
248
330
247
100
AcDbEntity
  8
0
100
AcDbBlockBegin
  2
_D_22
 70
     0
 10
0.0
 20
0.0
 30
0.0
  3
_D_22
  1

  0
INSERT
  5
24A
330
247
100
AcDbEntity
  8
0
  6
Continuous
 62
     7
370
    18
100
AcDbBlockReference
  2
_Closed
 10
83.1443426161
 20
82.8421025991
 30
7.45
 41
6.0
 42
6.0
 50
0.0
  0
INSERT
  5
24B
330
247
100
AcDbEntity
  8
0
  6
Continuous
 62
     7
370
    18
100
AcDbBlockReference
  2
_Closed
 10
94.5143426161
 20
82.8421025991
 30
7.45
 41
6.0
 42
6.0
 50
180.0
  0
LINE
  5
24C
330
247
100
AcDbEntity
  8
0
  6
Continuous
 62
     7
370
     0
100
AcDbLine
 10
83.1443426161
 20
116.8421025991
 30
0.0
 11
83.1443426161
 21
81.8421025991
 31
0.0
  0
LINE
  5
24D
330
247
100
AcDbEntity
  8
0
  6
Continuous
 62
     7
370
     0
100
AcDbLine
 10
94.5143426161
 20
116.8421025991
 30
0.0
 11
94.5143426161
 21
81.8421025991
 31
0.0
  0
LINE
  5
24E
330
247
100
AcDbEntity
  8
0
  6
Continuous
 62
     7
370
     0
100
AcDbLine
 10
83.1443426161
 20
82.8421025991
 30
0.0
 11
55.627675455
 21
82.8421025991
 31
0.0
  0
LINE
  5
24F
330
247
100
AcDbEntity
  8
0
  6
Continuous
 62
     7
370
     0
100
AcDbLine
 10
83.1443426161
 20
82.8421025991
 30
0.0
 11
94.5143426161
 21
82.8421025991
 31
0.0
  0
LINE
  5
250
330
247
100
AcDbEntity
  8
0
  6
Continuous
 62
     7
370
     0
100
AcDbLine
 10
94.5143426161
 20
82.8421025991
 30
0.0
 11
106.5143426161
 21
82.8421025991
 31
0.0
  0
MTEXT
  5
251
330
247
100
AcDbEntity
  8
0
  6
Continuous
 62
     7
370
    18
100
AcDbMText
 10
55.627675455
 20
87.3538395137
 30
0.0
 40
3.5
 41
0.0
 71
     1
 72
     1
  1
22.740
  7
SLDTEXTSTYLE1
 73
     1
 44
1.0
  0
ENDBLK
  5
249
330
247
100
AcDbEntity
  8
0
100
AcDbBlockEnd
  0
BLOCK
  5
254
330
253
100
AcDbEntity
  8
0
100
AcDbBlockBegin
  2
_D_23
 70
     0
 10
0.0
 20
0.0
 30
0.0
  3
_D_23
  1

  0
INSERT
  5
256
330
253
100
AcDbEntity
  8
0
  6
Continuous
 62
     7
370
    18
100
AcDbBlockReference
  2
_Closed
 10
51.9224676117
 20
133.8421025991
 30
7.45
 41
6.0
 42
6.0
 50
270.0
  0
INSERT
  5
257
330
253
100
AcDbEntity
  8
0
  6
Continuous
 62
     7
370
    18
100
AcDbBlockReference
  2
_Closed
 10
51.9224676117
 20
117.8421025991
 30
7.45
 41
6.0
 42
6.0
 50
90.0
  0
LINE
  5
258
330
253
100
AcDbEntity
  8
0
  6
Continuous
 62
     7
370
     0
100
AcDbLine
 10
82.1443426161
 20
133.8421025991
 30
0.0
 11
50.9224676117
 21
133.8421025991
 31
0.0
  0
LINE
  5
259
330
253
100
AcDbEntity
  8
0
  6
Continuous
 62
     7
370
     0
100
AcDbLine
 10
82.1443426161
 20
117.8421025991
 30
0.0
 11
50.9224676117
 21
117.8421025991
 31
0.0
  0
LINE
  5
25A
330
253
100
AcDbEntity
  8
0
  6
Continuous
 62
     7
370
     0
100
AcDbLine
 10
51.9224676117
 20
133.8421025991
 30
0.0
 11
51.9224676117
 21
145.8421025991
 31
0.0
  0
LINE
  5
25B
330
253
100
AcDbEntity
  8
0
  6
Continuous
 62
     7
370
     0
100
AcDbLine
 10
51.9224676117
 20
133.8421025991
 30
0.0
 11
51.9224676117
 21
117.8421025991
 31
0.0
  0
LINE
  5
25C
330
253
100
AcDbEntity
  8
0
  6
Continuous
 62
     7
370
     0
100
AcDbLine
 10
51.9224676117
 20
117.8421025991
 30
0.0
 11
51.9224676117
 21
105.8421025991
 31
0.0
  0
MTEXT
  5
25D
330
253
100
AcDbEntity
  8
0
  6
Continuous
 62
     7
370
    18
100
AcDbMText
 10
47.4107306971
 20
123.2559914056
 30
0.0
 40
3.5
 41
0.0
 71
     1
 72
     1
  1
32
  7
SLDTEXTSTYLE1
 11
-7.044195017643634E-15
 21
1.0
 31
0.0
 73
     1
 44
1.0
  0
ENDBLK
  5
255
330
253
100
AcDbEntity
  8
0
100
AcDbBlockEnd
  0
BLOCK
  5
260
330
25F
100
AcDbEntity
  8
0
100
AcDbBlockBegin
  2
_D_24
 70
     0
 10
0.0
 20
0.0
 30
0.0
  3
_D_24
  1

  0
INSERT
  5
262
330
25F
100
AcDbEntity
  8
0
  6
Continuous
 62
     7
370
    18
100
AcDbBlockReference
  2
_Closed
 10
89.5143426161
 20
88.8421025991
 30
8.55
 41
6.0
 42
6.0
 50
0.0
  0
INSERT
  5
263
330
25F
100
AcDbEntity
  8
0
  6
Continuous
 62
     7
370
    18
100
AcDbBlockReference
  2
_Closed
 10
94.5143426161
 20
88.8421025991
 30
8.55
 41
6.0
 42
6.0
 50
180.0
  0
LINE
  5
264
330
25F
100
AcDbEntity
  8
0
  6
Continuous
 62
     7
370
     0
100
AcDbLine
 10
89.5143426161
 20
117.2104025991
 30
0.0
 11
89.5143426161
 21
87.8421025991
 31
0.0
  0
LINE
  5
265
330
25F
100
AcDbEntity
  8
0
  6
Continuous
 62
     7
370
     0
100
AcDbLine
 10
94.5143426161
 20
117.2104025991
 30
0.0
 11
94.5143426161
 21
87.8421025991
 31
0.0
  0
LINE
  5
266
330
25F
100
AcDbEntity
  8
0
  6
Continuous
 62
     7
370
     0
100
AcDbLine
 10
89.5143426161
 20
88.8421025991
 30
0.0
 11
71.0490647487
 21
88.8421025991
 31
0.0
  0
LINE
  5
267
330
25F
100
AcDbEntity
  8
0
  6
Continuous
 62
     7
370
     0
100
AcDbLine
 10
89.5143426161
 20
88.8421025991
 30
0.0
 11
94.5143426161
 21
88.8421025991
 31
0.0
  0
LINE
  5
268
330
25F
100
AcDbEntity
  8
0
  6
Continuous
 62
     7
370
     0
100
AcDbLine
 10
94.5143426161
 20
88.8421025991
 30
0.0
 11
106.5143426161
 21
88.8421025991
 31
0.0
  0
MTEXT
  5
269
330
25F
100
AcDbEntity
  8
0
  6
Continuous
 62
     7
370
    18
100
AcDbMText
 10
71.0490647487
 20
93.3538395137
 30
0.0
 40
3.5
 41
0.0
 71
     1
 72
     1
  1
10
  7
SLDTEXTSTYLE1
 73
     1
 44
1.0
  0
ENDBLK
  5
261
330
25F
100
AcDbEntity
  8
0
100
AcDbBlockEnd
  0
BLOCK
  5
26C
330
26B
100
AcDbEntity
  8
0
100
AcDbBlockBegin
  2
_D_25
 70
     0
 10
0.0
 20
0.0
 30
0.0
  3
_D_25
  1

  0
INSERT
  5
26E
330
26B
100
AcDbEntity
  8
0
  6
Continuous
 62
     7
370
    18
100
AcDbBlockReference
  2
_Closed
 10
75.9224676117
 20
121.2171025991
 30
8.55
 41
6.0
 42
6.0
 50
90.0
  0
INSERT
  5
26F
330
26B
100
AcDbEntity
  8
0
  6
Continuous
 62
     7
370
    18
100
AcDbBlockReference
  2
_Closed
 10
75.9224676117
 20
123.9671025991
 30
8.55
 41
6.0
 42
6.0
 50
270.0
  0
LINE
  5
270
330
26B
100
AcDbEntity
  8
0
  6
Continuous
 62
     7
370
     0
100
AcDbLine
 10
89.6393426161
 20
121.2171025991
 30
0.0
 11
74.9224676117
 21
121.2171025991
 31
0.0
  0
LINE
  5
271
330
26B
100
AcDbEntity
  8
0
  6
Continuous
 62
     7
370
     0
100
AcDbLine
 10
89.6393426161
 20
123.9671025991
 30
0.0
 11
74.9224676117
 21
123.9671025991
 31
0.0
  0
LINE
  5
272
330
26B
100
AcDbEntity
  8
0
  6
Continuous
 62
     7
370
     0
100
AcDbLine
 10
75.9224676117
 20
121.2171025991
 30
0.0
 11
75.9224676117
 21
96.2865463986
 31
0.0
  0
LINE
  5
273
330
26B
100
AcDbEntity
  8
0
  6
Continuous
 62
     7
370
     0
100
AcDbLine
 10
75.9224676117
 20
121.2171025991
 30
0.0
 11
75.9224676117
 21
123.9671025991
 31
0.0
  0
LINE
  5
274
330
26B
100
AcDbEntity
  8
0
  6
Continuous
 62
     7
370
     0
100
AcDbLine
 10
75.9224676117
 20
123.9671025991
 30
0.0
 11
75.9224676117
 21
135.9671025991
 31
0.0
  0
MTEXT
  5
275
330
26B
100
AcDbEntity
  8
0
  6
Continuous
 62
     7
370
    18
100
AcDbMText
 10
71.4107306971
 20
96.2865463986
 30
0.0
 40
3.5
 41
0.0
 71
     1
 72
     1
  1
5.500
  7
SLDTEXTSTYLE1
 11
-3.828568698926949E-16
 21
1.0
 31
0.0
 73
     1
 44
1.0
  0
ENDBLK
  5
26D
330
26B
100
AcDbEntity
  8
0
100
AcDbBlockEnd
  0
BLOCK
  5
278
330
277
100
AcDbEntity
  8
0
100
AcDbBlockBegin
  2
_D_26
 70
     0
 10
0.0
 20
0.0
 30
0.0
  3
_D_26
  1

  0
INSERT
  5
27A
330
277
100
AcDbEntity
  8
0
  6
Continuous
 62
     7
370
    18
100
AcDbBlockReference
  2
_Closed
 10
57.9224676117
 20
128.4671025991
 30
8.55
 41
6.0
 42
6.0
 50
90.0
  0
INSERT
  5
27B
330
277
100
AcDbEntity
  8
0
  6
Continuous
 62
     7
370
    18
100
AcDbBlockReference
  2
_Closed
 10
57.9224676117
 20
131.2171025991
 30
8.55
 41
6.0
 42
6.0
 50
270.0
  0
LINE
  5
27C
330
277
100
AcDbEntity
  8
0
  6
Continuous
 62
     7
370
     0
100
AcDbLine
 10
89.6393426161
 20
128.4671025991
 30
0.0
 11
56.9224676117
 21
128.4671025991
 31
0.0
  0
LINE
  5
27D
330
277
100
AcDbEntity
  8
0
  6
Continuous
 62
     7
370
     0
100
AcDbLine
 10
89.6393426161
 20
131.2171025991
 30
0.0
 11
56.9224676117
 21
131.2171025991
 31
0.0
  0
LINE
  5
27E
330
277
100
AcDbEntity
  8
0
  6
Continuous
 62
     7
370
     0
100
AcDbLine
 10
57.9224676117
 20
128.4671025991
 30
0.0
 11
57.9224676117
 21
116.4671025991
 31
0.0
  0
LINE
  5
27F
330
277
100
AcDbEntity
  8
0
  6
Continuous
 62
     7
370
     0
100
AcDbLine
 10
57.9224676117
 20
128.4671025991
 30
0.0
 11
57.9224676117
 21
131.2171025991
 31
0.0
  0
LINE
  5
280
330
277
100
AcDbEntity
  8
0
  6
Continuous
 62
     7
370
     0
100
AcDbLine
 10
57.9224676117
 20
131.2171025991
 30
0.0
 11
57.9224676117
 21
156.1476587995
 31
0.0
  0
MTEXT
  5
281
330
277
100
AcDbEntity
  8
0
  6
Continuous
 62
     7
370
    18
100
AcDbMText
 10
53.4107306971
 20
144.5101583123
 30
0.0
 40
3.5
 41
0.0
 71
     1
 72
     1
  1
5.500
  7
SLDTEXTSTYLE1
 11
6.123233995736766E-17
 21
1.0
 31
0.0
 73
     1
 44
1.0
  0
ENDBLK
  5
279
330
277
100
AcDbEntity
  8
0
100
AcDbBlockEnd
  0
BLOCK
  5
285
330
284
100
AcDbEntity
  8
0
100
AcDbBlockBegin
  2
_D_27
 70
     0
 10
0.0
 20
0.0
 30
0.0
  3
_D_27
  1

  0
ARC
  5
287
330
284
100
AcDbEntity
  8
0
  6
Continuous
 62
     7
370
    18
100
AcDbCircle
 10
89.5143426161
 20
128.4671025991
 30
0.0
 40
1.124999999999992
100
AcDbArc
 50
93.3664606634
 51
138.3664606634
  0
INSERT
  5
288
330
284
100
AcDbEntity
  8
0
  6
Continuous
 62
     7
370
    18
100
AcDbBlockReference
  2
_Closed
 10
88.7188474873
 20
129.2625977279
 30
8.55
 41
6.0
 42
6.0
 50
315.0
  0
LINE
  5
289
330
284
100
AcDbEntity
  8
0
  6
Continuous
 62
     7
370
     0
100
AcDbLine
 10
88.7188474873
 20
129.2625977279
 30
0.0
 11
39.0653480673
 21
178.9160971479
 31
0.0
  0
LINE
  5
28A
330
284
100
AcDbEntity
  8
0
  6
Continuous
 62
     7
370
     0
100
AcDbLine
 10
88.7188474873
 20
129.2625977279
 30
0.0
 11
89.5143426161
 21
128.4671025991
 31
0.0
  0
MTEXT
  5
28B
330
284
100
AcDbEntity
  8
0
  6
Continuous
 62
     7
370
    18
100
AcDbMText
 10
42.2537894468
 20
182.1045385274
 30
0.0
 40
3.5
 41
0.0
 71
     1
 72
     1
  1
R2.250
  7
SLDTEXTSTYLE1
 11
0.7071067811865422
 21
-0.7071067811865528
 31
0.0
 73
     1
 44
1.0
  0
ENDBLK
  5
286
330
284
100
AcDbEntity
  8
0
100
AcDbBlockEnd
  0
BLOCK
  5
28E
330
28D
100
AcDbEntity
  8
0
100
AcDbBlockBegin
  2
_D_28
 70
     0
 10
0.0
 20
0.0
 30
0.0
  3
_D_28
  1

  0
INSERT
  5
290
330
28D
100
AcDbEntity
  8
0
  6
Continuous
 62
     7
370
    18
100
AcDbBlockReference
  2
_Closed
 10
88.7188474873
 20
120.4216074702
 30
8.55
 41
6.0
 42
6.0
 50
45.0
  0
LINE
  5
291
330
28D
100
AcDbEntity
  8
0
  6
Continuous
 62
     7
370
     0
100
AcDbLine
 10
88.7188474873
 20
120.4216074702
 30
0.0
 11
58.0957376779
 21
89.7984976609
 31
0.0
  0
LINE
  5
292
330
28D
100
AcDbEntity
  8
0
  6
Continuous
 62
     7
370
     0
100
AcDbLine
 10
88.7188474873
 20
120.4216074702
 30
0.0
 11
89.5143426161
 21
121.2171025991
 31
0.0
  0
MTEXT
  5
293
330
28D
100
AcDbEntity
  8
0
  6
Continuous
 62
     7
370
    18
100
AcDbMText
 10
54.910884077
 20
92.9833512618
 30
0.0
 40
3.5
 41
0.0
 71
     1
 72
     1
  1
R2.250
  7
SLDTEXTSTYLE1
 11
0.7071067811865426
 21
0.7071067811865526
 31
0.0
 73
     1
 44
1.0
  0
ENDBLK
  5
28F
330
28D
100
AcDbEntity
  8
0
100
AcDbBlockEnd
  0
BLOCK
  5
296
330
295
100
AcDbEntity
  8
0
100
AcDbBlockBegin
  2
_D_29
 70
     0
 10
0.0
 20
0.0
 30
0.0
  3
_D_29
  1

  0
INSERT
  5
298
330
295
100
AcDbEntity
  8
0
  6
Continuous
 62
     7
370
    18
100
AcDbBlockReference
  2
_Closed
 10
75.9224676117
 20
125.0921025991
 30
8.55
 41
6.0
 42
6.0
 50
90.0
  0
INSERT
  5
299
330
295
100
AcDbEntity
  8
0
  6
Continuous
 62
     7
370
    18
100
AcDbBlockReference
  2
_Closed
 10
75.9224676117
 20
127.3421025991
 30
8.55
 41
6.0
 42
6.0
 50
270.0
  0
LINE
  5
29A
330
295
100
AcDbEntity
  8
0
  6
Continuous
 62
     7
370
     0
100
AcDbLine
 10
88.5143426161
 20
125.0921025991
 30
0.0
 11
74.9224676117
 21
125.0921025991
 31
0.0
  0
LINE
  5
29B
330
295
100
AcDbEntity
  8
0
  6
Continuous
 62
     7
370
     0
100
AcDbLine
 10
88.5143426161
 20
127.3421025991
 30
0.0
 11
74.9224676117
 21
127.3421025991
 31
0.0
  0
LINE
  5
29C
330
295
100
AcDbEntity
  8
0
  6
Continuous
 62
     7
370
     0
100
AcDbLine
 10
75.9224676117
 20
125.0921025991
 30
0.0
 11
75.9224676117
 21
113.0921025991
 31
0.0
  0
LINE
  5
29D
330
295
100
AcDbEntity
  8
0
  6
Continuous
 62
     7
370
     0
100
AcDbLine
 10
75.9224676117
 20
125.0921025991
 30
0.0
 11
75.9224676117
 21
127.3421025991
 31
0.0
  0
LINE
  5
29E
330
295
100
AcDbEntity
  8
0
  6
Continuous
 62
     7
370
     0
100
AcDbLine
 10
75.9224676117
 20
127.3421025991
 30
0.0
 11
75.9224676117
 21
152.2726587995
 31
0.0
  0
MTEXT
  5
29F
330
295
100
AcDbEntity
  8
0
  6
Continuous
 62
     7
370
    18
100
AcDbMText
 10
71.4107306971
 20
140.6351583123
 30
0.0
 40
3.5
 41
0.0
 71
     1
 72
     1
  1
4.500
  7
SLDTEXTSTYLE1
 11
-3.828568698926949E-16
 21
1.0
 31
0.0
 73
     1
 44
1.0
  0
ENDBLK
  5
297
330
295
100
AcDbEntity
  8
0
100
AcDbBlockEnd
  0
BLOCK
  5
2A2
330
2A1
100
AcDbEntity
  8
0
100
AcDbBlockBegin
  2
_D_30
 70
     0
 10
0.0
 20
0.0
 30
0.0
  3
_D_30
  1

  0
INSERT
  5
2A4
330
2A1
100
AcDbEntity
  8
0
  6
Continuous
 62
     7
370
    18
100
AcDbBlockReference
  2
_Closed
 10
67.1443426161
 20
131.2171025991
 30
8.55
 41
6.0
 42
6.0
 50
90.0
  0
INSERT
  5
2A5
330
2A1
100
AcDbEntity
  8
0
  6
Continuous
 62
     7
370
    18
100
AcDbBlockReference
  2
_Closed
 10
67.1443426161
 20
133.8421025991
 30
8.55
 41
6.0
 42
6.0
 50
270.0
  0
LINE
  5
2A6
330
2A1
100
AcDbEntity
  8
0
  6
Continuous
 62
     7
370
     0
100
AcDbLine
 10
87.3893426161
 20
131.2171025991
 30
0.0
 11
66.1443426161
 21
131.2171025991
 31
0.0
  0
LINE
  5
2A7
330
2A1
100
AcDbEntity
  8
0
  6
Continuous
 62
     7
370
     0
100
AcDbLine
 10
82.1443426161
 20
133.8421025991
 30
0.0
 11
66.1443426161
 21
133.8421025991
 31
0.0
  0
LINE
  5
2A8
330
2A1
100
AcDbEntity
  8
0
  6
Continuous
 62
     7
370
     0
100
AcDbLine
 10
67.1443426161
 20
131.2171025991
 30
0.0
 11
67.1443426161
 21
119.2171025991
 31
0.0
  0
LINE
  5
2A9
330
2A1
100
AcDbEntity
  8
0
  6
Continuous
 62
     7
370
     0
100
AcDbLine
 10
67.1443426161
 20
131.2171025991
 30
0.0
 11
67.1443426161
 21
133.8421025991
 31
0.0
  0
LINE
  5
2AA
330
2A1
100
AcDbEntity
  8
0
  6
Continuous
 62
     7
370
     0
100
AcDbLine
 10
67.1443426161
 20
133.8421025991
 30
0.0
 11
67.1443426161
 21
158.7726587995
 31
0.0
  0
MTEXT
  5
2AB
330
2A1
100
AcDbEntity
  8
0
  6
Continuous
 62
     7
370
    18
100
AcDbMText
 10
62.6326057016
 20
147.1351583123
 30
0.0
 40
3.5
 41
0.0
 71
     1
 72
     1
  1
5.250
  7
SLDTEXTSTYLE1
 11
6.123233995736766E-17
 21
1.0
 31
0.0
 73
     1
 44
1.0
  0
ENDBLK
  5
2A3
330
2A1
100
AcDbEntity
  8
0
100
AcDbBlockEnd
  0
BLOCK
  5
2AE
330
2AD
100
AcDbEntity
  8
0
100
AcDbBlockBegin
  2
_D_31
 70
     0
 10
0.0
 20
0.0
 30
0.0
  3
_D_31
  1

  0
INSERT
  5
2B0
330
2AD
100
AcDbEntity
  8
0
  6
Continuous
 62
     7
370
    18
100
AcDbBlockReference
  2
_Closed
 10
86.5585561785
 20
130.4278890367
 30
8.55
 41
6.0
 42
6.0
 50
135.007230372
  0
LINE
  5
2B1
330
2AD
100
AcDbEntity
  8
0
  6
Continuous
 62
     7
370
     0
100
AcDbLine
 10
86.5585561785
 20
130.4278890367
 30
0.0
 11
53.2879464525
 21
163.690102733
 31
0.0
  0
LINE
  5
2B2
330
2AD
100
AcDbEntity
  8
0
  6
Continuous
 62
     7
370
     0
100
AcDbLine
 10
86.5585561785
 20
130.4278890367
 30
0.0
 11
95.0449082751
 21
121.9436785199
 31
0.0
  0
MTEXT
  5
2B3
330
2AD
100
AcDbEntity
  8
0
  6
Continuous
 62
     7
370
    18
100
AcDbMText
 10
56.4782262197
 20
166.8803825002
 30
0.0
 40
3.5
 41
0.0
 71
     1
 72
     1
  1
R4
  7
SLDTEXTSTYLE1
 11
0.7071067811865422
 21
-0.7071067811865528
 31
0.0
 73
     1
 44
1.0
  0
ENDBLK
  5
2AF
330
2AD
100
AcDbEntity
  8
0
100
AcDbBlockEnd
  0
BLOCK
  5
2CE
330
2CD
100
AcDbEntity
  8
0
100
AcDbBlockBegin
  2
_D_32
 70
     0
 10
0.0
 20
0.0
 30
0.0
  3
_D_32
  1

  0
ARC
  5
2D0
330
2CD
100
AcDbEntity
  8
0
  6
Continuous
 62
     7
370
    18
100
AcDbCircle
 10
178.2175349495
 20
214.5391614122
 30
0.0
 40
16.07720404112604
100
AcDbArc
 50
0.0
 51
90.0
  0
INSERT
  5
2D1
330
2CD
100
AcDbEntity
  8
0
  6
Continuous
 62
     7
370
    18
100
AcDbBlockReference
  2
_Closed
 10
178.2175349495
 20
230.6163654533
 30
8.58
 41
6.0
 42
6.0
 50
169.7672324728
  0
INSERT
  5
2D2
330
2CD
100
AcDbEntity
  8
0
  6
Continuous
 62
     7
370
    18
100
AcDbBlockReference
  2
_Closed
 10
194.2947389906
 20
214.5391614122
 30
8.58
 41
6.0
 42
6.0
 50
280.2327675272
  0
LINE
  5
2D3
330
2CD
100
AcDbEntity
  8
0
  6
Continuous
 62
     7
370
     0
100
AcDbLine
 10
178.2175349495
 20
215.9074614122
 30
0.0
 11
178.2175349495
 21
231.6163654533
 31
0.0
  0
LINE
  5
2D4
330
2CD
100
AcDbEntity
  8
0
  6
Continuous
 62
     7
370
     0
100
AcDbLine
 10
179.5858349495
 20
214.5391614122
 30
0.0
 11
195.2947389906
 21
214.5391614122
 31
0.0
  0
MTEXT
  5
2D5
330
2CD
100
AcDbEntity
  8
0
  6
Continuous
 62
     7
370
    18
100
AcDbMText
 10
190.2874916493
 20
231.5863642468
 30
0.0
 40
3.5
 41
0.0
 71
     1
 72
     1
  1
90°
  7
SLDTEXTSTYLE1
 11
0.7071067811865556
 21
-0.7071067811865395
 31
0.0
 73
     1
 44
1.0
  0
ENDBLK
  5
2CF
330
2CD
100
AcDbEntity
  8
0
100
AcDbBlockEnd
  0
BLOCK
  5
2F6
330
2F5
100
AcDbEntity
  8
0
100
AcDbBlockBegin
  2
SW_CENTERMARKSYMBOL_3
 70
     0
 10
0.0
 20
0.0
 30
0.0
  3
SW_CENTERMARKSYMBOL_3
  1

  0
LINE
  5
2F8
330
2F5
100
AcDbEntity
  8
0
  6
Continuous
 62
     0
370
    18
100
AcDbLine
 10
0.0
 20
0.0
 30
0.0
 11
0.0
 21
1.25
 31
0.0
  0
LINE
  5
2F9
330
2F5
100
AcDbEntity
  8
0
  6
Continuous
 62
     0
370
    18
100
AcDbLine
 10
0.0
 20
0.0
 30
0.0
 11
-1.25
 21
0.0
 31
0.0
  0
LINE
  5
2FA
330
2F5
100
AcDbEntity
  8
0
  6
Continuous
 62
     0
370
    18
100
AcDbLine
 10
0.0
 20
0.0
 30
0.0
 11
0.0
 21
-1.25
 31
0.0
  0
LINE
  5
2FB
330
2F5
100
AcDbEntity
  8
0
  6
Continuous
 62
     0
370
    18
100
AcDbLine
 10
0.0
 20
0.0
 30
0.0
 11
1.25
 21
0.0
 31
0.0
  0
LINE
  5
2FC
330
2F5
100
AcDbEntity
  8
0
  6
Continuous
 62
     0
370
    18
100
AcDbLine
 10
0.0
 20
1.25
 30
0.0
 11
0.0
 21
2.075
 31
0.0
  0
LINE
  5
2FD
330
2F5
100
AcDbEntity
  8
0
  6
Continuous
 62
     0
370
    18
100
AcDbLine
 10
-1.25
 20
0.0
 30
0.0
 11
-2.075
 21
0.0
 31
0.0
  0
LINE
  5
2FE
330
2F5
100
AcDbEntity
  8
0
  6
Continuous
 62
     0
370
    18
100
AcDbLine
 10
0.0
 20
-1.25
 30
0.0
 11
0.0
 21
-2.075
 31
0.0
  0
LINE
  5
2FF
330
2F5
100
AcDbEntity
  8
0
  6
Continuous
 62
     0
370
    18
100
AcDbLine
 10
1.25
 20
0.0
 30
0.0
 11
2.075
 21
0.0
 31
0.0
  0
ENDBLK
  5
2F7
330
2F5
100
AcDbEntity
  8
0
100
AcDbBlockEnd
  0
BLOCK
  5
302
330
301
100
AcDbEntity
  8
0
100
AcDbBlockBegin
  2
SW_CENTERMARKSYMBOL_4
 70
     0
 10
0.0
 20
0.0
 30
0.0
  3
SW_CENTERMARKSYMBOL_4
  1

  0
LINE
  5
304
330
301
100
AcDbEntity
  8
0
  6
Continuous
 62
     0
370
    18
100
AcDbLine
 10
0.0
 20
0.0
 30
0.0
 11
0.0
 21
1.25
 31
0.0
  0
LINE
  5
305
330
301
100
AcDbEntity
  8
0
  6
Continuous
 62
     0
370
    18
100
AcDbLine
 10
0.0
 20
0.0
 30
0.0
 11
-1.25
 21
0.0
 31
0.0
  0
LINE
  5
306
330
301
100
AcDbEntity
  8
0
  6
Continuous
 62
     0
370
    18
100
AcDbLine
 10
0.0
 20
0.0
 30
0.0
 11
0.0
 21
-1.25
 31
0.0
  0
LINE
  5
307
330
301
100
AcDbEntity
  8
0
  6
Continuous
 62
     0
370
    18
100
AcDbLine
 10
0.0
 20
0.0
 30
0.0
 11
1.25
 21
0.0
 31
0.0
  0
LINE
  5
308
330
301
100
AcDbEntity
  8
0
  6
Continuous
 62
     0
370
    18
100
AcDbLine
 10
0.0
 20
1.25
 30
0.0
 11
0.0
 21
2.075
 31
0.0
  0
LINE
  5
309
330
301
100
AcDbEntity
  8
0
  6
Continuous
 62
     0
370
    18
100
AcDbLine
 10
-1.25
 20
0.0
 30
0.0
 11
-2.075
 21
0.0
 31
0.0
  0
LINE
  5
30A
330
301
100
AcDbEntity
  8
0
  6
Continuous
 62
     0
370
    18
100
AcDbLine
 10
0.0
 20
-1.25
 30
0.0
 11
0.0
 21
-2.075
 31
0.0
  0
LINE
  5
30B
330
301
100
AcDbEntity
  8
0
  6
Continuous
 62
     0
370
    18
100
AcDbLine
 10
1.25
 20
0.0
 30
0.0
 11
2.075
 21
0.0
 31
0.0
  0
ENDBLK
  5
303
330
301
100
AcDbEntity
  8
0
100
AcDbBlockEnd
  0
BLOCK
  5
30E
330
30D
100
AcDbEntity
  8
0
100
AcDbBlockBegin
  2
SW_CENTERMARKSYMBOL_5
 70
     0
 10
0.0
 20
0.0
 30
0.0
  3
SW_CENTERMARKSYMBOL_5
  1

  0
LINE
  5
310
330
30D
100
AcDbEntity
  8
0
  6
Continuous
 62
     0
370
    18
100
AcDbLine
 10
0.0
 20
0.0
 30
0.0
 11
0.0
 21
1.25
 31
0.0
  0
LINE
  5
311
330
30D
100
AcDbEntity
  8
0
  6
Continuous
 62
     0
370
    18
100
AcDbLine
 10
0.0
 20
0.0
 30
0.0
 11
-1.25
 21
0.0
 31
0.0
  0
LINE
  5
312
330
30D
100
AcDbEntity
  8
0
  6
Continuous
 62
     0
370
    18
100
AcDbLine
 10
0.0
 20
0.0
 30
0.0
 11
0.0
 21
-1.25
 31
0.0
  0
LINE
  5
313
330
30D
100
AcDbEntity
  8
0
  6
Continuous
 62
     0
370
    18
100
AcDbLine
 10
0.0
 20
0.0
 30
0.0
 11
1.25
 21
0.0
 31
0.0
  0
LINE
  5
314
330
30D
100
AcDbEntity
  8
0
  6
Continuous
 62
     0
370
    18
100
AcDbLine
 10
0.0
 20
2.5
 30
0.0
 11
0.0
 21
5.05
 31
0.0
  0
LINE
  5
315
330
30D
100
AcDbEntity
  8
0
  6
Continuous
 62
     0
370
    18
100
AcDbLine
 10
-2.5
 20
0.0
 30
0.0
 11
-5.05
 21
0.0
 31
0.0
  0
LINE
  5
316
330
30D
100
AcDbEntity
  8
0
  6
Continuous
 62
     0
370
    18
100
AcDbLine
 10
0.0
 20
-2.5
 30
0.0
 11
0.0
 21
-5.05
 31
0.0
  0
LINE
  5
317
330
30D
100
AcDbEntity
  8
0
  6
Continuous
 62
     0
370
    18
100
AcDbLine
 10
2.5
 20
0.0
 30
0.0
 11
5.05
 21
0.0
 31
0.0
  0
ENDBLK
  5
30F
330
30D
100
AcDbEntity
  8
0
100
AcDbBlockEnd
  0
ENDSEC
  0
SECTION
  2
ENTITIES
  0
LINE
  5
6C
330
1F
100
AcDbEntity
  8
0
  6
Continuous
 62
     5
370
    18
100
AcDbLine
 10
0.0
 20
0.0
 30
0.0
 11
0.0
 21
297.0
 31
0.0
  0
LINE
  5
6D
330
1F
100
AcDbEntity
  8
0
  6
Continuous
 62
     7
370
    18
100
AcDbLine
 10
0.0
 20
297.0
 30
0.0
 11
210.0
 21
297.0
 31
0.0
  0
LINE
  5
6E
330
1F
100
AcDbEntity
  8
0
  6
Continuous
 62
     5
370
    18
100
AcDbLine
 10
210.0
 20
297.0
 30
0.0
 11
210.0
 21
0.0
 31
0.0
  0
LINE
  5
6F
330
1F
100
AcDbEntity
  8
0
  6
Continuous
 62
     7
370
    18
100
AcDbLine
 10
210.0
 20
0.0
 30
0.0
 11
0.0
 21
0.0
 31
0.0
  0
LINE
  5
70
330
1F
100
AcDbEntity
  8
0
  6
Continuous
 62
     7
370
    25
100
AcDbLine
 10
25.0
 20
4.6925145833
 30
0.0
 11
25.0
 21
292.0
 31
0.0
  0
LINE
  5
71
330
1F
100
AcDbEntity
  8
0
  6
Continuous
 62
     7
370
    25
100
AcDbLine
 10
25.0
 20
292.0
 30
0.0
 11
205.0
 21
292.0
 31
0.0
  0
LINE
  5
72
330
1F
100
AcDbEntity
  8
0
  6
Continuous
 62
     7
370
    25
100
AcDbLine
 10
205.0
 20
292.0
 30
0.0
 11
205.0
 21
4.6925145833
 31
0.0
  0
LINE
  5
73
330
1F
100
AcDbEntity
  8
0
  6
Continuous
 62
     7
370
    25
100
AcDbLine
 10
155.0
 20
4.6925145833
 30
0.0
 11
155.0
 21
60.6925145833
 31
0.0
  0
LINE
  5
74
330
1F
100
AcDbEntity
  8
0
  6
Continuous
 62
     7
370
    18
100
AcDbLine
 10
205.0
 20
98.9794990886
 30
0.0
 11
210.0
 21
98.9794990886
 31
0.0
  0
LINE
  5
75
330
1F
100
AcDbEntity
  8
0
  6
Continuous
 62
     7
370
    25
100
AcDbLine
 10
105.0
 20
297.0
 30
0.0
 11
105.0
 21
291.8033375927
 31
0.0
  0
LINE
  5
76
330
1F
100
AcDbEntity
  8
0
  6
Continuous
 62
     7
370
    18
100
AcDbLine
 10
157.5
 20
297.0
 30
0.0
 11
157.5
 21
292.0
 31
0.0
  0
LINE
  5
77
330
1F
100
AcDbEntity
  8
0
  6
Continuous
 62
     7
370
    18
100
AcDbLine
 10
52.5
 20
297.0
 30
0.0
 11
52.5
 21
292.0
 31
0.0
  0
LINE
  5
78
330
1F
100
AcDbEntity
  8
0
  6
Continuous
 62
     7
370
    25
100
AcDbLine
 10
105.0
 20
4.6925145833
 30
0.0
 11
105.0
 21
0.0
 31
0.0
  0
LINE
  5
79
330
1F
100
AcDbEntity
  8
0
  6
Continuous
 62
     7
370
    18
100
AcDbLine
 10
157.5
 20
4.6925145833
 30
0.0
 11
157.5
 21
0.0
 31
0.0
  0
LINE
  5
7A
330
1F
100
AcDbEntity
  8
0
  6
Continuous
 62
     7
370
    18
100
AcDbLine
 10
52.5
 20
4.6925145833
 30
0.0
 11
52.5
 21
0.0
 31
0.0
  0
LINE
  5
7B
330
1F
100
AcDbEntity
  8
0
  6
Continuous
 62
     7
370
    25
100
AcDbLine
 10
0.0
 20
148.5
 30
0.0
 11
25.0
 21
148.5
 31
0.0
  0
LINE
  5
7C
330
1F
100
AcDbEntity
  8
0
  6
Continuous
 62
     7
370
    25
100
AcDbLine
 10
204.3253812335
 20
148.5
 30
0.0
 11
210.0
 21
148.5
 31
0.0
  0
LINE
  5
7D
330
1F
100
AcDbEntity
  8
0
  6
Continuous
 62
     7
370
    18
100
AcDbLine
 10
205.0
 20
198.0
 30
0.0
 11
210.0
 21
198.0
 31
0.0
  0
LINE
  5
7E
330
1F
100
AcDbEntity
  8
0
  6
Continuous
 62
     7
370
    18
100
AcDbLine
 10
205.0
 20
247.5
 30
0.0
 11
210.0
 21
247.5
 31
0.0
  0
LINE
  5
7F
330
1F
100
AcDbEntity
  8
0
  6
Continuous
 62
     7
370
    25
100
AcDbLine
 10
25.0
 20
283.8237495626
 30
0.0
 11
68.9408067877
 21
283.8237495626
 31
0.0
  0
LINE
  5
80
330
1F
100
AcDbEntity
  8
0
  6
Continuous
 62
     7
370
    18
100
AcDbLine
 10
205.0
 20
49.5
 30
0.0
 11
210.0
 21
49.5
 31
0.0
  0
LINE
  5
81
330
1F
100
AcDbEntity
  8
0
  6
Continuous
 62
     7
370
    25
100
AcDbLine
 10
155.0
 20
43.6925145833
 30
0.0
 11
205.0
 21
43.6925145833
 31
0.0
  0
LINE
  5
82
330
1F
100
AcDbEntity
  8
0
  6
Continuous
 62
     7
370
    18
100
AcDbLine
 10
25.0
 20
100.6382367435
 30
0.0
 11
0.0
 21
100.6382367435
 31
0.0
  0
LINE
  5
83
330
1F
100
AcDbEntity
  8
0
  6
Continuous
 62
     7
370
    18
100
AcDbLine
 10
25.0
 20
49.0777644979
 30
0.0
 11
0.0
 21
49.0777644979
 31
0.0
  0
LINE
  5
84
330
1F
100
AcDbEntity
  8
0
  6
Continuous
 62
     7
370
    18
100
AcDbLine
 10
25.0
 20
247.5228980886
 30
0.0
 11
0.0
 21
247.5228980886
 31
0.0
  0
LINE
  5
85
330
1F
100
AcDbEntity
  8
0
  6
Continuous
 62
     7
370
    18
100
AcDbLine
 10
25.0
 20
198.2049027205
 30
0.0
 11
0.0
 21
198.2049027205
 31
0.0
  0
LINE
  5
86
330
1F
100
AcDbEntity
  8
0
  6
Continuous
 62
     7
370
    25
100
AcDbLine
 10
68.9408067877
 20
283.8237495626
 30
0.0
 11
68.9408067877
 21
292.0
 31
0.0
  0
LINE
  5
87
330
1F
100
AcDbEntity
  8
0
  6
Continuous
 62
     7
370
    18
100
AcDbLine
 10
0.0
 20
285.2717390901
 30
0.0
 11
25.0
 21
285.2717390901
 31
0.0
  0
LINE
  5
88
330
1F
100
AcDbEntity
  8
0
  6
Continuous
 62
     7
370
    25
100
AcDbLine
 10
45.0
 20
32.6925145833
 30
0.0
 11
45.0
 21
60.6925145833
 31
0.0
  0
LINE
  5
89
330
1F
100
AcDbEntity
  8
0
  6
Continuous
 62
     7
370
    25
100
AcDbLine
 10
61.0
 20
32.6925145833
 30
0.0
 11
61.0
 21
60.6925145833
 31
0.0
  0
LINE
  5
8A
330
1F
100
AcDbEntity
  8
0
  6
Continuous
 62
     7
370
    25
100
AcDbLine
 10
89.0
 20
4.6925145833
 30
0.0
 11
89.0
 21
32.6925145833
 31
0.0
  0
LINE
  5
8B
330
1F
100
AcDbEntity
  8
0
  6
Continuous
 62
     7
370
    18
100
AcDbLine
 10
118.0
 20
22.6925145833
 30
0.0
 11
118.0
 21
13.6925145833
 31
0.0
  0
LINE
  5
8C
330
1F
100
AcDbEntity
  8
0
  6
Continuous
 62
     7
370
    25
100
AcDbLine
 10
77.0
 20
4.6925145833
 30
0.0
 11
77.0
 21
32.6925145833
 31
0.0
  0
LINE
  5
8D
330
1F
100
AcDbEntity
  8
0
  6
Continuous
 62
     7
370
    25
100
AcDbLine
 10
155.0
 20
25.6925145833
 30
0.0
 11
205.0
 21
25.6925145833
 31
0.0
  0
LINE
  5
8E
330
1F
100
AcDbEntity
  8
0
  6
Continuous
 62
     7
370
    25
100
AcDbLine
 10
105.0
 20
22.6925145833
 30
0.0
 11
155.0000000003
 21
22.6925145833
 31
0.0
  0
LINE
  5
8F
330
1F
100
AcDbEntity
  8
0
  6
Continuous
 62
     7
370
    18
100
AcDbLine
 10
124.5
 20
22.6925145833
 30
0.0
 11
124.5
 21
13.6925145833
 31
0.0
  0
LINE
  5
90
330
1F
100
AcDbEntity
  8
0
  6
Continuous
 62
     7
370
    18
100
AcDbLine
 10
111.5
 20
22.6925145833
 30
0.0
 11
111.5
 21
13.6925145833
 31
0.0
  0
LINE
  5
91
330
1F
100
AcDbEntity
  8
0
  6
Continuous
 62
     7
370
    25
100
AcDbLine
 10
105.0
 20
13.6925145833
 30
0.0
 11
155.0
 21
13.6925145833
 31
0.0
  0
LINE
  5
92
330
1F
100
AcDbEntity
  8
0
  6
Continuous
 62
     7
370
    25
100
AcDbLine
 10
35.0
 20
32.6925145833
 30
0.0
 11
35.0
 21
60.6925145833
 31
0.0
  0
LINE
  5
93
330
1F
100
AcDbEntity
  8
0
  6
Continuous
 62
     7
370
    25
100
AcDbLine
 10
77.0
 20
32.6925145833
 30
0.0
 11
77.0
 21
60.6925145833
 31
0.0
  0
LINE
  5
94
330
1F
100
AcDbEntity
  8
0
  6
Continuous
 62
     7
370
    25
100
AcDbLine
 10
89.0
 20
32.6925145833
 30
0.0
 11
89.0
 21
60.6925145833
 31
0.0
  0
LINE
  5
95
330
1F
100
AcDbEntity
  8
0
  6
Continuous
 62
     7
370
    25
100
AcDbLine
 10
65.0
 20
4.6925145833
 30
0.0
 11
65.0
 21
32.6925145833
 31
0.0
  0
LINE
  5
96
330
1F
100
AcDbEntity
  8
0
  6
Continuous
 62
     7
370
    25
100
AcDbLine
 10
49.0
 20
4.6925145833
 30
0.0
 11
49.0
 21
32.6925145833
 31
0.0
  0
LINE
  5
97
330
1F
100
AcDbEntity
  8
0
  6
Continuous
 62
     7
370
    25
100
AcDbLine
 10
25.0
 20
39.6925145833
 30
0.0
 11
105.0
 21
39.6925145833
 31
0.0
  0
LINE
  5
98
330
1F
100
AcDbEntity
  8
0
  6
Continuous
 62
     7
370
    25
100
AcDbLine
 10
37.0
 20
4.6925145833
 30
0.0
 11
37.0
 21
32.6925145833
 31
0.0
  0
LINE
  5
99
330
1F
100
AcDbEntity
  8
0
  6
Continuous
 62
     7
370
    25
100
AcDbLine
 10
131.0
 20
13.6925145833
 30
0.0
 11
131.0
 21
32.6926085594
 31
0.0
  0
LINE
  5
9A
330
1F
100
AcDbEntity
  8
0
  6
Continuous
 62
     7
370
    25
100
AcDbLine
 10
143.0
 20
13.6925241459
 30
0.0
 11
143.0
 21
32.692651933
 31
0.0
  0
LINE
  5
9B
330
1F
100
AcDbEntity
  8
0
  6
Continuous
 62
     7
370
    18
100
AcDbLine
 10
155.0
 20
13.6925145833
 30
0.0
 11
205.0
 21
13.6925145833
 31
0.0
  0
LINE
  5
9C
330
1F
100
AcDbEntity
  8
图形符号
100
AcDbLine
 10
178.3724695283
 20
11.0781017003
 30
0.0
 11
178.3724695283
 21
8.0781017003
 31
0.0
  0
LINE
  5
9D
330
1F
100
AcDbEntity
  8
图形符号
100
AcDbLine
 10
178.3724695283
 20
8.0781017003
 30
0.0
 11
171.8724695283
 21
6.5781017003
 31
0.0
  0
LINE
  5
9E
330
1F
100
AcDbEntity
  8
图形符号
100
AcDbLine
 10
171.8724695283
 20
6.5781017003
 30
0.0
 11
171.8724695283
 21
12.5781017003
 31
0.0
  0
LINE
  5
9F
330
1F
100
AcDbEntity
  8
图形符号
100
AcDbLine
 10
171.8724695283
 20
12.5781017003
 30
0.0
 11
178.3724695283
 21
11.0781017003
 31
0.0
  0
LINE
  5
A0
330
1F
100
AcDbEntity
  8
图形符号
100
AcDbLine
 10
169.490199317
 20
9.5781017003
 30
0.0
 11
190.0447361028
 21
9.5781017003
 31
0.0
  0
LINE
  5
A1
330
1F
100
AcDbEntity
  8
图形符号
100
AcDbLine
 10
185.5745762884
 20
13.3763559671
 30
0.0
 11
185.5745762884
 21
5.7565177335
 31
0.0
  0
LINE
  5
A2
330
1F
100
AcDbEntity
  8
0
  6
Continuous
 62
     7
370
    25
100
AcDbLine
 10
105.0
 20
32.6925145833
 30
0.0
 11
155.0
 21
32.6926953065
 31
0.0
  0
LINE
  5
A3
330
1F
100
AcDbEntity
  8
0
  6
Continuous
 62
     7
370
    25
100
AcDbLine
 10
25.0
 20
4.6925145833
 30
0.0
 11
205.0
 21
4.6925145833
 31
0.0
  0
LINE
  5
A4
330
1F
100
AcDbEntity
  8
0
  6
Continuous
 62
     7
370
    25
100
AcDbLine
 10
25.0
 20
60.6925145833
 30
0.0
 11
205.0
 21
60.6925145833
 31
0.0
  0
LINE
  5
A5
330
1F
100
AcDbEntity
  8
0
  6
Continuous
 62
     7
370
    25
100
AcDbLine
 10
25.0
 20
32.6925145833
 30
0.0
 11
105.0
 21
32.6925145833
 31
0.0
  0
LINE
  5
A6
330
1F
100
AcDbEntity
  8
0
  6
Continuous
 62
     7
370
    18
100
AcDbLine
 10
105.0
 20
53.6925145833
 30
0.0
 11
25.0000007607
 21
53.6925145833
 31
0.0
  0
LINE
  5
A7
330
1F
100
AcDbEntity
  8
0
  6
Continuous
 62
     7
370
    18
100
AcDbLine
 10
25.0000007607
 20
11.6925145833
 30
0.0
 11
105.0
 21
11.6925145833
 31
0.0
  0
LINE
  5
A8
330
1F
100
AcDbEntity
  8
0
  6
Continuous
 62
     7
370
    18
100
AcDbLine
 10
25.0000007607
 20
18.6925145833
 30
0.0
 11
105.0
 21
18.6925145833
 31
0.0
  0
LINE
  5
A9
330
1F
100
AcDbEntity
  8
0
  6
Continuous
 62
     7
370
    18
100
AcDbLine
 10
25.0
 20
25.6925145833
 30
0.0
 11
105.0
 21
25.6925145833
 31
0.0
  0
LINE
  5
AA
330
1F
100
AcDbEntity
  8
0
  6
Continuous
 62
     7
370
    18
100
AcDbLine
 10
25.0000007607
 20
46.6925145833
 30
0.0
 11
105.0
 21
46.6925145833
 31
0.0
  0
LINE
  5
AB
330
1F
100
AcDbEntity
  8
0
  6
Continuous
 62
     7
370
    25
100
AcDbLine
 10
105.0
 20
4.6925145833
 30
0.0
 11
105.0
 21
60.6925145833
 31
0.0
  0
CIRCLE
  5
AC
330
1F
100
AcDbEntity
  8
图形符号
100
AcDbCircle
 10
185.5745762884
 20
9.5781017003
 30
0.0
 40
1.500000000000068
  0
CIRCLE
  5
AD
330
1F
100
AcDbEntity
  8
图形符号
100
AcDbCircle
 10
185.5745762884
 20
9.5781017003
 30
0.0
 40
2.999999999999927
  0
POINT
  5
AE
330
1F
100
AcDbEntity
  8
0
  6
Continuous
 62
     7
370
     0
100
AcDbPoint
 10
205.0
 20
60.69251458
 30
0.0
  0
MTEXT
  5
B0
330
1F
100
AcDbEntity
  8
0
  6
Continuous
 62
     7
370
     0
100
AcDbMText
 10
90.5212790979
 20
38.3717239038
 30
0.0
 40
3.0
 41
0.0
 71
     1
 72
     1
  1
\U+5E74\U+3001\U+6708\U+3001\U+65E5
  7
SLDTEXTSTYLE0
 73
     1
 44
1.0
  0
MTEXT
  5
B1
330
1F
100
AcDbEntity
  8
0
  6
Continuous
 62
     7
370
     0
100
AcDbMText
 10
80.3050003052
 20
38.3717239038
 30
0.0
 40
3.0
 41
0.0
 71
     1
 72
     1
  1
签\U+540D
  7
SLDTEXTSTYLE0
 73
     1
 44
1.0
  0
MTEXT
  5
B2
330
1F
100
AcDbEntity
  8
0
  6
Continuous
 62
     7
370
     0
100
AcDbMText
 10
27.1243911592
 20
38.3717239038
 30
0.0
 40
3.0
 41
0.0
 71
     1
 72
     1
  1
标记
  7
SLDTEXTSTYLE0
 73
     1
 44
1.0
  0
MTEXT
  5
B3
330
1F
100
AcDbEntity
  8
0
  6
Continuous
 62
     7
370
     0
100
AcDbMText
 10
28.3818670385
 20
30.5476644348
 30
0.0
 40
3.0
 41
0.0
 71
     1
 72
     1
  1
设计
  7
SLDTEXTSTYLE0
 73
     1
 44
1.0
  0
MTEXT
  5
B4
330
1F
100
AcDbEntity
  8
0
  6
Continuous
 62
     7
370
     0
100
AcDbMText
 10
36.9296098843
 20
38.3717239038
 30
0.0
 40
3.0
 41
0.0
 71
     1
 72
     1
  1
处\U+6570
  7
SLDTEXTSTYLE0
 73
     1
 44
1.0
  0
MTEXT
  5
B5
330
1F
100
AcDbEntity
  8
0
  6
Continuous
 62
     7
370
     0
100
AcDbMText
 10
61.4132024076
 20
38.3717239038
 30
0.0
 40
3.0
 41
0.0
 71
     1
 72
     1
  1
\U+66F4\U+6539\U+6587\U+4EF6\U+53F7
  7
SLDTEXTSTYLE0
 73
     1
 44
1.0
  0
MTEXT
  5
B6
330
1F
100
AcDbEntity
  8
0
  6
Continuous
 62
     7
370
     0
100
AcDbMText
 10
28.4568669111
 20
16.960254024
 30
0.0
 40
3.0
 41
0.0
 71
     1
 72
     1
  1
审\U+6838
  7
SLDTEXTSTYLE0
 73
     1
 44
1.0
  0
MTEXT
  5
B8
330
1F
100
AcDbEntity
  8
0
  6
Continuous
 62
     7
370
     0
100
AcDbMText
 10
27.4898071267
 20
296.6284295306
 30
0.0
 40
3.5
 41
0.0
 71
     1
 72
     1
  1
1
  7
SLDTEXTSTYLE1
 73
     1
 44
1.0
  0
MTEXT
  5
B9
330
1F
100
AcDbEntity
  8
0
  6
Continuous
 62
     7
370
     0
100
AcDbMText
 10
78.2621938907
 20
296.6284295306
 30
0.0
 40
3.5
 41
0.0
 71
     1
 72
     1
  1
2
  7
SLDTEXTSTYLE1
 73
     1
 44
1.0
  0
MTEXT
  5
BA
330
1F
100
AcDbEntity
  8
0
  6
Continuous
 62
     7
370
     0
100
AcDbMText
 10
130.3451043697
 20
296.6284295306
 30
0.0
 40
3.5
 41
0.0
 71
     1
 72
     1
  1
3
  7
SLDTEXTSTYLE1
 73
     1
 44
1.0
  0
MTEXT
  5
BB
330
1F
100
AcDbEntity
  8
0
  6
Continuous
 62
     7
370
     0
100
AcDbMText
 10
182.3629620444
 20
296.6284295306
 30
0.0
 40
3.5
 41
0.0
 71
     1
 72
     1
  1
4
  7
SLDTEXTSTYLE1
 73
     1
 44
1.0
  0
MTEXT
  5
BC
330
1F
100
AcDbEntity
  8
0
  6
Continuous
 62
     7
370
     0
100
AcDbMText
 10
25.0991793684
 20
3.9475307355
 30
0.0
 40
3.5
 41
0.0
 71
     1
 72
     1
  1
1
  7
SLDTEXTSTYLE1
 73
     1
 44
1.0
  0
MTEXT
  5
BD
330
1F
100
AcDbEntity
  8
0
  6
Continuous
 62
     7
370
     0
100
AcDbMText
 10
183.844134388
 20
3.9475307355
 30
0.0
 40
3.5
 41
0.0
 71
     1
 72
     1
  1
4
  7
SLDTEXTSTYLE1
 73
     1
 44
1.0
  0
MTEXT
  5
BE
330
1F
100
AcDbEntity
  8
0
  6
Continuous
 62
     7
370
     0
100
AcDbMText
 10
131.8642809029
 20
3.9475307355
 30
0.0
 40
3.5
 41
0.0
 71
     1
 72
     1
  1
3
  7
SLDTEXTSTYLE1
 73
     1
 44
1.0
  0
MTEXT
  5
BF
330
1F
100
AcDbEntity
  8
0
  6
Continuous
 62
     7
370
     0
100
AcDbMText
 10
77.1764631044
 20
3.9475307355
 30
0.0
 40
3.5
 41
0.0
 71
     1
 72
     1
  1
2
  7
SLDTEXTSTYLE1
 73
     1
 44
1.0
  0
MTEXT
  5
C0
330
1F
100
AcDbEntity
  8
0
  6
Continuous
 62
     7
370
     0
100
AcDbMText
 10
206.5772476478
 20
25.6446669771
 30
0.0
 40
3.5
 41
0.0
 71
     1
 72
     1
  1
F
  7
SLDTEXTSTYLE1
 73
     1
 44
1.0
  0
MTEXT
  5
C1
330
1F
100
AcDbEntity
  8
0
  6
Continuous
 62
     7
370
     0
100
AcDbMText
 10
206.0690026934
 20
272.5260900185
 30
0.0
 40
3.5
 41
0.0
 71
     1
 72
     1
  1
A
  7
SLDTEXTSTYLE1
 73
     1
 44
1.0
  0
MTEXT
  5
C2
330
1F
100
AcDbEntity
  8
0
  6
Continuous
 62
     7
370
     0
100
AcDbMText
 10
206.4840200561
 20
224.4189125946
 30
0.0
 40
3.5
 41
0.0
 71
     1
 72
     1
  1
B
  7
SLDTEXTSTYLE1
 73
     1
 44
1.0
  0
MTEXT
  5
C3
330
1F
100
AcDbEntity
  8
0
  6
Continuous
 62
     7
370
     0
100
AcDbMText
 10
205.917396766
 20
173.2478486342
 30
0.0
 40
3.5
 41
0.0
 71
     1
 72
     1
  1
C
  7
SLDTEXTSTYLE1
 73
     1
 44
1.0
  0
MTEXT
  5
C4
330
1F
100
AcDbEntity
  8
0
  6
Continuous
 62
     7
370
     0
100
AcDbMText
 10
12.0480794213
 20
173.5757955109
 30
0.0
 40
3.5
 41
0.0
 71
     1
 72
     1
  1
C
  7
SLDTEXTSTYLE1
 73
     1
 44
1.0
  0
MTEXT
  5
C5
330
1F
100
AcDbEntity
  8
0
  6
Continuous
 62
     7
370
     0
100
AcDbMText
 10
12.0480794213
 20
74.4871003915
 30
0.0
 40
3.5
 41
0.0
 71
     1
 72
     1
  1
E
  7
SLDTEXTSTYLE1
 73
     1
 44
1.0
  0
MTEXT
  5
C6
330
1F
100
AcDbEntity
  8
0
  6
Continuous
 62
     7
370
     0
100
AcDbMText
 10
12.3365472382
 20
125.6681554338
 30
0.0
 40
3.5
 41
0.0
 71
     1
 72
     1
  1
D
  7
SLDTEXTSTYLE1
 73
     1
 44
1.0
  0
MTEXT
  5
C7
330
1F
100
AcDbEntity
  8
0
  6
Continuous
 62
     7
370
     0
100
AcDbMText
 10
12.072215463
 20
225.1037512523
 30
0.0
 40
3.5
 41
0.0
 71
     1
 72
     1
  1
B
  7
SLDTEXTSTYLE1
 73
     1
 44
1.0
  0
MTEXT
  5
C8
330
1F
100
AcDbEntity
  8
0
  6
Continuous
 62
     7
370
     0
100
AcDbMText
 10
12.0099281329
 20
272.1141992369
 30
0.0
 40
3.5
 41
0.0
 71
     1
 72
     1
  1
A
  7
SLDTEXTSTYLE1
 73
     1
 44
1.0
  0
MTEXT
  5
CA
330
1F
100
AcDbEntity
  8
0
  6
Continuous
 62
     7
370
     0
100
AcDbMText
 10
9.1322950183
 20
290.4336324934
 30
0.0
 40
3.5
 41
0.0
 71
     1
 72
     1
  1
MDSO
  7
SLDTEXTSTYLE2
 73
     1
 44
1.0
  0
MTEXT
  5
CB
330
1F
100
AcDbEntity
  8
0
  6
Continuous
 62
     7
370
     0
100
AcDbMText
 10
9.1322950183
 20
285.9336326871
 30
0.0
 40
3.5
 41
0.0
 71
     1
 72
     1
  1
FT
  7
SLDTEXTSTYLE2
 73
     1
 44
1.0
  0
MTEXT
  5
CC
330
1F
100
AcDbEntity
  8
0
  6
Continuous
 62
     7
370
     0
100
AcDbMText
 10
206.0863204039
 20
125.8314909841
 30
0.0
 40
3.5
 41
0.0
 71
     1
 72
     1
  1
D
  7
SLDTEXTSTYLE1
 73
     1
 44
1.0
  0
MTEXT
  5
CD
330
1F
100
AcDbEntity
  8
0
  6
Continuous
 62
     7
370
     0
100
AcDbMText
 10
206.5654436097
 20
77.0581067732
 30
0.0
 40
3.5
 41
0.0
 71
     1
 72
     1
  1
E
  7
SLDTEXTSTYLE1
 73
     1
 44
1.0
  0
MTEXT
  5
CF
330
1F
100
AcDbEntity
  8
0
  6
Continuous
 62
     7
370
     0
100
AcDbMText
 10
67.4156630533
 20
31.2034994121
 30
0.0
 40
3.0
 41
0.0
 71
     1
 72
     1
  1
标\U+51C6\U+5316
  7
SLDTEXTSTYLE3
 73
     1
 44
1.0
  0
MTEXT
  5
D0
330
1F
100
AcDbEntity
  8
0
  6
Continuous
 62
     7
370
     0
100
AcDbMText
 10
67.2565047948
 20
10.683303637
 30
0.0
 40
3.0
 41
0.0
 71
     1
 72
     1
  1
\U+6279\U+51C6
  7
SLDTEXTSTYLE0
 73
     1
 44
1.0
  0
MTEXT
  5
D1
330
1F
100
AcDbEntity
  8
0
  6
Continuous
 62
     7
370
     0
100
AcDbMText
 10
28.4693668899
 20
10.683303637
 30
0.0
 40
3.0
 41
0.0
 71
     1
 72
     1
  1
\U+5DE5艺
  7
SLDTEXTSTYLE0
 73
     1
 44
1.0
  0
MTEXT
  5
D2
330
1F
100
AcDbEntity
  8
0
  6
Continuous
 62
     7
370
     0
100
AcDbMText
 10
134.0143082996
 20
30.1949862091
 30
0.0
 40
3.5
 41
0.0
 71
     1
 72
     1
  1
\U+91CD\U+91CF
  7
SLDTEXTSTYLE0
 73
     1
 44
1.0
  0
MTEXT
  5
D4
330
1F
100
AcDbEntity
  8
0
  6
Continuous
 62
     7
370
     0
100
AcDbMText
 10
112.0575836552
 20
12.0896137254
 30
0.0
 40
3.5
 41
0.0
 71
     1
 72
     1
  1
\U+5171    张
  7
SLDTEXTSTYLE4
 73
     1
 44
1.0
  0
MTEXT
  5
D5
330
1F
100
AcDbEntity
  8
0
  6
Continuous
 62
     7
370
     0
100
AcDbMText
 10
133.8352981447
 20
11.6784253085
 30
0.0
 40
3.5
 41
0.0
 71
     1
 72
     1
  1
\U+7B2C    张
  7
SLDTEXTSTYLE4
 73
     1
 44
1.0
  0
MTEXT
  5
D6
330
1F
100
AcDbEntity
  8
0
  6
Continuous
 62
     7
370
     0
100
AcDbMText
 10
144.948301502
 20
30.1949862091
 30
0.0
 40
3.5
 41
0.0
 71
     1
 72
     1
  1
\U+6BD4\U+4F8B
  7
SLDTEXTSTYLE0
 73
     1
 44
1.0
  0
MTEXT
  5
D8
330
1F
100
AcDbEntity
  8
0
  6
Continuous
 62
     7
370
     0
100
AcDbMText
 10
148.1563920719
 20
20.1542387626
 30
0.0
 40
3.5
 41
0.0
 71
     2
 72
     1
  1
1:2
  7
SLDTEXTSTYLE5
 73
     1
 44
1.0
  0
MTEXT
  5
D9
330
1F
100
AcDbEntity
  8
0
  6
Continuous
 62
     7
370
     0
100
AcDbMText
 10
111.5264158226
 20
30.1949862091
 30
0.0
 40
3.5
 41
0.0
 71
     1
 72
     1
  1
阶\U+6BB5标记
  7
SLDTEXTSTYLE0
 73
     1
 44
1.0
  0
MTEXT
  5
DA
330
1F
100
AcDbEntity
  8
0
  6
Continuous
 62
     7
370
     0
100
AcDbMText
 10
50.2179573061
 20
38.3717239038
 30
0.0
 40
3.0
 41
0.0
 71
     1
 72
     1
  1
\U+5206\U+533A
  7
SLDTEXTSTYLE0
 73
     1
 44
1.0
  0
MTEXT
  5
DB
330
1F
100
AcDbEntity
  8
0
  6
Continuous
 62
     7
370
     0
100
AcDbMText
 10
12.4807811467
 20
25.236835668
 30
0.0
 40
3.5
 41
0.0
 71
     1
 72
     1
  1
F
  7
SLDTEXTSTYLE1
 73
     1
 44
1.0
  0
MTEXT
  5
DC
330
1F
100
AcDbEntity
  8
0
  6
Continuous
 62
     7
370
     0
100
AcDbMText
 10
178.9213354031
 20
56.4151244124
 30
0.0
 40
5.0
 41
0.0
 71
     2
 72
     1
  1
迈\U+8FEA\U+6570码
  7
SLDTEXTSTYLE0
 73
     1
 44
1.0
  0
LINE
  5
DD
330
1F
100
AcDbEntity
  8
0
  6
Continuous
 62
     7
370
    25
100
AcDbLine
 10
83.1443426161
 20
214.5391614122
 30
0.0
 11
83.1443426161
 21
215.9074614122
 31
0.0
  0
LINE
  5
DE
330
1F
100
AcDbEntity
  8
0
  6
Continuous
 62
     7
370
    25
100
AcDbLine
 10
83.1443426161
 20
215.9074614122
 30
0.0
 11
94.5143426161
 21
215.9074614122
 31
0.0
  0
LINE
  5
DF
330
1F
100
AcDbEntity
  8
0
  6
Continuous
 62
     7
370
    25
100
AcDbLine
 10
94.5143426161
 20
215.9074614122
 30
0.0
 11
94.5143426161
 21
214.5391614122
 31
0.0
  0
LINE
  5
E0
330
1F
100
AcDbEntity
  8
0
  6
Continuous
 62
     7
370
    25
100
AcDbLine
 10
94.5143426161
 20
214.5391614122
 30
0.0
 11
83.1443426161
 21
214.5391614122
 31
0.0
  0
ARC
  5
E1
330
1F
100
AcDbEntity
  8
0
  6
Continuous
 62
     7
370
    25
100
AcDbCircle
 10
104.8978633937
 20
200.9074614122
 30
0.0
 40
2.000000000000009
100
AcDbArc
 50
240.0
 51
270.0
  0
LINE
  5
E2
330
1F
100
AcDbEntity
  8
0
  6
Continuous
 62
     7
370
    25
100
AcDbLine
 10
84.1443426161
 20
210.580111143
 30
0.0
 11
103.8978633937
 21
199.1754106046
 31
0.0
  0
ARC
  5
E3
330
1F
100
AcDbEntity
  8
0
  6
Continuous
 62
     7
370
    25
100
AcDbCircle
 10
85.1443426161
 20
212.3121619506
 30
0.0
 40
2.000000000000009
100
AcDbArc
 50
180.0
 51
240.0
  0
LINE
  5
E4
330
1F
100
AcDbEntity
  8
0
  6
Continuous
 62
     7
370
    25
100
AcDbLine
 10
83.1443426161
 20
214.5391614122
 30
0.0
 11
83.1443426161
 21
212.3121619506
 31
0.0
  0
LINE
  5
E5
330
1F
100
AcDbEntity
  8
0
  6
Continuous
 62
     7
370
    25
100
AcDbLine
 10
94.5143426161
 20
214.0391614122
 30
0.0
 11
94.5143426161
 21
214.5391614122
 31
0.0
  0
LINE
  5
E6
330
1F
100
AcDbEntity
  8
0
  6
Continuous
 62
     7
370
    25
100
AcDbLine
 10
95.0143426161
 20
214.0391614122
 30
0.0
 11
94.5143426161
 21
214.0391614122
 31
0.0
  0
LINE
  5
E7
330
1F
100
AcDbEntity
  8
0
  6
Continuous
 62
     7
370
    25
100
AcDbLine
 10
95.0143426161
 20
214.9074614122
 30
0.0
 11
95.0143426161
 21
214.0391614122
 31
0.0
  0
LINE
  5
E8
330
1F
100
AcDbEntity
  8
0
  6
Continuous
 62
     7
370
    25
100
AcDbLine
 10
112.2161393859
 20
214.9074614122
 30
0.0
 11
95.0143426161
 21
214.9074614122
 31
0.0
  0
ARC
  5
E9
330
1F
100
AcDbEntity
  8
0
  6
Continuous
 62
     7
370
    25
100
AcDbCircle
 10
112.2161393859
 20
212.9074614122
 30
0.0
 40
2.0
100
AcDbArc
 50
60.0
 51
90.0
  0
LINE
  5
EA
330
1F
100
AcDbEntity
  8
0
  6
Continuous
 62
     7
370
    25
100
AcDbLine
 10
122.1443426161
 20
209.4848116814
 30
0.0
 11
113.2161393859
 21
214.6395122197
 31
0.0
  0
ARC
  5
EB
330
1F
100
AcDbEntity
  8
0
  6
Continuous
 62
     7
370
    25
100
AcDbCircle
 10
121.1443426161
 20
207.7527608738
 30
0.0
 40
2.0
100
AcDbArc
 50
0.0
 51
60.0
  0
LINE
  5
EC
330
1F
100
AcDbEntity
  8
0
  6
Continuous
 62
     7
370
    25
100
AcDbLine
 10
123.1443426161
 20
205.4074614122
 30
0.0
 11
123.1443426161
 21
207.7527608738
 31
0.0
  0
ARC
  5
ED
330
1F
100
AcDbEntity
  8
0
  6
Continuous
 62
     7
370
    25
100
AcDbCircle
 10
116.6443426161
 20
205.4074614122
 30
0.0
 40
6.5
100
AcDbArc
 50
270.0
 51
0.0
  0
LINE
  5
EE
330
1F
100
AcDbEntity
  8
0
  6
Continuous
 62
     7
370
    25
100
AcDbLine
 10
104.8978633937
 20
198.9074614122
 30
0.0
 11
116.6443426161
 21
198.9074614122
 31
0.0
  0
CIRCLE
  5
EF
330
1F
100
AcDbEntity
  8
0
  6
Continuous
 62
     7
370
    25
100
AcDbCircle
 10
112.3943426161
 20
206.5574614122
 30
0.0
 40
3.799999999999983
  0
CIRCLE
  5
F0
330
1F
100
AcDbEntity
  8
0
  6
Continuous
 62
     7
370
    25
100
AcDbCircle
 10
119.8943426161
 20
206.5574614122
 30
0.0
 40
0.8250000000000028
  0
CIRCLE
  5
F1
330
1F
100
AcDbEntity
  8
0
  6
Continuous
 62
     7
370
    25
100
AcDbCircle
 10
104.8943426161
 20
206.5574614122
 30
0.0
 40
0.8249999999999886
  0
ARC
  5
F2
330
1F
100
AcDbEntity
  8
0
  6
Continuous
 62
     7
370
    25
100
AcDbCircle
 10
97.4429853171
 20
207.1013860073
 30
0.0
 40
0.500000000000022
100
AcDbArc
 50
185.0
 51
252.4433274459
  0
LINE
  5
F3
330
1F
100
AcDbEntity
  8
0
  6
Continuous
 62
     7
370
    25
100
AcDbLine
 10
97.2921608195
 20
206.6246764826
 30
0.0
 11
101.1109518551
 21
205.4164622352
 31
0.0
  0
ARC
  5
F4
330
1F
100
AcDbEntity
  8
0
  6
Continuous
 62
     7
370
    25
100
AcDbCircle
 10
101.2617763528
 20
205.8931717598
 30
0.0
 40
0.4999999999999874
100
AcDbArc
 50
252.4433274459
 51
340.7744715597
  0
LINE
  5
F5
330
1F
100
AcDbEntity
  8
0
  6
Continuous
 62
     7
370
    25
100
AcDbLine
 10
101.7338912269
 20
205.7285280668
 30
0.0
 11
103.482557095
 21
210.7428177192
 31
0.0
  0
ARC
  5
F6
330
1F
100
AcDbEntity
  8
0
  6
Continuous
 62
     7
370
    25
100
AcDbCircle
 10
103.0104422209
 20
210.9074614122
 30
0.0
 40
0.5
100
AcDbArc
 50
340.7744715597
 51
90.0
  0
LINE
  5
F7
330
1F
100
AcDbEntity
  8
0
  6
Continuous
 62
     7
370
    25
100
AcDbLine
 10
103.0104422209
 20
211.4074614122
 30
0.0
 11
97.1099968667
 21
211.4074614122
 31
0.0
  0
ARC
  5
F8
330
1F
100
AcDbEntity
  8
0
  6
Continuous
 62
     7
370
    25
100
AcDbCircle
 10
97.1099968667
 20
210.9074614122
 30
0.0
 40
0.500000000000005
100
AcDbArc
 50
90.0
 51
185.0
  0
LINE
  5
F9
330
1F
100
AcDbEntity
  8
0
  6
Continuous
 62
     7
370
    25
100
AcDbLine
 10
96.6118995176
 20
210.8638835408
 30
0.0
 11
96.9448879681
 21
207.0578081359
 31
0.0
  0
DIMENSION
  5
FA
330
1F
100
AcDbEntity
  8
0
  6
Continuous
 62
     7
370
    18
100
AcDbDimension
  2
_D
 10
73.1443426161
 20
211.1574614122
 30
0.0
 11
73.1443426161
 21
234.019267369
 31
0.0
 70
   160
  1
<>
 71
     2
 42
-1.0
  3
SLDDIMSTYLE0
100
AcDbAlignedDimension
 13
83.1443426161
 23
214.9074614122
 33
0.0
 14
83.1443426161
 24
211.1574614122
 34
0.0
 50
90.0
100
AcDbRotatedDimension
  0
DIMENSION
  5
10E
330
1F
100
AcDbEntity
  8
0
  6
Continuous
 62
     7
370
    18
100
AcDbDimension
  2
_D_1
 10
139.1443426161
 20
208.9074614122
 30
0.0
 11
139.1443426161
 21
203.9074614122
 31
0.0
 70
   160
  1
<>
 71
     2
 42
-1.0
  3
SLDDIMSTYLE1
100
AcDbAlignedDimension
 13
123.1443426161
 23
198.9074614122
 33
0.0
 14
123.1443426161
 24
208.9074614122
 34
0.0
 50
90.0
100
AcDbRotatedDimension
  0
DIMENSION
  5
11B
330
1F
100
AcDbEntity
  8
0
  6
Continuous
 62
     7
370
    18
100
AcDbDimension
  2
_D_2
 10
123.1443426161
 20
264.6855864077
 30
0.0
 11
103.1443426161
 21
264.6855864077
 31
0.0
 70
   160
  1
<>
 71
     2
 42
-1.0
  3
SLDDIMSTYLE2
100
AcDbAlignedDimension
 13
83.1443426161
 23
214.9074614122
 33
0.0
 14
123.1443426161
 24
208.9074614122
 34
0.0
100
AcDbRotatedDimension
  0
DIMENSION
  5
126
330
1F
100
AcDbEntity
  8
0
  6
Continuous
 62
     7
370
    18
100
AcDbDimension
  2
_D_3
 10
112.7520377707
 20
214.9074614122
 30
0.0
 11
102.5699684583
 21
176.9074614122
 31
0.0
 70
   162
  1
<>
 71
     1
 42
-1.0
  3
SLDDIMSTYLE3
100
AcDb2LineAngularDimension
 13
112.7520377707
 23
214.9074614122
 33
0.0
 14
83.1443426161
 24
214.9074614122
 34
0.0
 15
123.1443426161
 25
208.9074614122
 35
0.0
 16
102.5699684583
 26
176.9074614122
 36
0.0
  0
DIMENSION
  5
131
330
1F
100
AcDbEntity
  8
0
  6
Continuous
 62
     7
370
    18
100
AcDbDimension
  2
_D_4
 10
83.1443426161
 20
211.1574614122
 30
0.0
 11
108.6920920278
 21
225.9074614122
 31
0.0
 70
   162
  1
<>
 71
     1
 42
-1.0
  3
SLDDIMSTYLE3
100
AcDb2LineAngularDimension
 13
83.1443426161
 23
211.1574614122
 33
0.0
 14
104.3619650089
 24
198.9074614122
 34
0.0
 15
83.1443426161
 25
214.9074614122
 35
0.0
 16
108.6920920278
 26
225.9074614122
 36
0.0
  0
DIMENSION
  5
13B
330
1F
100
AcDbEntity
  8
0
  6
Continuous
 62
     7
370
    18
100
AcDbDimension
  2
_D_5
 10
67.1443426161
 20
198.9074614122
 30
0.0
 11
67.1443426161
 21
206.9074614122
 31
0.0
 70
   160
  1
<>
 71
     2
 42
-1.0
  3
SLDDIMSTYLE1
100
AcDbAlignedDimension
 13
83.1443426161
 23
214.9074614122
 33
0.0
 14
104.3619650089
 24
198.9074614122
 34
0.0
 50
90.0
100
AcDbRotatedDimension
  0
DIMENSION
  5
147
330
1F
100
AcDbEntity
  8
0
  6
Continuous
 62
     7
370
    18
100
AcDbDimension
  2
_D_6
 10
116.1943426161
 20
252.7123225834
 30
0.0
 11
139.2384229853
 21
252.7123225834
 31
0.0
 70
   160
  1
%%c<>
 71
     2
 42
-1.0
  3
SLDDIMSTYLE0
100
AcDbAlignedDimension
 13
108.5943426161
 23
206.5574614122
 33
0.0
 14
116.1943426161
 24
206.5574614122
 34
0.0
100
AcDbRotatedDimension
  0
DIMENSION
  5
154
330
1F
100
AcDbEntity
  8
0
  6
Continuous
 62
     7
370
    18
100
AcDbDimension
  2
_D_7
 10
123.1443426161
 20
258.6855864077
 30
0.0
 11
143.5492038205
 21
258.6855864077
 31
0.0
 70
   160
  1
<>
 71
     2
 42
-1.0
  3
SLDDIMSTYLE0
100
AcDbAlignedDimension
 13
112.3943426161
 23
206.5574614122
 33
0.0
 14
123.1443426161
 24
208.9074614122
 34
0.0
100
AcDbRotatedDimension
  0
DIMENSION
  5
160
330
1F
100
AcDbEntity
  8
0
  6
Continuous
 62
     7
370
    18
100
AcDbDimension
  2
_D_8
 10
133.1443426161
 20
198.9074614122
 30
0.0
 11
133.1443426161
 21
178.5026002079
 31
0.0
 70
   160
  1
<>
 71
     2
 42
-1.0
  3
SLDDIMSTYLE0
100
AcDbAlignedDimension
 13
112.3943426161
 23
206.5574614122
 33
0.0
 14
123.1443426161
 24
198.9074614122
 34
0.0
 50
90.0
100
AcDbRotatedDimension
  0
DIMENSION
  5
16C
330
1F
100
AcDbEntity
  8
0
  6
Continuous
 62
     7
370
    18
100
AcDbDimension
  2
_D_9
 10
105.7193426161
 20
161.7123225834
 30
0.0
 11
127.4703672721
 21
161.7123225834
 31
0.0
 70
   160
  1
%%c<>
 71
     2
 42
-1.0
  3
SLDDIMSTYLE0
100
AcDbAlignedDimension
 13
104.0693426161
 23
206.5574614122
 33
0.0
 14
105.7193426161
 24
206.5574614122
 34
0.0
100
AcDbRotatedDimension
  0
DIMENSION
  5
179
330
1F
100
AcDbEntity
  8
0
  6
Continuous
 62
     7
370
    18
100
AcDbDimension
  2
_D_10
 10
120.7193426161
 20
155.7123225834
 30
0.0
 11
142.4703672721
 21
155.7123225834
 31
0.0
 70
   160
  1
%%c<>
 71
     2
 42
-1.0
  3
SLDDIMSTYLE0
100
AcDbAlignedDimension
 13
119.0693426161
 23
206.5574614122
 33
0.0
 14
120.7193426161
 24
206.5574614122
 34
0.0
100
AcDbRotatedDimension
  0
DIMENSION
  5
186
330
1F
100
AcDbEntity
  8
0
  6
Continuous
 62
     7
370
    18
100
AcDbDimension
  2
_D_11
 10
104.8943426161
 20
240.6855864077
 30
0.0
 11
128.27350929
 21
240.6855864077
 31
0.0
 70
   160
  1
<>
 71
     2
 42
-1.0
  3
SLDDIMSTYLE1
100
AcDbAlignedDimension
 13
112.3943426161
 23
206.5574614122
 33
0.0
 14
104.8943426161
 24
206.5574614122
 34
0.0
100
AcDbRotatedDimension
  0
DIMENSION
  5
192
330
1F
100
AcDbEntity
  8
0
  6
Continuous
 62
     7
370
    18
100
AcDbDimension
  2
_D_12
 10
112.3943426161
 20
246.6855864077
 30
0.0
 11
135.77350929
 21
246.6855864077
 31
0.0
 70
   160
  1
<>
 71
     2
 42
-1.0
  3
SLDDIMSTYLE1
100
AcDbAlignedDimension
 13
119.8943426161
 23
206.5574614122
 33
0.0
 14
112.3943426161
 24
206.5574614122
 34
0.0
100
AcDbRotatedDimension
  0
DIMENSION
  5
19E
330
1F
100
AcDbEntity
  8
0
  6
Continuous
 62
     7
370
    18
100
AcDbDimension
  2
_D_13
 10
103.7143426161
 20
252.6855864077
 30
0.0
 11
76.1594814118
 21
252.6855864077
 31
0.0
 70
   160
  1
<>
 71
     2
 42
-1.0
  3
SLDDIMSTYLE0
100
AcDbAlignedDimension
 13
96.5643426161
 23
211.4074614122
 33
0.0
 14
103.7143426161
 24
211.4074614122
 34
0.0
100
AcDbRotatedDimension
  0
DIMENSION
  5
1AA
330
1F
100
AcDbEntity
  8
0
  6
Continuous
 62
     7
370
    18
100
AcDbDimension
  2
_D_14
 10
96.5643426161
 20
211.4074614122
 30
0.0
 11
121.1187838902
 21
188.9074614122
 31
0.0
 70
   162
  1
<>
 71
     1
 42
-1.0
  3
SLDDIMSTYLE3
100
AcDb2LineAngularDimension
 13
96.5643426161
 23
211.4074614122
 33
0.0
 14
103.7143426161
 24
211.4074614122
 34
0.0
 15
96.9739746071
 25
206.7253463311
 35
0.0
 16
121.1187838902
 26
188.9074614122
 36
0.0
  0
DIMENSION
  5
1B4
330
1F
100
AcDbEntity
  8
0
  6
Continuous
 62
     7
370
    18
100
AcDbDimension
  2
_D_15
 10
60.9851902436
 20
208.2946889217
 30
0.0
 11
60.1670254594
 21
217.6463551974
 31
0.0
 70
   160
  1
<>
 71
     2
 42
-1.0
  3
SLDDIMSTYLE0
100
AcDbAlignedDimension
 13
96.9739746071
 23
206.7253463311
 33
0.0
 14
96.5643426161
 24
211.4074614122
 34
0.0
 50
-85.0
100
AcDbRotatedDimension
  0
DIMENSION
  5
1C0
330
1F
100
AcDbEntity
  8
0
  6
Continuous
 62
     7
370
    18
100
AcDbDimension
  2
_D_16
 10
133.1443426161
 20
214.9074614122
 30
0.0
 11
133.1443426161
 21
229.4935726057
 31
0.0
 70
   160
  1
<>
 71
     2
 42
-1.0
  3
SLDDIMSTYLE1
100
AcDbAlignedDimension
 13
103.7143426161
 23
211.4074614122
 33
0.0
 14
112.2161393859
 24
214.9074614122
 34
0.0
 50
90.0
100
AcDbRotatedDimension
  0
DIMENSION
  5
1CC
330
1F
100
AcDbEntity
  8
0
  6
Continuous
 62
     7
370
    18
100
AcDbDimension
  2
_D_17
 10
49.4126446545
 20
223.4605281572
 30
0.0
 11
46.1525187808
 21
214.1121353443
 31
0.0
 70
   160
  1
<>
 71
     2
 42
-1.0
  3
SLDDIMSTYLE1
100
AcDbAlignedDimension
 13
103.7143426161
 23
211.4074614122
 33
0.0
 14
101.5739746071
 24
205.2699680488
 34
0.0
 50
70.7744715597
100
AcDbRotatedDimension
  0
DIMENSION
  5
1D8
330
1F
100
AcDbEntity
  8
0
  6
Continuous
 62
     7
370
    18
100
AcDbDimension
  2
_D_18
 10
96.9739746071
 20
191.6855864077
 30
0.0
 11
77.8621686502
 21
191.6855864077
 31
0.0
 70
   160
  1
<>
 71
     2
 42
-1.0
  3
SLDDIMSTYLE0
100
AcDbAlignedDimension
 13
101.5739746071
 23
205.2699680488
 33
0.0
 14
96.9739746071
 24
206.7253463311
 34
0.0
100
AcDbRotatedDimension
  0
DIMENSION
  5
1E4
330
1F
100
AcDbEntity
  8
0
  6
Continuous
 62
     7
370
    18
100
AcDbDimension
  2
_D_19
 10
94.5143426161
 20
243.9074614122
 30
0.0
 11
75.4025366593
 21
243.9074614122
 31
0.0
 70
   160
  1
<>
 71
     2
 42
-1.0
  3
SLDDIMSTYLE0
100
AcDbAlignedDimension
 13
96.5643426161
 23
211.4074614122
 33
0.0
 14
94.5143426161
 24
214.5391614122
 34
0.0
100
AcDbRotatedDimension
  0
DIMENSION
  5
1F0
330
1F
100
AcDbEntity
  8
0
  6
Continuous
 62
     7
370
    18
100
AcDbDimension
  2
_D_20
 10
103.0104422209
 20
210.9074614122
 30
0.0
 11
88.0104522209
 21
225.9074714122
 31
0.0
 70
   164
  1
<>
 71
     1
 42
-1.0
  3
SLDDIMSTYLE4
100
AcDbRadialDimension
 15
102.6568888303
 25
211.2610148028
 35
0.0
 40
0.0
  0
DIMENSION
  5
1F9
330
1F
100
AcDbEntity
  8
0
  6
Continuous
 62
     7
370
    18
100
AcDbDimension
  2
_D_21
 10
116.6443426161
 20
205.4074614122
 30
0.0
 11
145.1443526161
 21
176.9074714122
 31
0.0
 70
   164
  1
<>
 71
     1
 42
-1.0
  3
SLDDIMSTYLE5
100
AcDbRadialDimension
 15
112.0481485384
 25
210.0036554899
 35
0.0
 40
0.0
  0
INSERT
  5
20D
330
1F
100
AcDbEntity
  8
0
  6
Continuous
 62
     7
370
     0
100
AcDbBlockReference
  2
SW_CENTERMARKSYMBOL_0
 10
112.3943426161
 20
206.5574614122
 30
0.0
  0
INSERT
  5
219
330
1F
100
AcDbEntity
  8
0
  6
Continuous
 62
     7
370
     0
100
AcDbBlockReference
  2
SW_CENTERMARKSYMBOL_1
 10
119.8943426161
 20
206.5574614122
 30
0.0
  0
INSERT
  5
225
330
1F
100
AcDbEntity
  8
0
  6
Continuous
 62
     7
370
     0
100
AcDbBlockReference
  2
SW_CENTERMARKSYMBOL_2
 10
104.8943426161
 20
206.5574614122
 30
0.0
  0
LINE
  5
226
330
1F
100
AcDbEntity
  8
0
  6
Continuous
 62
     7
370
    25
100
AcDbLine
 10
83.1443426161
 20
118.2104025991
 30
0.0
 11
94.5143426161
 21
118.2104025991
 31
0.0
  0
LINE
  5
227
330
1F
100
AcDbEntity
  8
0
  6
Continuous
 62
     7
370
    25
100
AcDbLine
 10
83.1443426161
 20
118.2104025991
 30
0.0
 11
83.1443426161
 21
131.8421025991
 31
0.0
  0
LINE
  5
228
330
1F
100
AcDbEntity
  8
0
  6
Continuous
 62
     7
370
    25
100
AcDbLine
 10
94.5143426161
 20
131.8421025991
 30
0.0
 11
94.5143426161
 21
118.2104025991
 31
0.0
  0
LINE
  5
229
330
1F
100
AcDbEntity
  8
0
  6
Continuous
 62
     7
370
    25
100
AcDbLine
 10
90.6393426161
 20
128.4671025991
 30
0.0
 11
90.6393426161
 21
131.2171025991
 31
0.0
  0
ARC
  5
22A
330
1F
100
AcDbEntity
  8
0
  6
Continuous
 62
     7
370
    25
100
AcDbCircle
 10
89.5143426161
 20
131.2171025991
 30
0.0
 40
1.125
100
AcDbArc
 50
0.0
 51
180.0
  0
LINE
  5
22B
330
1F
100
AcDbEntity
  8
0
  6
Continuous
 62
     7
370
    25
100
AcDbLine
 10
88.3893426161
 20
131.2171025991
 30
0.0
 11
88.3893426161
 21
128.4671025991
 31
0.0
  0
ARC
  5
22C
330
1F
100
AcDbEntity
  8
0
  6
Continuous
 62
     7
370
    25
100
AcDbCircle
 10
89.5143426161
 20
128.4671025991
 30
0.0
 40
1.125
100
AcDbArc
 50
180.0
 51
0.0
  0
LINE
  5
22D
330
1F
100
AcDbEntity
  8
0
  6
Continuous
 62
     7
370
    25
100
AcDbLine
 10
90.6393426161
 20
121.2171025991
 30
0.0
 11
90.6393426161
 21
123.9671025991
 31
0.0
  0
ARC
  5
22E
330
1F
100
AcDbEntity
  8
0
  6
Continuous
 62
     7
370
    25
100
AcDbCircle
 10
89.5143426161
 20
123.9671025991
 30
0.0
 40
1.125
100
AcDbArc
 50
0.0
 51
180.0
  0
LINE
  5
22F
330
1F
100
AcDbEntity
  8
0
  6
Continuous
 62
     7
370
    25
100
AcDbLine
 10
88.3893426161
 20
123.9671025991
 30
0.0
 11
88.3893426161
 21
121.2171025991
 31
0.0
  0
ARC
  5
230
330
1F
100
AcDbEntity
  8
0
  6
Continuous
 62
     7
370
    25
100
AcDbCircle
 10
89.5143426161
 20
121.2171025991
 30
0.0
 40
1.125
100
AcDbArc
 50
180.0
 51
0.0
  0
ARC
  5
231
330
1F
100
AcDbEntity
  8
0
  6
Continuous
 62
     7
370
    25
100
AcDbCircle
 10
85.1443426161
 20
131.8421025991
 30
0.0
 40
2.0
100
AcDbArc
 50
90.0
 51
180.0
  0
ARC
  5
232
330
1F
100
AcDbEntity
  8
0
  6
Continuous
 62
     7
370
    25
100
AcDbCircle
 10
92.5143426161
 20
131.8421025991
 30
0.0
 40
2.0
100
AcDbArc
 50
0.0
 51
90.0
  0
LINE
  5
233
330
1F
100
AcDbEntity
  8
0
  6
Continuous
 62
     7
370
    25
100
AcDbLine
 10
85.1443426161
 20
133.8421025991
 30
0.0
 11
92.5143426161
 21
133.8421025991
 31
0.0
  0
LINE
  5
234
330
1F
100
AcDbEntity
  8
0
  6
Continuous
 62
     7
370
    25
100
AcDbLine
 10
83.1443426161
 20
116.8421025991
 30
0.0
 11
83.1443426161
 21
118.2104025991
 31
0.0
  0
LINE
  5
235
330
1F
100
AcDbEntity
  8
0
  6
Continuous
 62
     7
370
    25
100
AcDbLine
 10
94.5143426161
 20
116.8421025991
 30
0.0
 11
83.1443426161
 21
116.8421025991
 31
0.0
  0
LINE
  5
236
330
1F
100
AcDbEntity
  8
0
  6
Continuous
 62
     7
370
    25
100
AcDbLine
 10
94.5143426161
 20
118.2104025991
 30
0.0
 11
94.5143426161
 21
116.8421025991
 31
0.0
  0
LINE
  5
237
330
1F
100
AcDbEntity
  8
0
  6
Continuous
 62
     7
370
    25
100
AcDbLine
 10
113.2161393859
 20
117.8421025991
 30
0.0
 11
113.2161393859
 21
116.8421025991
 31
0.0
  0
LINE
  5
238
330
1F
100
AcDbEntity
  8
0
  6
Continuous
 62
     7
370
    25
100
AcDbLine
 10
113.2161393859
 20
116.8421025991
 30
0.0
 11
112.2161393859
 21
116.8421025991
 31
0.0
  0
LINE
  5
239
330
1F
100
AcDbEntity
  8
0
  6
Continuous
 62
     7
370
    25
100
AcDbLine
 10
112.2161393859
 20
116.8421025991
 30
0.0
 11
112.2161393859
 21
117.8421025991
 31
0.0
  0
LINE
  5
23A
330
1F
100
AcDbEntity
  8
0
  6
Continuous
 62
     7
370
    25
100
AcDbLine
 10
112.2161393859
 20
117.8421025991
 30
0.0
 11
113.2161393859
 21
117.8421025991
 31
0.0
  0
LINE
  5
23B
330
1F
100
AcDbEntity
  8
0
  6
Continuous
 62
     7
370
    25
100
AcDbLine
 10
95.0143426161
 20
117.8421025991
 30
0.0
 11
95.0143426161
 21
116.8421025991
 31
0.0
  0
LINE
  5
23C
330
1F
100
AcDbEntity
  8
0
  6
Continuous
 62
     7
370
    25
100
AcDbLine
 10
112.2161393859
 20
116.8421025991
 30
0.0
 11
95.0143426161
 21
116.8421025991
 31
0.0
  0
LINE
  5
23D
330
1F
100
AcDbEntity
  8
0
  6
Continuous
 62
     7
370
    25
100
AcDbLine
 10
112.2161393859
 20
117.8421025991
 30
0.0
 11
95.0143426161
 21
117.8421025991
 31
0.0
  0
LINE
  5
23E
330
1F
100
AcDbEntity
  8
0
  6
Continuous
 62
     7
370
    25
100
AcDbLine
 10
122.1443426161
 20
116.8421025991
 30
0.0
 11
122.1443426161
 21
117.8421025991
 31
0.0
  0
LINE
  5
23F
330
1F
100
AcDbEntity
  8
0
  6
Continuous
 62
     7
370
    25
100
AcDbLine
 10
122.1443426161
 20
116.8421025991
 30
0.0
 11
113.2161393859
 21
116.8421025991
 31
0.0
  0
LINE
  5
240
330
1F
100
AcDbEntity
  8
0
  6
Continuous
 62
     7
370
    25
100
AcDbLine
 10
122.1443426161
 20
117.8421025991
 30
0.0
 11
113.2161393859
 21
117.8421025991
 31
0.0
  0
LINE
  5
241
330
1F
100
AcDbEntity
  8
0
  6
Continuous
 62
     7
370
    25
100
AcDbLine
 10
95.0143426161
 20
116.8421025991
 30
0.0
 11
94.5143426161
 21
116.8421025991
 31
0.0
  0
LINE
  5
242
330
1F
100
AcDbEntity
  8
0
  6
Continuous
 62
     7
370
    25
100
AcDbLine
 10
95.0143426161
 20
117.8421025991
 30
0.0
 11
94.5143426161
 21
117.8421025991
 31
0.0
  0
LINE
  5
243
330
1F
100
AcDbEntity
  8
0
  6
Continuous
 62
     7
370
    25
100
AcDbLine
 10
123.1443426161
 20
117.8421025991
 30
0.0
 11
123.1443426161
 21
116.8421025991
 31
0.0
  0
LINE
  5
244
330
1F
100
AcDbEntity
  8
0
  6
Continuous
 62
     7
370
    25
100
AcDbLine
 10
123.1443426161
 20
116.8421025991
 30
0.0
 11
122.1443426161
 21
116.8421025991
 31
0.0
  0
LINE
  5
245
330
1F
100
AcDbEntity
  8
0
  6
Continuous
 62
     7
370
    25
100
AcDbLine
 10
122.1443426161
 20
117.8421025991
 30
0.0
 11
123.1443426161
 21
117.8421025991
 31
0.0
  0
DIMENSION
  5
246
330
1F
100
AcDbEntity
  8
0
  6
Continuous
 62
     7
370
    18
100
AcDbDimension
  2
_D_22
 10
94.5143426161
 20
85.6202275946
 30
0.0
 11
62.7394814118
 21
85.6202275946
 31
0.0
 70
   160
  1
<>
 71
     2
 42
-1.0
  3
SLDDIMSTYLE0
100
AcDbAlignedDimension
 13
83.1443426161
 23
117.8421025991
 33
0.0
 14
94.5143426161
 24
117.8421025991
 34
0.0
100
AcDbRotatedDimension
  0
DIMENSION
  5
252
330
1F
100
AcDbEntity
  8
0
  6
Continuous
 62
     7
370
    18
100
AcDbDimension
  2
_D_23
 10
49.1443426161
 20
117.8421025991
 30
0.0
 11
49.1443426161
 21
125.8421025991
 31
0.0
 70
   160
  1
<>
 71
     2
 42
-1.0
  3
SLDDIMSTYLE1
100
AcDbAlignedDimension
 13
83.1443426161
 23
133.8421025991
 33
0.0
 14
83.1443426161
 24
117.8421025991
 34
0.0
 50
90.0
100
AcDbRotatedDimension
  0
DIMENSION
  5
25E
330
1F
100
AcDbEntity
  8
0
  6
Continuous
 62
     7
370
    18
100
AcDbDimension
  2
_D_24
 10
94.5143426161
 20
91.6202275946
 30
0.0
 11
73.6351759423
 21
91.6202275946
 31
0.0
 70
   160
  1
<>
 71
     2
 42
-1.0
  3
SLDDIMSTYLE1
100
AcDbAlignedDimension
 13
89.5143426161
 23
118.2104025991
 33
0.0
 14
94.5143426161
 24
118.2104025991
 34
0.0
100
AcDbRotatedDimension
  0
DIMENSION
  5
26A
330
1F
100
AcDbEntity
  8
0
  6
Continuous
 62
     7
370
    18
100
AcDbDimension
  2
_D_25
 10
73.1443426161
 20
123.9671025991
 30
0.0
 11
73.1443426161
 21
102.1052966423
 31
0.0
 70
   160
  1
<>
 71
     2
 42
-1.0
  3
SLDDIMSTYLE0
100
AcDbAlignedDimension
 13
90.6393426161
 23
121.2171025991
 33
0.0
 14
90.6393426161
 24
123.9671025991
 34
0.0
 50
90.0
100
AcDbRotatedDimension
  0
DIMENSION
  5
276
330
1F
100
AcDbEntity
  8
0
  6
Continuous
 62
     7
370
    18
100
AcDbDimension
  2
_D_26
 10
55.1443426161
 20
131.2171025991
 30
0.0
 11
55.1443426161
 21
150.3289085559
 31
0.0
 70
   160
  1
<>
 71
     2
 42
-1.0
  3
SLDDIMSTYLE0
100
AcDbAlignedDimension
 13
90.6393426161
 23
128.4671025991
 33
0.0
 14
90.6393426161
 24
131.2171025991
 34
0.0
 50
90.0
100
AcDbRotatedDimension
  0
DIMENSION
  5
282
330
1F
100
AcDbEntity
  8
0
  6
Continuous
 62
     7
370
    18
100
AcDbDimension
  2
_D_27
 10
89.5143426161
 20
128.4671025991
 30
0.0
 11
44.1393526161
 21
173.8421125991
 31
0.0
 70
   164
  1
<>
 71
     1
 42
-1.0
  3
SLDDIMSTYLE6
100
AcDbRadialDimension
 15
88.7188474873
 25
129.2625977279
 35
0.0
 40
0.0
  0
DIMENSION
  5
28C
330
1F
100
AcDbEntity
  8
0
  6
Continuous
 62
     7
370
    18
100
AcDbDimension
  2
_D_28
 10
89.5143426161
 20
121.2171025991
 30
0.0
 11
63.1393526161
 21
94.8421125991
 31
0.0
 70
   164
  1
<>
 71
     1
 42
-1.0
  3
SLDDIMSTYLE6
100
AcDbRadialDimension
 15
88.7188474873
 25
120.4216074702
 35
0.0
 40
0.0
  0
DIMENSION
  5
294
330
1F
100
AcDbEntity
  8
0
  6
Continuous
 62
     7
370
    18
100
AcDbDimension
  2
_D_29
 10
73.1443426161
 20
127.3421025991
 30
0.0
 11
73.1443426161
 21
146.4539085559
 31
0.0
 70
   160
  1
<>
 71
     2
 42
-1.0
  3
SLDDIMSTYLE0
100
AcDbAlignedDimension
 13
89.5143426161
 23
125.0921025991
 33
0.0
 14
89.5143426161
 24
127.3421025991
 34
0.0
 50
90.0
100
AcDbRotatedDimension
  0
DIMENSION
  5
2A0
330
1F
100
AcDbEntity
  8
0
  6
Continuous
 62
     7
370
    18
100
AcDbDimension
  2
_D_30
 10
67.1443426161
 20
133.8421025991
 30
0.0
 11
67.1443426161
 21
152.9539085559
 31
0.0
 70
   160
  1
<>
 71
     2
 42
-1.0
  3
SLDDIMSTYLE0
100
AcDbAlignedDimension
 13
88.3893426161
 23
131.2171025991
 33
0.0
 14
83.1443426161
 24
133.8421025991
 34
0.0
 50
90.0
100
AcDbRotatedDimension
  0
DIMENSION
  5
2AC
330
1F
100
AcDbEntity
  8
0
  6
Continuous
 62
     7
370
    18
100
AcDbDimension
  2
_D_31
 10
85.1443426161
 20
131.8421025991
 30
0.0
 11
55.1443526161
 21
161.8421125991
 31
0.0
 70
   164
  1
<>
 71
     1
 42
-1.0
  3
SLDDIMSTYLE5
100
AcDbRadialDimension
 15
86.5585561785
 25
130.4278890367
 35
0.0
 40
0.0
  0
LINE
  5
2B4
330
1F
100
AcDbEntity
  8
0
  6
Continuous
 62
     7
370
    25
100
AcDbLine
 10
164.5858349495
 20
215.9074614122
 30
0.0
 11
164.5858349495
 21
214.9074614122
 31
0.0
  0
LINE
  5
2B5
330
1F
100
AcDbEntity
  8
0
  6
Continuous
 62
     7
370
    25
100
AcDbLine
 10
162.5858349495
 20
214.9074614122
 30
0.0
 11
162.5858349495
 21
215.9074614122
 31
0.0
  0
LINE
  5
2B6
330
1F
100
AcDbEntity
  8
0
  6
Continuous
 62
     7
370
    25
100
AcDbLine
 10
164.5858349495
 20
214.9074614122
 30
0.0
 11
162.5858349495
 21
214.9074614122
 31
0.0
  0
LINE
  5
2B7
330
1F
100
AcDbEntity
  8
0
  6
Continuous
 62
     7
370
    25
100
AcDbLine
 10
162.5858349495
 20
215.9074614122
 30
0.0
 11
164.5858349495
 21
215.9074614122
 31
0.0
  0
LINE
  5
2B8
330
1F
100
AcDbEntity
  8
0
  6
Continuous
 62
     7
370
    25
100
AcDbLine
 10
178.2175349495
 20
214.9074614122
 30
0.0
 11
178.2175349495
 21
215.9074614122
 31
0.0
  0
LINE
  5
2B9
330
1F
100
AcDbEntity
  8
0
  6
Continuous
 62
     7
370
    25
100
AcDbLine
 10
178.2175349495
 20
214.9074614122
 30
0.0
 11
164.5858349495
 21
214.9074614122
 31
0.0
  0
LINE
  5
2BA
330
1F
100
AcDbEntity
  8
0
  6
Continuous
 62
     7
370
    25
100
AcDbLine
 10
178.2175349495
 20
215.9074614122
 30
0.0
 11
164.5858349495
 21
215.9074614122
 31
0.0
  0
LINE
  5
2BB
330
1F
100
AcDbEntity
  8
0
  6
Continuous
 62
     7
370
    25
100
AcDbLine
 10
178.5858349495
 20
214.5391614122
 30
0.0
 11
179.5858349495
 21
214.5391614122
 31
0.0
  0
ARC
  5
2BC
330
1F
100
AcDbEntity
  8
0
  6
Continuous
 62
     7
370
    25
100
AcDbCircle
 10
178.2175349495
 20
214.5391614122
 30
0.0
 40
0.368300000000005
100
AcDbArc
 50
0.0
 51
90.0
  0
ARC
  5
2BD
330
1F
100
AcDbEntity
  8
0
  6
Continuous
 62
     7
370
    25
100
AcDbCircle
 10
178.2175349495
 20
214.5391614122
 30
0.0
 40
1.368300000000005
100
AcDbArc
 50
0.0
 51
90.0
  0
LINE
  5
2BE
330
1F
100
AcDbEntity
  8
0
  6
Continuous
 62
     7
370
    25
100
AcDbLine
 10
179.5858349495
 20
214.5391614122
 30
0.0
 11
179.5858349495
 21
212.3121619506
 31
0.0
  0
LINE
  5
2BF
330
1F
100
AcDbEntity
  8
0
  6
Continuous
 62
     7
370
    25
100
AcDbLine
 10
178.5858349495
 20
212.3121619506
 30
0.0
 11
179.5858349495
 21
212.3121619506
 31
0.0
  0
LINE
  5
2C0
330
1F
100
AcDbEntity
  8
0
  6
Continuous
 62
     7
370
    25
100
AcDbLine
 10
178.5858349495
 20
214.5391614122
 30
0.0
 11
178.5858349495
 21
212.3121619506
 31
0.0
  0
LINE
  5
2C1
330
1F
100
AcDbEntity
  8
0
  6
Continuous
 62
     7
370
    25
100
AcDbLine
 10
179.5858349495
 20
212.3121619506
 30
0.0
 11
179.5858349495
 21
210.580111143
 31
0.0
  0
LINE
  5
2C2
330
1F
100
AcDbEntity
  8
0
  6
Continuous
 62
     7
370
    25
100
AcDbLine
 10
179.5858349495
 20
210.580111143
 30
0.0
 11
178.5858349495
 21
210.580111143
 31
0.0
  0
LINE
  5
2C3
330
1F
100
AcDbEntity
  8
0
  6
Continuous
 62
     7
370
    25
100
AcDbLine
 10
178.5858349495
 20
210.580111143
 30
0.0
 11
178.5858349495
 21
212.3121619506
 31
0.0
  0
LINE
  5
2C4
330
1F
100
AcDbEntity
  8
0
  6
Continuous
 62
     7
370
    25
100
AcDbLine
 10
178.5858349495
 20
199.1754106046
 30
0.0
 11
179.5858349495
 21
199.1754106046
 31
0.0
  0
LINE
  5
2C5
330
1F
100
AcDbEntity
  8
0
  6
Continuous
 62
     7
370
    25
100
AcDbLine
 10
179.5858349495
 20
210.580111143
 30
0.0
 11
179.5858349495
 21
199.1754106046
 31
0.0
  0
LINE
  5
2C6
330
1F
100
AcDbEntity
  8
0
  6
Continuous
 62
     7
370
    25
100
AcDbLine
 10
178.5858349495
 20
210.580111143
 30
0.0
 11
178.5858349495
 21
199.1754106046
 31
0.0
  0
LINE
  5
2C7
330
1F
100
AcDbEntity
  8
0
  6
Continuous
 62
     7
370
    25
100
AcDbLine
 10
179.5353361484
 20
214.9074614122
 30
0.0
 11
179.5858349495
 21
214.9074614122
 31
0.0
  0
LINE
  5
2C8
330
1F
100
AcDbEntity
  8
0
  6
Continuous
 62
     7
370
    25
100
AcDbLine
 10
179.5858349495
 20
214.9074614122
 30
0.0
 11
179.5858349495
 21
214.5391614122
 31
0.0
  0
LINE
  5
2C9
330
1F
100
AcDbEntity
  8
0
  6
Continuous
 62
     7
370
    25
100
AcDbLine
 10
179.5858349495
 20
198.9074614122
 30
0.0
 11
178.5858349495
 21
198.9074614122
 31
0.0
  0
LINE
  5
2CA
330
1F
100
AcDbEntity
  8
0
  6
Continuous
 62
     7
370
    25
100
AcDbLine
 10
179.5858349495
 20
199.1754106046
 30
0.0
 11
179.5858349495
 21
198.9074614122
 31
0.0
  0
LINE
  5
2CB
330
1F
100
AcDbEntity
  8
0
  6
Continuous
 62
     7
370
    25
100
AcDbLine
 10
178.5858349495
 20
198.9074614122
 30
0.0
 11
178.5858349495
 21
199.1754106046
 31
0.0
  0
DIMENSION
  5
2CC
330
1F
100
AcDbEntity
  8
0
  6
Continuous
 62
     7
370
    18
100
AcDbDimension
  2
_D_32
 10
178.2175349495
 20
214.5391614122
 30
0.0
 11
189.5858349495
 21
225.9074614122
 31
0.0
 70
   162
  1
<>
 71
     1
 42
-1.0
  3
SLDDIMSTYLE3
100
AcDb2LineAngularDimension
 13
178.2175349495
 23
214.9074614122
 33
0.0
 14
178.2175349495
 24
214.5391614122
 34
0.0
 15
178.5858349495
 25
214.5391614122
 35
0.0
 16
189.5858349495
 26
225.9074614122
 36
0.0
  0
LINE
  5
2D6
330
1F
100
AcDbEntity
  8
0
  6
Continuous
 62
     7
370
    25
100
AcDbLine
 10
148.5663916563
 20
106.6830995798
 30
0.0
 11
148.5663916563
 21
108.0513995798
 31
0.0
  0
LINE
  5
2D7
330
1F
100
AcDbEntity
  8
0
  6
Continuous
 62
     7
370
    25
100
AcDbLine
 10
148.5663916563
 20
108.0513995798
 30
0.0
 11
159.9363916563
 21
108.0513995798
 31
0.0
  0
LINE
  5
2D8
330
1F
100
AcDbEntity
  8
0
  6
Continuous
 62
     7
370
    25
100
AcDbLine
 10
159.9363916563
 20
108.0513995798
 30
0.0
 11
159.9363916563
 21
106.6830995798
 31
0.0
  0
LINE
  5
2D9
330
1F
100
AcDbEntity
  8
0
  6
Continuous
 62
     7
370
    25
100
AcDbLine
 10
159.9363916563
 20
106.6830995798
 30
0.0
 11
148.5663916563
 21
106.6830995798
 31
0.0
  0
ARC
  5
2DA
330
1F
100
AcDbEntity
  8
0
  6
Continuous
 62
     7
370
    25
100
AcDbCircle
 10
170.3199124339
 20
93.0513995798
 30
0.0
 40
2.000000000000004
100
AcDbArc
 50
240.0
 51
270.0
  0
LINE
  5
2DB
330
1F
100
AcDbEntity
  8
0
  6
Continuous
 62
     7
370
    25
100
AcDbLine
 10
149.5663916563
 20
102.7240493107
 30
0.0
 11
169.3199124339
 21
91.3193487723
 31
0.0
  0
ARC
  5
2DC
330
1F
100
AcDbEntity
  8
0
  6
Continuous
 62
     7
370
    25
100
AcDbCircle
 10
150.5663916563
 20
104.4561001182
 30
0.0
 40
1.99999999999999
100
AcDbArc
 50
180.0
 51
240.0
  0
LINE
  5
2DD
330
1F
100
AcDbEntity
  8
0
  6
Continuous
 62
     7
370
    25
100
AcDbLine
 10
148.5663916563
 20
106.6830995798
 30
0.0
 11
148.5663916563
 21
104.4561001182
 31
0.0
  0
LINE
  5
2DE
330
1F
100
AcDbEntity
  8
0
  6
Continuous
 62
     7
370
    25
100
AcDbLine
 10
159.9363916563
 20
106.1830995798
 30
0.0
 11
159.9363916563
 21
106.6830995798
 31
0.0
  0
LINE
  5
2DF
330
1F
100
AcDbEntity
  8
0
  6
Continuous
 62
     7
370
    25
100
AcDbLine
 10
160.4363916563
 20
106.1830995798
 30
0.0
 11
159.9363916563
 21
106.1830995798
 31
0.0
  0
LINE
  5
2E0
330
1F
100
AcDbEntity
  8
0
  6
Continuous
 62
     7
370
    25
100
AcDbLine
 10
160.4363916563
 20
107.0513995798
 30
0.0
 11
160.4363916563
 21
106.1830995798
 31
0.0
  0
LINE
  5
2E1
330
1F
100
AcDbEntity
  8
0
  6
Continuous
 62
     7
370
    25
100
AcDbLine
 10
177.6381884261
 20
107.0513995798
 30
0.0
 11
160.4363916563
 21
107.0513995798
 31
0.0
  0
ARC
  5
2E2
330
1F
100
AcDbEntity
  8
0
  6
Continuous
 62
     7
370
    25
100
AcDbCircle
 10
177.6381884261
 20
105.0513995798
 30
0.0
 40
2.000000000000004
100
AcDbArc
 50
60.0
 51
90.0
  0
LINE
  5
2E3
330
1F
100
AcDbEntity
  8
0
  6
Continuous
 62
     7
370
    25
100
AcDbLine
 10
187.5663916563
 20
101.628749849
 30
0.0
 11
178.6381884261
 21
106.7834503874
 31
0.0
  0
ARC
  5
2E4
330
1F
100
AcDbEntity
  8
0
  6
Continuous
 62
     7
370
    25
100
AcDbCircle
 10
186.5663916563
 20
99.8966990415
 30
0.0
 40
2.000000000000028
100
AcDbArc
 50
0.0
 51
60.0
  0
LINE
  5
2E5
330
1F
100
AcDbEntity
  8
0
  6
Continuous
 62
     7
370
    25
100
AcDbLine
 10
188.5663916563
 20
97.5513995798
 30
0.0
 11
188.5663916563
 21
99.8966990415
 31
0.0
  0
ARC
  5
2E6
330
1F
100
AcDbEntity
  8
0
  6
Continuous
 62
     7
370
    25
100
AcDbCircle
 10
182.0663916563
 20
97.5513995798
 30
0.0
 40
6.5
100
AcDbArc
 50
270.0
 51
0.0
  0
LINE
  5
2E7
330
1F
100
AcDbEntity
  8
0
  6
Continuous
 62
     7
370
    25
100
AcDbLine
 10
170.3199124339
 20
91.0513995798
 30
0.0
 11
182.0663916563
 21
91.0513995798
 31
0.0
  0
CIRCLE
  5
2E8
330
1F
100
AcDbEntity
  8
0
  6
Continuous
 62
     7
370
    25
100
AcDbCircle
 10
177.8163916563
 20
98.7013995798
 30
0.0
 40
3.800000000000011
  0
CIRCLE
  5
2E9
330
1F
100
AcDbEntity
  8
0
  6
Continuous
 62
     7
370
    25
100
AcDbCircle
 10
185.3163916563
 20
98.7013995798
 30
0.0
 40
0.825000000000017
  0
CIRCLE
  5
2EA
330
1F
100
AcDbEntity
  8
0
  6
Continuous
 62
     7
370
    25
100
AcDbCircle
 10
170.3163916563
 20
98.7013995798
 30
0.0
 40
0.8249999999999886
  0
ARC
  5
2EB
330
1F
100
AcDbEntity
  8
0
  6
Continuous
 62
     7
370
    25
100
AcDbCircle
 10
162.8650343573
 20
99.2453241749
 30
0.0
 40
0.5000000000000084
100
AcDbArc
 50
185.0
 51
252.4433274459
  0
LINE
  5
2EC
330
1F
100
AcDbEntity
  8
0
  6
Continuous
 62
     7
370
    25
100
AcDbLine
 10
162.7142098597
 20
98.7686146503
 30
0.0
 11
166.5330008953
 21
97.5604004028
 31
0.0
  0
ARC
  5
2ED
330
1F
100
AcDbEntity
  8
0
  6
Continuous
 62
     7
370
    25
100
AcDbCircle
 10
166.683825393
 20
98.0371099275
 30
0.0
 40
0.5000000000000102
100
AcDbArc
 50
252.4433274459
 51
340.7744715597
  0
LINE
  5
2EE
330
1F
100
AcDbEntity
  8
0
  6
Continuous
 62
     7
370
    25
100
AcDbLine
 10
167.1559402671
 20
97.8724662345
 30
0.0
 11
168.9046061352
 21
102.8867558868
 31
0.0
  0
ARC
  5
2EF
330
1F
100
AcDbEntity
  8
0
  6
Continuous
 62
     7
370
    25
100
AcDbCircle
 10
168.432491261
 20
103.0513995798
 30
0.0
 40
0.499999999999988
100
AcDbArc
 50
340.7744715597
 51
90.0
  0
LINE
  5
2F0
330
1F
100
AcDbEntity
  8
0
  6
Continuous
 62
     7
370
    25
100
AcDbLine
 10
168.432491261
 20
103.5513995798
 30
0.0
 11
162.5320459069
 21
103.5513995798
 31
0.0
  0
ARC
  5
2F1
330
1F
100
AcDbEntity
  8
0
  6
Continuous
 62
     7
370
    25
100
AcDbCircle
 10
162.5320459069
 20
103.0513995798
 30
0.0
 40
0.5
100
AcDbArc
 50
90.0
 51
185.0
  0
LINE
  5
2F2
330
1F
100
AcDbEntity
  8
0
  6
Continuous
 62
     7
370
    25
100
AcDbLine
 10
162.0339485578
 20
103.0078217085
 30
0.0
 11
162.3669370083
 21
99.2017463036
 31
0.0
  0
MTEXT
  5
2F4
330
1F
100
AcDbEntity
  8
0
  6
Continuous
 62
     7
370
     0
100
AcDbMText
 10
153.3423641246
 20
111.905828041
 30
0.0
 40
3.5
 41
0.0
 71
     2
 72
     1
  1
\U+4E0B  90\U+00B0  R 0.74
  7
SLDTEXTSTYLE6
 73
     1
 44
1.0
  0
INSERT
  5
300
330
1F
100
AcDbEntity
  8
0
  6
Continuous
 62
     7
370
     0
100
AcDbBlockReference
  2
SW_CENTERMARKSYMBOL_3
 10
170.3163916563
 20
98.7013995798
 30
0.0
  0
INSERT
  5
30C
330
1F
100
AcDbEntity
  8
0
  6
Continuous
 62
     7
370
     0
100
AcDbBlockReference
  2
SW_CENTERMARKSYMBOL_4
 10
185.3163916563
 20
98.7013995798
 30
0.0
  0
INSERT
  5
318
330
1F
100
AcDbEntity
  8
0
  6
Continuous
 62
     7
370
     0
100
AcDbBlockReference
  2
SW_CENTERMARKSYMBOL_5
 10
177.8163916563
 20
98.7013995798
 30
0.0
  0
ENDSEC
  0
SECTION
  2
OBJECTS
  0
DICTIONARY
  5
C
330
0
100
AcDbDictionary
281
     1
  3
ACAD_GROUP
350
D
  3
ACAD_LAYOUT
350
1A
  3
ACAD_MLINESTYLE
350
17
  3
ACAD_PLOTSETTINGS
350
19
  3
ACAD_PLOTSTYLENAME
350
E
  3
ACAD_SCALELIST
350
47
  3
DWGPROPS
350
319
  0
DICTIONARY
  5
D
102
{ACAD_REACTORS
330
C
102
}
330
C
100
AcDbDictionary
281
     1
  0
DICTIONARY
  5
1A
102
{ACAD_REACTORS
330
C
102
}
330
C
100
AcDbDictionary
281
     1
  3
Layout1
350
1E
  3
Layout2
350
26
  3
Model
350
22
  0
DICTIONARY
  5
17
102
{ACAD_REACTORS
330
C
102
}
330
C
100
AcDbDictionary
281
     1
  3
Standard
350
18
  0
DICTIONARY
  5
19
102
{ACAD_REACTORS
330
C
102
}
330
C
100
AcDbDictionary
281
     1
  0
ACDBDICTIONARYWDFLT
  5
E
102
{ACAD_REACTORS
330
C
102
}
330
C
100
AcDbDictionary
281
     1
  3
Normal
350
F
100
AcDbDictionaryWithDefault
340
F
  0
DICTIONARY
  5
47
102
{ACAD_REACTORS
330
C
102
}
330
C
100
AcDbDictionary
281
     1
  3
A0
350
48
  3
A1
350
49
  3
A2
350
4A
  3
A3
350
4B
  3
A4
350
4C
  3
A5
350
4D
  3
A6
350
4E
  3
A7
350
4F
  3
A8
350
50
  3
A9
350
51
  3
B0
350
52
  3
B1
350
53
  3
B2
350
54
  3
B3
350
55
  3
B4
350
56
  3
B5
350
57
  3
B6
350
58
  0
XRECORD
  5
319
102
{ACAD_REACTORS
330
C
102
}
330
C
100
AcDbXrecord
280
     1
  1
DWGPROPS COOKIE
  2

  3

  4

  6

  7

  8
LiMingyuan
  9

300
=
301
=
302
=
303
=
304
=
305
=
306
=
307
=
308
=
309
=
 40
0.0
 41
2460843.138741759
 42
2460843.138750348
  1

 90
        0
  0
LAYOUT
  5
1E
102
{ACAD_REACTORS
330
1A
102
}
330
1A
100
AcDbPlotSettings
  1

  2
none_device
  4

  6

 40
0.0
 41
0.0
 42
0.0
 43
0.0
 44
0.0
 45
0.0
 46
0.0
 47
0.0
 48
0.0
 49
0.0
140
0.0
141
0.0
142
1.0
143
1.0
 70
   688
 72
     1
 73
     0
 74
     5
  7

 75
    16
147
1.0
148
0.0
149
0.0
100
AcDbLayout
  1
Layout1
 70
     1
 71
     1
 10
0.0
 20
0.0
 11
420.0
 21
297.0
 12
0.0
 22
0.0
 32
0.0
 14
1.0000000000E+20
 24
1.0000000000E+20
 34
1.0000000000E+20
 15
-1.0000000000E+20
 25
-1.0000000000E+20
 35
-1.0000000000E+20
146
0.0
 13
0.0
 23
0.0
 33
0.0
 16
1.0
 26
0.0
 36
0.0
 17
0.0
 27
1.0
 37
0.0
 76
     0
330
1B
  0
LAYOUT
  5
26
102
{ACAD_REACTORS
330
1A
102
}
330
1A
100
AcDbPlotSettings
  1

  2
none_device
  4

  6

 40
0.0
 41
0.0
 42
0.0
 43
0.0
 44
0.0
 45
0.0
 46
0.0
 47
0.0
 48
0.0
 49
0.0
140
0.0
141
0.0
142
1.0
143
1.0
 70
   688
 72
     1
 73
     0
 74
     5
  7

 75
    16
147
1.0
148
0.0
149
0.0
100
AcDbLayout
  1
Layout2
 70
     1
 71
     2
 10
0.0
 20
0.0
 11
0.0
 21
0.0
 12
0.0
 22
0.0
 32
0.0
 14
0.0
 24
0.0
 34
0.0
 15
0.0
 25
0.0
 35
0.0
146
0.0
 13
0.0
 23
0.0
 33
0.0
 16
1.0
 26
0.0
 36
0.0
 17
0.0
 27
1.0
 37
0.0
 76
     0
330
23
  0
LAYOUT
  5
22
102
{ACAD_REACTORS
330
1A
102
}
330
1A
100
AcDbPlotSettings
  1

  2
none_device
  4
Letter_(8.50_x_11.00_Inches)
  6

 40
6.35
 41
6.35
 42
6.35000508
 43
6.35000508
 44
215.9
 45
279.4
 46
0.0
 47
0.0
 48
0.0
 49
0.0
140
0.0
141
0.0
142
1.0
143
1.0
 70
  1712
 72
     1
 73
     0
 74
     0
  7

 75
     0
147
1.0
148
0.0
149
0.0
100
AcDbLayout
  1
Model
 70
     1
 71
     0
 10
0.0
 20
0.0
 11
210.0
 21
297.0
 12
0.0
 22
0.0
 32
0.0
 14
0.0
 24
0.0
 34
0.0
 15
210.0
 25
297.0
 35
0.0
146
0.0
 13
0.0
 23
0.0
 33
0.0
 16
1.0
 26
0.0
 36
0.0
 17
0.0
 27
1.0
 37
0.0
 76
     0
330
1F
331
29
  0
MLINESTYLE
  5
18
102
{ACAD_REACTORS
330
17
102
}
330
17
100
AcDbMlineStyle
  2
Standard
 70
     0
  3

 62
   256
 51
90.0
 52
90.0
 71
     2
 49
0.5
 62
   256
  6
BYLAYER
 49
-0.5
 62
   256
  6
BYLAYER
  0
ACDBPLACEHOLDER
  5
F
102
{ACAD_REACTORS
330
E
102
}
330
E
  0
SCALE
  5
48
102
{ACAD_REACTORS
330
47
102
}
330
47
100
AcDbScale
 70
     0
300
1:1
140
1.0
141
1.0
290
     1
  0
SCALE
  5
49
102
{ACAD_REACTORS
330
47
102
}
330
47
100
AcDbScale
 70
     0
300
1:2
140
1.0
141
2.0
290
     0
  0
SCALE
  5
4A
102
{ACAD_REACTORS
330
47
102
}
330
47
100
AcDbScale
 70
     0
300
1:4
140
1.0
141
4.0
290
     0
  0
SCALE
  5
4B
102
{ACAD_REACTORS
330
47
102
}
330
47
100
AcDbScale
 70
     0
300
1:5
140
1.0
141
5.0
290
     0
  0
SCALE
  5
4C
102
{ACAD_REACTORS
330
47
102
}
330
47
100
AcDbScale
 70
     0
300
1:8
140
1.0
141
8.0
290
     0
  0
SCALE
  5
4D
102
{ACAD_REACTORS
330
47
102
}
330
47
100
AcDbScale
 70
     0
300
1:10
140
1.0
141
10.0
290
     0
  0
SCALE
  5
4E
102
{ACAD_REACTORS
330
47
102
}
330
47
100
AcDbScale
 70
     0
300
1:16
140
1.0
141
16.0
290
     0
  0
SCALE
  5
4F
102
{ACAD_REACTORS
330
47
102
}
330
47
100
AcDbScale
 70
     0
300
1:20
140
1.0
141
20.0
290
     0
  0
SCALE
  5
50
102
{ACAD_REACTORS
330
47
102
}
330
47
100
AcDbScale
 70
     0
300
1:30
140
1.0
141
30.0
290
     0
  0
SCALE
  5
51
102
{ACAD_REACTORS
330
47
102
}
330
47
100
AcDbScale
 70
     0
300
1:40
140
1.0
141
40.0
290
     0
  0
SCALE
  5
52
102
{ACAD_REACTORS
330
47
102
}
330
47
100
AcDbScale
 70
     0
300
1:50
140
1.0
141
50.0
290
     0
  0
SCALE
  5
53
102
{ACAD_REACTORS
330
47
102
}
330
47
100
AcDbScale
 70
     0
300
1:100
140
1.0
141
100.0
290
     0
  0
SCALE
  5
54
102
{ACAD_REACTORS
330
47
102
}
330
47
100
AcDbScale
 70
     0
300
2:1
140
2.0
141
1.0
290
     0
  0
SCALE
  5
55
102
{ACAD_REACTORS
330
47
102
}
330
47
100
AcDbScale
 70
     0
300
4:1
140
4.0
141
1.0
290
     0
  0
SCALE
  5
56
102
{ACAD_REACTORS
330
47
102
}
330
47
100
AcDbScale
 70
     0
300
8:1
140
8.0
141
1.0
290
     0
  0
SCALE
  5
57
102
{ACAD_REACTORS
330
47
102
}
330
47
100
AcDbScale
 70
     0
300
10:1
140
10.0
141
1.0
290
     0
  0
SCALE
  5
58
102
{ACAD_REACTORS
330
47
102
}
330
47
100
AcDbScale
 70
     0
300
100:1
140
100.0
141
1.0
290
     0
  0
ENDSEC
  0
EOF
